<svg width="245" height="181" viewBox="0 0 245 181" fill="none" xmlns="http://www.w3.org/2000/svg">
<g id="Group 6630">
<g id="Group 6624">
<path id="Vector" d="M60.909 131.829L60.909 131.829L60.909 131.829ZM70.1812 133.394C67.1508 132.92 64.1271 132.445 61.128 131.842C67.4171 131.14 74.3699 131.33 80.1198 133.95C80.3031 134.036 80.3546 134.133 80.3721 134.2C80.3937 134.282 80.3844 134.405 80.3093 134.549C80.1497 134.854 79.8134 135.048 79.5036 134.99C76.4589 134.377 73.3811 133.895 70.3102 133.414L70.1812 133.394Z" fill="url(#paint0_linear_52_16616)" stroke="url(#paint1_linear_52_16616)"/>
<path id="Vector_2" d="M71.4843 129.041C71.4922 129.03 71.5148 129.002 71.5965 128.99L80.1858 129.899L80.0742 130.386C80.0742 130.386 80.0743 130.386 80.0743 130.386C80.292 130.436 80.3906 130.542 80.4402 130.646C80.4972 130.766 80.5114 130.936 80.4592 131.118C80.3512 131.494 80.0543 131.708 79.6965 131.619L71.6731 129.498C71.5531 129.45 71.4616 129.317 71.4554 129.169C71.4525 129.1 71.4708 129.059 71.4843 129.041Z" fill="url(#paint2_linear_52_16616)" stroke="url(#paint3_linear_52_16616)"/>
<path id="Vector_3" d="M56.5924 101.752L56.5926 101.752C57.4134 100.577 58.1552 99.2897 58.8871 98.0199C59.1315 97.596 59.3747 97.174 59.6194 96.7587C60.6071 95.0826 61.6294 93.4952 62.8903 92.1972C63.0694 92.0129 63.2695 92.015 63.455 92.1387C63.662 92.2767 63.7774 92.5266 63.7227 92.7649C62.7992 96.6262 59.7223 100.63 57.1338 103.802C54.3949 107.13 51.4013 110.242 47.3559 111.582C47.3478 111.56 47.3448 111.538 47.3459 111.521C47.3462 111.517 47.3467 111.514 47.3471 111.512L47.3472 111.512C48.3969 110.395 49.4899 109.353 50.5911 108.303C51.0964 107.821 51.6035 107.337 52.1088 106.844C53.7045 105.287 55.2606 103.655 56.5924 101.752ZM47.2907 111.604C47.2906 111.605 47.2906 111.605 47.2907 111.604L47.2907 111.604ZM47.348 111.509C47.348 111.509 47.3479 111.509 47.3477 111.51L47.348 111.509Z" fill="url(#paint4_linear_52_16616)" stroke="url(#paint5_linear_52_16616)"/>
<path id="Vector_4" d="M64.4843 98.9095L64.4843 98.9095C63.8705 99.7052 63.5054 100.269 63.1701 100.786C62.5194 101.79 61.9813 102.621 59.9565 104.638C59.8377 104.757 59.7114 104.867 59.5943 104.967C59.568 104.989 59.5424 105.011 59.5172 105.033C59.4259 105.11 59.3414 105.182 59.2587 105.257C59.0486 105.448 58.9025 105.616 58.8188 105.798L58.8067 105.824L58.7916 105.849C58.7724 105.88 58.7606 105.916 58.757 105.953C58.7534 105.99 58.7583 106.027 58.7711 106.062C58.7838 106.096 58.8044 106.128 58.8313 106.154M64.4843 98.9095L58.8313 106.154M64.4843 98.9095L64.4863 98.9067C64.7298 98.5866 65.1553 98.5078 65.4983 98.6449C65.6632 98.7107 65.7802 98.8168 65.8419 98.9377C65.8996 99.0509 65.9313 99.2201 65.8506 99.4669M64.4843 98.9095L65.8506 99.4669M58.8313 106.154C58.8581 106.179 58.8902 106.199 58.9253 106.21L58.939 106.215L58.9524 106.22C59.3016 106.356 59.831 106.275 60.5457 105.865C61.2393 105.468 61.9989 104.823 62.7333 104.055C64.2115 102.509 65.4773 100.585 65.8506 99.4669M58.8313 106.154L65.8506 99.4669" fill="url(#paint6_linear_52_16616)" stroke="url(#paint7_linear_52_16616)"/>
<g id="Vector_5">
<mask id="path-5-inside-1_52_16616" fill="white">
<path d="M94.2321 125.557C86.5564 107.387 80.7118 98.3409 76.1722 86.9919C75.1082 84.0493 73.6314 81.273 71.7861 78.746C71.7861 78.2416 71.545 78.0332 71.2051 78.0661C70.5556 77.3325 69.8191 76.6808 69.012 76.1253C68.1654 75.6539 67.2052 75.4247 66.237 75.4631C65.2687 75.5015 64.3297 75.8059 63.5231 76.3429C62.7165 76.8799 62.0734 77.6287 61.6644 78.5072C61.2554 79.3857 61.0964 80.3599 61.2048 81.3228C60.7773 82.0524 60.5222 82.87 60.4591 83.7132C58.1673 87.6717 58.6498 90.2924 52.1365 99.887C48.178 105.71 43.1339 109.756 38.046 114.284C34.581 111.631 29.866 113.67 26.0721 115.962C21.8066 116.181 12.3764 120.776 8.09999 123.221C2.99019 126.138 -1.42881 129.537 2.61737 136.511C1.59631 138.275 0.747977 140.133 0.0843312 142.059C0.00445474 142.241 -0.0193599 142.442 0.0157984 142.638C0.0509567 142.833 0.14355 143.013 0.281765 143.156C0.413348 144.625 2.94635 151.511 5.38063 151.325C6.81278 152.031 8.40269 152.356 9.99696 152.268C12.815 156.402 16.1046 158.847 19.0652 156.435C19.1553 156.366 19.2268 156.275 19.2735 156.172C21.5311 156.123 23.7608 155.662 25.8527 154.812C28.4185 158.979 34.4604 165.032 35.3157 166.007C39.7785 171.062 47.1802 182.061 54.8997 180.372C55.143 180.338 55.3728 180.24 55.5655 180.088C55.7583 179.935 55.907 179.734 55.9963 179.506C70.0208 177.981 72.2248 164.845 63.6719 166.49C63.6719 163.08 60.5688 160.306 56.402 160.338C57.2682 156.237 52.6738 153.441 48.4412 154.384C48.3104 154.316 48.1699 154.268 48.0245 154.242C48.5508 151.621 47.4433 147.86 43.0243 147.849C43.13 147.591 43.1563 147.306 43.0996 147.033C43.043 146.759 42.906 146.509 42.7063 146.314L42.816 146.248C45.974 145.634 49.6802 142.772 50.1407 139.57C64.2749 137.903 74.8893 135.349 91.37 144.121C91.6404 144.295 91.9663 144.361 92.283 144.306C92.5998 144.251 92.8845 144.079 93.0807 143.825C93.2965 143.976 93.5521 144.06 93.8154 144.066C95.9207 144.888 97.9273 144.428 98.98 141.369C100.416 137.235 96.787 130.897 94.89 126.851C94.9028 126.596 94.8488 126.343 94.7334 126.116C94.6179 125.889 94.4452 125.696 94.2321 125.557ZM94.8022 133.813C94.0463 136.011 93.4094 138.247 92.8942 140.513C92.1924 139.68 91.5016 138.836 90.8547 137.969C91.9512 135.535 92.5762 132.969 93.4315 130.469C93.8701 131.489 94.3635 132.651 94.8022 133.857V133.813ZM67.9922 78.6034C68.6246 79.0496 69.1707 79.6069 69.604 80.2482C68.3879 83.3921 67.6237 86.6926 67.3343 90.0511C66.8957 89.1849 66.49 88.3296 66.1172 87.4524C66.3382 85.7948 66.6531 84.151 67.0602 82.529C67.4479 81.24 67.7591 79.9292 67.9922 78.6034ZM85.2954 112.672C84.6923 113.407 83.1023 122.355 82.8501 124.208C82.6966 123.857 82.5211 123.506 82.3676 123.111C83.1023 122.497 82.8062 121.182 82.7294 120.293C82.5101 117.585 83.6286 113.605 84.0563 110.118C84.5168 110.984 84.9334 111.828 85.3391 112.672H85.2954ZM88.8261 120.238C88.0805 120.984 86.3151 125.48 85.7778 130.019C85.4488 129.405 85.1199 128.791 84.8019 128.177C85.0501 127.946 85.1993 127.628 85.2185 127.289C85.4817 123.616 86.5673 119.975 87.0059 116.324C87.6528 117.618 88.2779 118.923 88.8261 120.238ZM88.9907 134.877C88.826 134.612 88.5797 134.408 88.2889 134.296C88.0476 133.912 87.8064 133.528 87.5761 133.134C88.9139 131.807 88.9577 129.153 89.3854 127.333C89.6814 126.116 90.0542 124.822 90.2735 123.517C90.7889 124.69 91.3701 125.875 91.8416 127.07C90.4819 129.351 89.8459 132.245 89.0344 134.877H88.9907ZM82.576 107.113C81.5941 110.77 80.7962 114.473 80.1855 118.21L79.6702 117.026C80.2294 116.488 79.8785 115.315 79.7359 114.526C79.6772 114.178 79.6004 113.834 79.5057 113.495C79.5762 110.196 80.0325 106.917 80.8654 103.725C81.4721 104.858 82.0569 105.987 82.6198 107.113H82.576ZM77.0934 110.918C76.6 109.745 76.3477 109.164 75.5033 107.19C75.5033 107.036 75.5033 106.093 75.5033 105.907C75.514 105.823 75.514 105.738 75.5033 105.655C75.6349 101.817 74.9332 102.65 77.0166 96.104C77.6635 97.5404 77.9377 98.1216 79.407 100.983C78.3763 103.056 77.3894 108.495 77.1591 110.918H77.0934ZM73.0801 101.521L72.455 100.106C72.6533 99.976 72.8116 99.7932 72.9122 99.5784C73.0129 99.3635 73.052 99.1249 73.0252 98.8891C72.8808 95.6521 73.2924 92.4144 74.2423 89.3165C74.7686 90.5885 75.3389 91.8824 75.8104 93.1543C74.8784 94.4373 73.3432 100.457 73.1458 101.521H73.0801ZM72.8498 86.1146C71.852 87.9239 70.6567 94.1193 70.5909 96.2027C70.2949 95.6105 69.9879 95.0184 69.6699 94.4372C69.8204 94.3025 69.9307 94.1288 69.9887 93.9353C70.0468 93.7418 70.0503 93.5361 69.9988 93.3407C69.1106 89.7112 70.1852 86.1585 71.0296 82.6058C71.7533 83.7462 72.3783 84.9194 72.9156 86.1146H72.8498ZM65.8868 78.0661C65.3605 79.6671 65.0535 81.268 64.5491 82.9676C64.3134 81.9781 64.1413 80.9746 64.0337 79.9631C64.1459 79.4999 64.3848 79.0771 64.7238 78.742C65.0627 78.407 65.4882 78.1729 65.9527 78.0661H65.8868ZM43.5506 142.136C42.7501 142.476 41.9497 142.816 41.1602 143.233C42.4985 137.788 42.8879 132.153 42.3115 126.576C43.408 128.671 44.362 130.809 45.2173 133.002C44.9651 134.351 44.702 138.616 43.6165 142.136H43.5506ZM40.3269 122.618C40.2809 122.714 40.2583 122.819 40.261 122.925C40.261 132.092 38.3861 142.059 38.1558 144.702C37.125 145.261 36.0942 145.798 35.0745 146.402C36.7193 137.048 38.364 126.171 36.2916 116.872C37.8377 118.002 39.4825 120.962 40.3926 122.618H40.3269ZM33.7477 116.039C34.3135 126.78 33.6919 137.551 31.8945 148.156C30.9954 148.675 30.0853 149.179 29.1642 149.669C30.8309 138.704 30.9516 127.41 31.8727 116.335C32.5141 116.151 33.1791 116.062 33.8464 116.072L33.7477 116.039ZM24.5588 151.95C24.2189 152.104 23.868 152.268 23.4623 152.411C25.1181 143.32 25.447 136.357 26.4558 127.552C26.8067 124.449 27.662 121.214 27.5523 118.078L29.0326 117.388C27.3878 128.441 27.6401 139.757 26.105 150.832C26.0936 150.952 26.0936 151.073 26.105 151.193L25.6444 151.424C25.765 150.667 24.6465 150.875 24.6575 151.983L24.5588 151.95ZM17.6507 154.329L17.3328 154.22C18.6267 148.43 18.9775 142.279 20.0521 136.434C21.0719 130.864 22.1246 125.304 22.7825 119.668C23.716 119.604 24.6319 119.382 25.4909 119.01C23.3855 124.493 22.925 139.954 20.5785 152.75C20.5116 152.991 20.5116 153.245 20.5785 153.485C19.7451 153.836 18.7583 154.132 17.7495 154.362L17.6507 154.329ZM20.7758 119.844C20.0191 120.173 20.4688 119.142 19.2407 126.061C16.8393 139.603 14.6243 145.996 14.6572 152.794C14.2268 152.484 13.8131 152.151 13.4181 151.796C13.6813 149.801 13.6814 147.783 13.9116 145.766C14.8437 137.827 19.6574 123.55 19.2407 120.469L20.7758 119.844ZM7.21174 142.103C7.80387 141.171 7.59565 138.726 7.74916 137.465C8.31936 132.717 10.8632 127.673 9.86538 125.261C10.7974 124.723 11.7405 124.219 12.6726 123.714C10.6549 130.359 9.50351 137.432 8.19864 144.274C7.91355 143.587 7.61755 142.874 7.31053 142.136L7.21174 142.103ZM5.36966 136.445C5.17228 135.875 4.96391 135.349 4.78847 134.756L6.61971 127.421C7.02542 127.114 7.43114 126.807 7.85879 126.522C7.68335 129.373 6.11528 133.43 5.49026 136.478L5.36966 136.445ZM10.1505 147.827C11.8062 139.395 14.1199 130.897 15.2384 122.388C15.7976 122.103 16.3348 121.828 16.9379 121.565C16.598 122.793 16.4665 124.131 16.1594 125.37C13.8458 134.735 10.8084 142.388 10.6768 148.649L10.1505 147.827ZM5.89597 149.263C5.23805 147.641 3.39586 146.599 2.29933 142.531C2.75987 141.237 3.30818 139.998 3.85645 138.759C4.93469 142.602 6.45437 146.307 8.3851 149.801C7.57415 149.709 6.7737 149.54 5.99462 149.296L5.89597 149.263ZM44.7787 151.753C45.5572 153.057 44.7239 154.669 44.5046 155.645C39.7237 158.463 40.7545 160.81 41.9278 160.393C43.4519 159.856 43.9783 159.297 47.1253 157.663C48.0135 157.586 48.803 157.038 49.735 156.983C51.3798 156.884 54.3515 157.926 53.255 160.338C52.1584 161.128 51.1496 162.027 49.9654 162.707C48.5014 163.444 47.1469 164.382 45.9411 165.492C45.645 165.81 45.7985 166.457 46.3029 166.435C48.9716 166.198 51.5368 165.289 53.7593 163.792C53.8946 163.783 54.0276 163.754 54.154 163.705C56.1278 163.014 58.5402 163.189 59.9437 165.021C61.9394 167.74 57.8165 168.935 57.6081 170.065C55.7372 171.675 53.7468 173.141 51.6539 174.451C51.5739 174.505 51.5144 174.584 51.4851 174.676C51.4559 174.768 51.4587 174.867 51.493 174.957C51.5274 175.048 51.5912 175.124 51.6741 175.173C51.7571 175.222 51.8544 175.242 51.95 175.229C54.6221 174.823 57.1529 173.765 59.3186 172.148C60.5617 171.477 61.7274 170.672 62.7947 169.747C63.7815 169.385 64.911 169.1 65.4264 169.615C65.9417 170.13 64.6697 171.808 64.4395 172.126C62.1587 175.416 57.5643 176.183 53.7703 177.378C48.1451 178.223 41.7961 168.793 27.9032 153.891C28.9997 153.386 34.91 150.678 39.329 148.2L39.5374 148.255C36.84 150.185 36.3464 150.568 35.3157 152.432C35.1183 152.783 35.4145 153.288 35.8312 153.156C37.5454 152.775 39.1715 152.072 40.623 151.084C41.6756 151.182 43.8687 149.998 44.8775 151.785L44.7787 151.753ZM49.9215 137.684C49.3842 133.463 46.928 129.066 45.1297 125.381C43.5726 122.19 41.8401 118.385 39.3949 115.633C48.9346 110.896 60.2288 94.8759 62.2244 86.5203L62.356 86.4216C62.7727 87.5182 63.2443 88.6147 63.661 89.6454C63.7317 89.8171 63.8448 89.968 63.9898 90.084C65.8539 95.8079 69.1874 99.5032 72.762 108.056C74.8674 113.177 82.1702 130.831 85.9203 138.013C76.9508 134.559 59.8888 133.342 50.0201 137.717L49.9215 137.684ZM95.197 141.237C95.3944 139.998 95.6684 138.781 95.9097 137.553C96.3263 138.989 96.6554 140.941 95.2957 141.27L95.197 141.237Z"/>
</mask>
<path d="M94.2321 125.557C86.5564 107.387 80.7118 98.3409 76.1722 86.9919C75.1082 84.0493 73.6314 81.273 71.7861 78.746C71.7861 78.2416 71.545 78.0332 71.2051 78.0661C70.5556 77.3325 69.8191 76.6808 69.012 76.1253C68.1654 75.6539 67.2052 75.4247 66.237 75.4631C65.2687 75.5015 64.3297 75.8059 63.5231 76.3429C62.7165 76.8799 62.0734 77.6287 61.6644 78.5072C61.2554 79.3857 61.0964 80.3599 61.2048 81.3228C60.7773 82.0524 60.5222 82.87 60.4591 83.7132C58.1673 87.6717 58.6498 90.2924 52.1365 99.887C48.178 105.71 43.1339 109.756 38.046 114.284C34.581 111.631 29.866 113.67 26.0721 115.962C21.8066 116.181 12.3764 120.776 8.09999 123.221C2.99019 126.138 -1.42881 129.537 2.61737 136.511C1.59631 138.275 0.747977 140.133 0.0843312 142.059C0.00445474 142.241 -0.0193599 142.442 0.0157984 142.638C0.0509567 142.833 0.14355 143.013 0.281765 143.156C0.413348 144.625 2.94635 151.511 5.38063 151.325C6.81278 152.031 8.40269 152.356 9.99696 152.268C12.815 156.402 16.1046 158.847 19.0652 156.435C19.1553 156.366 19.2268 156.275 19.2735 156.172C21.5311 156.123 23.7608 155.662 25.8527 154.812C28.4185 158.979 34.4604 165.032 35.3157 166.007C39.7785 171.062 47.1802 182.061 54.8997 180.372C55.143 180.338 55.3728 180.24 55.5655 180.088C55.7583 179.935 55.907 179.734 55.9963 179.506C70.0208 177.981 72.2248 164.845 63.6719 166.49C63.6719 163.08 60.5688 160.306 56.402 160.338C57.2682 156.237 52.6738 153.441 48.4412 154.384C48.3104 154.316 48.1699 154.268 48.0245 154.242C48.5508 151.621 47.4433 147.86 43.0243 147.849C43.13 147.591 43.1563 147.306 43.0996 147.033C43.043 146.759 42.906 146.509 42.7063 146.314L42.816 146.248C45.974 145.634 49.6802 142.772 50.1407 139.57C64.2749 137.903 74.8893 135.349 91.37 144.121C91.6404 144.295 91.9663 144.361 92.283 144.306C92.5998 144.251 92.8845 144.079 93.0807 143.825C93.2965 143.976 93.5521 144.06 93.8154 144.066C95.9207 144.888 97.9273 144.428 98.98 141.369C100.416 137.235 96.787 130.897 94.89 126.851C94.9028 126.596 94.8488 126.343 94.7334 126.116C94.6179 125.889 94.4452 125.696 94.2321 125.557ZM94.8022 133.813C94.0463 136.011 93.4094 138.247 92.8942 140.513C92.1924 139.68 91.5016 138.836 90.8547 137.969C91.9512 135.535 92.5762 132.969 93.4315 130.469C93.8701 131.489 94.3635 132.651 94.8022 133.857V133.813ZM67.9922 78.6034C68.6246 79.0496 69.1707 79.6069 69.604 80.2482C68.3879 83.3921 67.6237 86.6926 67.3343 90.0511C66.8957 89.1849 66.49 88.3296 66.1172 87.4524C66.3382 85.7948 66.6531 84.151 67.0602 82.529C67.4479 81.24 67.7591 79.9292 67.9922 78.6034ZM85.2954 112.672C84.6923 113.407 83.1023 122.355 82.8501 124.208C82.6966 123.857 82.5211 123.506 82.3676 123.111C83.1023 122.497 82.8062 121.182 82.7294 120.293C82.5101 117.585 83.6286 113.605 84.0563 110.118C84.5168 110.984 84.9334 111.828 85.3391 112.672H85.2954ZM88.8261 120.238C88.0805 120.984 86.3151 125.48 85.7778 130.019C85.4488 129.405 85.1199 128.791 84.8019 128.177C85.0501 127.946 85.1993 127.628 85.2185 127.289C85.4817 123.616 86.5673 119.975 87.0059 116.324C87.6528 117.618 88.2779 118.923 88.8261 120.238ZM88.9907 134.877C88.826 134.612 88.5797 134.408 88.2889 134.296C88.0476 133.912 87.8064 133.528 87.5761 133.134C88.9139 131.807 88.9577 129.153 89.3854 127.333C89.6814 126.116 90.0542 124.822 90.2735 123.517C90.7889 124.69 91.3701 125.875 91.8416 127.07C90.4819 129.351 89.8459 132.245 89.0344 134.877H88.9907ZM82.576 107.113C81.5941 110.77 80.7962 114.473 80.1855 118.21L79.6702 117.026C80.2294 116.488 79.8785 115.315 79.7359 114.526C79.6772 114.178 79.6004 113.834 79.5057 113.495C79.5762 110.196 80.0325 106.917 80.8654 103.725C81.4721 104.858 82.0569 105.987 82.6198 107.113H82.576ZM77.0934 110.918C76.6 109.745 76.3477 109.164 75.5033 107.19C75.5033 107.036 75.5033 106.093 75.5033 105.907C75.514 105.823 75.514 105.738 75.5033 105.655C75.6349 101.817 74.9332 102.65 77.0166 96.104C77.6635 97.5404 77.9377 98.1216 79.407 100.983C78.3763 103.056 77.3894 108.495 77.1591 110.918H77.0934ZM73.0801 101.521L72.455 100.106C72.6533 99.976 72.8116 99.7932 72.9122 99.5784C73.0129 99.3635 73.052 99.1249 73.0252 98.8891C72.8808 95.6521 73.2924 92.4144 74.2423 89.3165C74.7686 90.5885 75.3389 91.8824 75.8104 93.1543C74.8784 94.4373 73.3432 100.457 73.1458 101.521H73.0801ZM72.8498 86.1146C71.852 87.9239 70.6567 94.1193 70.5909 96.2027C70.2949 95.6105 69.9879 95.0184 69.6699 94.4372C69.8204 94.3025 69.9307 94.1288 69.9887 93.9353C70.0468 93.7418 70.0503 93.5361 69.9988 93.3407C69.1106 89.7112 70.1852 86.1585 71.0296 82.6058C71.7533 83.7462 72.3783 84.9194 72.9156 86.1146H72.8498ZM65.8868 78.0661C65.3605 79.6671 65.0535 81.268 64.5491 82.9676C64.3134 81.9781 64.1413 80.9746 64.0337 79.9631C64.1459 79.4999 64.3848 79.0771 64.7238 78.742C65.0627 78.407 65.4882 78.1729 65.9527 78.0661H65.8868ZM43.5506 142.136C42.7501 142.476 41.9497 142.816 41.1602 143.233C42.4985 137.788 42.8879 132.153 42.3115 126.576C43.408 128.671 44.362 130.809 45.2173 133.002C44.9651 134.351 44.702 138.616 43.6165 142.136H43.5506ZM40.3269 122.618C40.2809 122.714 40.2583 122.819 40.261 122.925C40.261 132.092 38.3861 142.059 38.1558 144.702C37.125 145.261 36.0942 145.798 35.0745 146.402C36.7193 137.048 38.364 126.171 36.2916 116.872C37.8377 118.002 39.4825 120.962 40.3926 122.618H40.3269ZM33.7477 116.039C34.3135 126.78 33.6919 137.551 31.8945 148.156C30.9954 148.675 30.0853 149.179 29.1642 149.669C30.8309 138.704 30.9516 127.41 31.8727 116.335C32.5141 116.151 33.1791 116.062 33.8464 116.072L33.7477 116.039ZM24.5588 151.95C24.2189 152.104 23.868 152.268 23.4623 152.411C25.1181 143.32 25.447 136.357 26.4558 127.552C26.8067 124.449 27.662 121.214 27.5523 118.078L29.0326 117.388C27.3878 128.441 27.6401 139.757 26.105 150.832C26.0936 150.952 26.0936 151.073 26.105 151.193L25.6444 151.424C25.765 150.667 24.6465 150.875 24.6575 151.983L24.5588 151.95ZM17.6507 154.329L17.3328 154.22C18.6267 148.43 18.9775 142.279 20.0521 136.434C21.0719 130.864 22.1246 125.304 22.7825 119.668C23.716 119.604 24.6319 119.382 25.4909 119.01C23.3855 124.493 22.925 139.954 20.5785 152.75C20.5116 152.991 20.5116 153.245 20.5785 153.485C19.7451 153.836 18.7583 154.132 17.7495 154.362L17.6507 154.329ZM20.7758 119.844C20.0191 120.173 20.4688 119.142 19.2407 126.061C16.8393 139.603 14.6243 145.996 14.6572 152.794C14.2268 152.484 13.8131 152.151 13.4181 151.796C13.6813 149.801 13.6814 147.783 13.9116 145.766C14.8437 137.827 19.6574 123.55 19.2407 120.469L20.7758 119.844ZM7.21174 142.103C7.80387 141.171 7.59565 138.726 7.74916 137.465C8.31936 132.717 10.8632 127.673 9.86538 125.261C10.7974 124.723 11.7405 124.219 12.6726 123.714C10.6549 130.359 9.50351 137.432 8.19864 144.274C7.91355 143.587 7.61755 142.874 7.31053 142.136L7.21174 142.103ZM5.36966 136.445C5.17228 135.875 4.96391 135.349 4.78847 134.756L6.61971 127.421C7.02542 127.114 7.43114 126.807 7.85879 126.522C7.68335 129.373 6.11528 133.43 5.49026 136.478L5.36966 136.445ZM10.1505 147.827C11.8062 139.395 14.1199 130.897 15.2384 122.388C15.7976 122.103 16.3348 121.828 16.9379 121.565C16.598 122.793 16.4665 124.131 16.1594 125.37C13.8458 134.735 10.8084 142.388 10.6768 148.649L10.1505 147.827ZM5.89597 149.263C5.23805 147.641 3.39586 146.599 2.29933 142.531C2.75987 141.237 3.30818 139.998 3.85645 138.759C4.93469 142.602 6.45437 146.307 8.3851 149.801C7.57415 149.709 6.7737 149.54 5.99462 149.296L5.89597 149.263ZM44.7787 151.753C45.5572 153.057 44.7239 154.669 44.5046 155.645C39.7237 158.463 40.7545 160.81 41.9278 160.393C43.4519 159.856 43.9783 159.297 47.1253 157.663C48.0135 157.586 48.803 157.038 49.735 156.983C51.3798 156.884 54.3515 157.926 53.255 160.338C52.1584 161.128 51.1496 162.027 49.9654 162.707C48.5014 163.444 47.1469 164.382 45.9411 165.492C45.645 165.81 45.7985 166.457 46.3029 166.435C48.9716 166.198 51.5368 165.289 53.7593 163.792C53.8946 163.783 54.0276 163.754 54.154 163.705C56.1278 163.014 58.5402 163.189 59.9437 165.021C61.9394 167.74 57.8165 168.935 57.6081 170.065C55.7372 171.675 53.7468 173.141 51.6539 174.451C51.5739 174.505 51.5144 174.584 51.4851 174.676C51.4559 174.768 51.4587 174.867 51.493 174.957C51.5274 175.048 51.5912 175.124 51.6741 175.173C51.7571 175.222 51.8544 175.242 51.95 175.229C54.6221 174.823 57.1529 173.765 59.3186 172.148C60.5617 171.477 61.7274 170.672 62.7947 169.747C63.7815 169.385 64.911 169.1 65.4264 169.615C65.9417 170.13 64.6697 171.808 64.4395 172.126C62.1587 175.416 57.5643 176.183 53.7703 177.378C48.1451 178.223 41.7961 168.793 27.9032 153.891C28.9997 153.386 34.91 150.678 39.329 148.2L39.5374 148.255C36.84 150.185 36.3464 150.568 35.3157 152.432C35.1183 152.783 35.4145 153.288 35.8312 153.156C37.5454 152.775 39.1715 152.072 40.623 151.084C41.6756 151.182 43.8687 149.998 44.8775 151.785L44.7787 151.753ZM49.9215 137.684C49.3842 133.463 46.928 129.066 45.1297 125.381C43.5726 122.19 41.8401 118.385 39.3949 115.633C48.9346 110.896 60.2288 94.8759 62.2244 86.5203L62.356 86.4216C62.7727 87.5182 63.2443 88.6147 63.661 89.6454C63.7317 89.8171 63.8448 89.968 63.9898 90.084C65.8539 95.8079 69.1874 99.5032 72.762 108.056C74.8674 113.177 82.1702 130.831 85.9203 138.013C76.9508 134.559 59.8888 133.342 50.0201 137.717L49.9215 137.684ZM95.197 141.237C95.3944 139.998 95.6684 138.781 95.9097 137.553C96.3263 138.989 96.6554 140.941 95.2957 141.27L95.197 141.237Z" fill="url(#paint8_linear_52_16616)" stroke="url(#paint9_linear_52_16616)" stroke-width="2" mask="url(#path-5-inside-1_52_16616)"/>
</g>
<path id="Vector_6" d="M94.6368 61.5262C97.0575 58.8576 99.4269 56.1138 101.797 53.3697C105.64 48.9191 109.484 44.4675 113.549 40.334C113.671 40.2261 113.826 40.1639 113.989 40.1586C114.155 40.1531 114.317 40.2073 114.447 40.3115C114.577 40.4157 114.665 40.5629 114.695 40.7262C114.725 40.8863 114.697 41.0516 114.618 41.1934C111.615 45.8336 108.126 49.6727 103.723 54.3285C103.186 54.8967 102.635 55.477 102.071 56.072C98.0062 60.3539 93.2108 65.4059 87.4242 72.3064L87.4234 72.3074C86.4881 73.429 85.5945 74.6208 84.7072 75.8042C84.3582 76.2696 84.0102 76.7337 83.661 77.1917C82.4192 78.8207 81.1508 80.3892 79.7211 81.7511C79.6236 81.8299 79.4668 81.8407 79.337 81.7669C79.2768 81.7327 79.2542 81.6965 79.248 81.6804L79.2477 81.6798C79.2452 81.6733 79.2352 81.6482 79.2658 81.5851L79.2734 81.5695L79.2799 81.5534C80.7532 77.8862 83.2418 74.3671 86.0486 71.0117C87.9198 68.7748 89.9118 66.6337 91.8277 64.5743C92.7917 63.5382 93.7364 62.5228 94.6368 61.5262ZM94.6368 61.5262C94.6369 61.5262 94.6369 61.5261 94.6369 61.5261L94.2659 61.1909L94.6363 61.5268C94.6364 61.5266 94.6366 61.5264 94.6368 61.5262Z" fill="url(#paint10_linear_52_16616)" stroke="url(#paint11_linear_52_16616)"/>
<path id="Vector_7" d="M92.0377 96.7493L92.0852 96.7317L92.1283 96.705C104.779 88.8367 117.651 81.7321 130.889 74.8111C131.036 74.7653 131.195 74.7706 131.34 74.8265C131.493 74.886 131.62 74.999 131.697 75.1445C131.774 75.29 131.796 75.4584 131.759 75.619C131.722 75.7767 131.631 75.9162 131.502 76.0128C128.333 78.1335 124.93 79.8683 121.471 81.5542C120.859 81.852 120.246 82.1484 119.632 82.4453C116.777 83.8255 113.905 85.2137 111.147 86.7877C109.603 87.6501 108.072 88.6436 106.542 89.6608C106.202 89.8864 105.863 90.1131 105.524 90.3399C104.329 91.1389 103.132 91.9389 101.916 92.6984C98.7945 94.6485 95.6072 96.2925 92.1847 96.8842L92.1395 96.8921L92.0964 96.908C92.0861 96.9118 92.075 96.9136 92.0638 96.9132C92.0527 96.9127 92.0419 96.9102 92.0317 96.9055C92.0215 96.9008 92.0124 96.8941 92.005 96.8861L91.6383 97.2257L92.005 96.8861C91.9973 96.8779 91.9915 96.8683 91.9877 96.858C91.9838 96.8477 91.9821 96.8366 91.9825 96.8254C91.9829 96.8142 91.9855 96.8033 91.9901 96.7933C91.9946 96.7835 92.0012 96.7744 92.0096 96.7666C92.0178 96.759 92.0273 96.7532 92.0377 96.7493Z" fill="url(#paint12_linear_52_16616)" stroke="url(#paint13_linear_52_16616)"/>
<path id="Vector_8" d="M103.576 117.794L103.576 117.794C103.563 117.796 103.554 117.798 103.548 117.8C103.547 117.807 103.546 117.819 103.548 117.838C103.553 117.875 103.57 117.915 103.596 117.943C103.616 117.965 103.64 117.98 103.674 117.987C111.157 118.523 118.654 118.818 126.165 119.015L126.165 119.015C127.063 119.04 127.995 119.078 128.952 119.117C131.241 119.211 133.668 119.311 136.078 119.24C139.491 119.139 142.794 118.695 145.503 117.439L145.507 117.437C145.661 117.367 145.73 117.276 145.763 117.191C145.8 117.097 145.807 116.973 145.767 116.834C145.683 116.538 145.439 116.318 145.177 116.296C143.688 116.169 142.179 116.285 140.638 116.462C140.19 116.513 139.738 116.57 139.282 116.627C138.184 116.766 137.069 116.906 135.965 116.977L103.576 117.794ZM103.576 117.794L103.579 117.793M103.576 117.794L103.579 117.793M103.579 117.793C108.613 116.963 113.869 116.936 119.299 117.031M103.579 117.793L119.299 117.031M119.299 117.031C120.208 117.047 121.121 117.066 122.039 117.085M119.299 117.031L122.039 117.085M122.039 117.085C126.595 117.181 131.261 117.279 135.965 116.977L122.039 117.085Z" fill="url(#paint14_linear_52_16616)" stroke="url(#paint15_linear_52_16616)"/>
</g>
<g id="Group 6625">
<path id="Vector_9" d="M175.221 11.4483C173.911 12.4959 173.66 16.1205 174.445 17.4404C174.791 18.048 175.849 18.289 176.436 18.5718C178.07 19.3365 179.715 20.0175 180.113 20.1537C180.167 20.2575 180.243 20.3479 180.337 20.4179C180.431 20.488 180.539 20.5358 180.654 20.558C180.769 20.5802 180.887 20.5761 181 20.546C181.113 20.5158 181.218 20.4605 181.307 20.3841C181.998 20.3841 183.161 20.0594 182.281 19.1375C182.812 18.0968 183.443 17.1108 184.167 16.1938C184.327 16.0278 184.416 15.8063 184.416 15.5757C184.416 15.3452 184.327 15.1236 184.167 14.9577C182.271 13.0616 178.007 9.12265 175.221 11.4483ZM178.426 17.3252L176.907 16.6338C178.185 14.6015 178.342 14.8529 179.83 13.7844C179.894 13.733 179.95 13.6731 179.997 13.6063C180.44 13.9311 180.863 14.2809 181.265 14.6539C180.266 15.4749 179.317 16.3565 178.426 17.2938V17.3252ZM178.803 12.9044C177.658 13.4681 176.699 14.3478 176.038 15.4396C175.765 12.7787 176.499 11.794 178.803 12.873V12.9044ZM180.773 18.289L179.725 17.9119C180.428 16.9868 181.206 16.1213 182.051 15.3243L182.396 15.6491C181.778 16.4662 181.328 17.3881 180.794 18.2575L180.773 18.289Z" fill="url(#paint16_linear_52_16616)"/>
<path id="Vector_10" d="M224.896 30.9856C224.037 26.68 219.983 23.7573 219.585 25.6534C218.538 30.8913 221.251 33.814 224.111 32.8922C224.283 32.9139 224.457 32.8823 224.611 32.8018C224.765 32.7213 224.89 32.5956 224.97 32.4417C225.098 32.3644 225.202 32.2538 225.273 32.1217C225.343 31.9897 225.376 31.8411 225.368 31.6917C225.361 31.5424 225.313 31.3978 225.23 31.2735C225.147 31.1492 225.032 31.0497 224.896 30.9856ZM221.858 28.8904C221.624 28.989 221.402 29.1156 221.198 29.2676C221.089 28.783 221.036 28.2873 221.041 27.7905C221.334 28.1237 221.606 28.4734 221.858 28.838V28.8904ZM221.607 30.2942C221.812 30.0585 222.071 29.8753 222.361 29.7599C222.599 30.2098 222.805 30.6753 222.979 31.1532C222.692 31.1492 222.413 31.0606 222.176 30.8985C221.94 30.7363 221.756 30.5079 221.649 30.2418L221.607 30.2942Z" fill="url(#paint17_linear_52_16616)"/>
<path id="Vector_11" d="M243.846 39.732C236.513 8.81789 184.657 -24.5999 148.327 26.1763C148.179 26.3565 148.084 26.5745 148.052 26.8057C148.021 27.037 148.054 27.2725 148.149 27.4858C128.696 53.0467 157.137 106.756 198.213 102.105C213.644 100.355 227.462 90.5815 236.177 78.0105C240.055 72.5181 242.741 66.275 244.061 59.6826C245.382 53.0901 245.309 46.2943 243.846 39.732ZM234.554 74.3021C232.219 76.3669 230.077 78.639 228.153 81.0904C228.289 80.3466 228.404 79.6028 228.467 78.8695C231.233 74.8363 235.507 71.2327 238.283 67.0005C237.238 69.5305 235.991 71.9723 234.554 74.3021ZM212.282 57.4151C214.493 53.8848 218.463 50.9306 219.783 47.9869C220.411 47.8717 221.04 47.725 221.658 47.5783C219.699 49.904 217.855 52.3762 215.949 54.7438C214.901 56.0742 212.806 58.2532 212.303 60.2645C211.969 59.7852 211.734 59.2438 211.612 58.6722C211.863 58.3055 212.031 57.8342 212.282 57.4256V57.4151ZM211.8 55.2466C212.294 53.721 213.097 52.3134 214.159 51.1114C215.22 49.9093 216.518 48.9385 217.97 48.2593H218.128C211.758 55.3304 211.8 55.2571 211.8 55.2571V55.2466ZM214.513 59.3636C216.839 54.9638 221.438 51.1506 222.894 47.3164C223.727 47.1246 224.575 47.0054 225.429 46.9603C223.428 50.103 222.559 52.3553 219.563 55.3409C217.771 57.1637 214.964 59.4265 214.199 62.0559C213.917 61.8748 213.644 61.679 213.382 61.4692C213.806 60.7972 214.184 60.0972 214.513 59.3741V59.3636ZM219.668 57.5932C220.72 56.8884 221.607 55.9625 222.265 54.88C224.025 53.0257 227.734 49.1392 226.372 46.9917C226.83 47.0156 227.285 47.0751 227.734 47.1698C228.026 47.4442 228.302 47.7345 228.561 48.0393C226.351 50.6373 219.018 60.4531 217.457 63.753C216.755 63.4596 216.095 63.1663 215.467 62.8521C217.038 60.9874 216.829 60.5893 219.668 57.6037V57.5932ZM223.564 57.017C225.419 54.2514 227.357 51.5487 229.326 48.8773C229.874 49.5556 230.541 50.1273 231.296 50.5639C229.216 52.7457 227.288 55.0662 225.523 57.5094C223.889 59.6674 221.668 62.1187 220.82 64.7691C220.039 64.7191 219.263 64.6212 218.494 64.4758C220.474 62.2864 221.93 59.4474 223.564 57.0275V57.017ZM226.142 59.1122C228.122 56.378 230.489 53.8743 232.27 51.0039C233.077 51.1604 233.899 51.2306 234.721 51.2134C231.819 53.4343 228.132 59.5312 223.942 64.832C223.418 64.832 222.894 64.832 222.37 64.832C223.743 63.0511 224.79 60.8931 226.142 59.0808V59.1122ZM230.039 58.9865C231.893 56.3047 234.229 53.9267 236.01 51.2344C236.68 51.2344 237.351 51.2344 237.969 51.3391C234.313 55.8437 231.411 60.8512 227.493 65.1567C227.412 65.0307 227.305 64.9235 227.179 64.8425C227.084 64.371 226.927 63.8891 226.445 64.0149C227.702 62.3283 228.865 60.6836 230.028 58.9551L230.039 58.9865ZM227.022 67.9957C231.935 63.3968 235.769 57.2475 239.341 51.5906C239.66 51.6601 239.961 51.7958 240.225 51.9889C240.488 52.1819 240.708 52.4281 240.871 52.7115C237.874 60.3903 231.872 66.0472 226.854 72.4793C226.643 70.9937 226.7 69.4823 227.022 68.0166V67.9957ZM240.012 62.1397C240.012 62.1397 235.591 68.1528 232.867 71.1594C231.327 72.8564 229.819 74.5535 228.436 76.3973C228.322 75.5981 228.044 74.8311 227.619 74.145C231.652 68.8023 239.236 60.8093 241.415 55.718C241.097 57.8782 240.628 60.0134 240.012 62.1083V62.1397ZM239.414 39.8367C238.545 40.0672 238.293 42.6443 236.429 42.5604C237.444 41.3248 238.395 40.0381 239.278 38.7053C239.341 39.0406 239.383 39.4177 239.456 39.8053L239.414 39.8367ZM221.815 36.0131C222.039 36.0622 222.267 36.0868 222.496 36.0864L221.941 36.7359C221.913 36.4775 221.871 36.2261 221.815 35.9816V36.0131ZM222.182 38.4853C223.021 37.5256 223.805 36.5183 224.528 35.4683C226.215 34.295 227.482 31.8332 229.085 31.4665C227.357 32.7446 226.99 33.5617 222.213 38.7996L222.182 38.4853ZM219.783 41.8166C219.039 41.8166 216.64 41.2614 217.688 40.57C218.735 39.8786 219.72 40.3186 220.663 40.57C220.33 40.9598 220.035 41.3808 219.783 41.8271V41.8166ZM230.73 31.8961C230.805 31.8469 230.869 31.7827 230.919 31.7075C231.296 31.8646 231.673 32.0742 232.06 32.2732C230.363 33.5513 228.677 37.0711 226.121 39.0406C225.46 39.0878 224.823 39.3057 224.273 39.673C223.722 40.0403 223.276 40.5443 222.978 41.1357L222.245 41.4081C224.298 39.3758 227.283 34.2636 230.73 31.8646V31.8961ZM233.045 32.797C233.633 33.1319 234.309 33.2816 234.983 33.2265C233.077 35.395 230.531 38.5587 229.819 39.4386C229.284 39.258 228.733 39.1283 228.174 39.051C229.919 37.0531 231.546 34.9543 233.045 32.7656V32.797ZM234.26 36.1807C235.161 35.0388 236.24 33.9493 237.141 32.776C237.372 33.1951 237.581 33.6246 237.78 34.0541C235.486 35.7092 233.789 38.3073 231.872 40.4024L231.222 40.0672C232.259 38.7577 233.255 37.4482 234.218 36.1492L234.26 36.1807ZM238.294 35.2483C238.524 35.8133 238.723 36.3903 238.891 36.9768C238.639 37.2911 235.381 41.4395 234.931 42.089C234.355 41.8167 233.789 41.5024 233.234 41.1776C234.994 39.2501 236.649 37.2178 238.294 35.2169V35.2483ZM208.961 11.3006C207.524 11.6494 206.205 12.3723 205.138 13.3958C204.09 14.2653 201.995 15.6481 201.586 17.1147C199.795 18.5229 197.822 19.6823 195.72 20.5613C197.815 18.6652 199.554 16.3709 201.66 14.5481C204.509 12.0863 207.631 10.0645 210.669 7.87506C209.831 9.35215 209.349 10.5883 209.014 11.2692L208.961 11.3006ZM207.851 12.893C207.216 13.5181 206.513 14.0698 205.756 14.5377C206.441 13.9416 207.158 13.3821 207.903 12.8616L207.851 12.893ZM197.564 3.46476L199.124 3.6638C196.297 4.95111 193.651 6.60664 191.257 8.58741C191.043 8.14605 190.794 7.72224 190.513 7.31985C193.876 4.88946 194.651 5.16183 197.616 3.42285L197.564 3.46476ZM196.097 6.84842C197.731 5.68561 199.596 5.0466 201.283 4.03045C201.943 4.16663 202.602 4.30282 203.262 4.47043C201.112 5.16821 199.038 6.08072 197.071 7.19414C195.573 7.9484 193.101 9.04835 192.032 10.5883C192.032 10.4312 191.938 10.274 191.886 10.1169C193.363 9.11122 194.735 7.81222 196.149 6.80654L196.097 6.84842ZM206.038 5.22469C202.173 6.50273 193.991 12.1282 192.127 13.6996C192.21 13.1587 192.256 12.6126 192.263 12.0654C192.386 12.07 192.508 12.0331 192.609 11.9606C194.348 10.7664 195.908 9.43596 197.763 8.36743C198.978 7.66555 204.048 5.29804 204.509 4.78472C205.075 4.879 205.578 5.02565 206.091 5.16184L206.038 5.22469ZM208.836 6.15705C205.787 7.48747 192.965 15.5853 191.739 18.5499C191.637 17.4406 191.693 16.3224 191.907 15.2291C193.373 15.0824 197.291 11.8454 198.339 11.0387C201.188 8.90776 204.266 7.10173 207.516 5.6542L208.836 6.15705ZM192.504 19.2622C193.813 17.3661 197.742 14.9881 199.837 13.4273C202.98 11.1226 206.122 8.776 209.485 6.74369C209.531 6.71946 209.571 6.68521 209.602 6.6435C209.632 6.60179 209.653 6.55368 209.663 6.50274L210.449 6.80654C207.184 8.45113 204.128 10.4804 201.345 12.8511C198.716 14.9462 194.892 17.6071 193.572 20.8127C193.21 20.7435 192.87 20.5845 192.585 20.3502C192.299 20.116 192.077 19.814 191.938 19.4718C192.054 19.5083 192.18 19.5031 192.292 19.4572C192.405 19.4113 192.498 19.3276 192.556 19.2204L192.504 19.2622ZM195.248 3.26572C193.268 4.03812 191.392 5.05517 189.665 6.29321C189.302 5.91316 188.91 5.56284 188.492 5.24563C189.47 4.59669 190.414 3.89738 191.32 3.15048C192.647 3.0981 193.976 3.12258 195.301 3.22381L195.248 3.26572ZM189.246 3.32857C188.596 3.73713 187.915 4.09332 187.287 4.52283C186.722 4.22733 186.129 3.9887 185.516 3.81046C186.794 3.54857 188.041 3.40191 189.298 3.28667L189.246 3.32857ZM168.755 13.3225C165.706 14.5136 162.753 15.9391 159.924 17.5861C162.142 15.4564 164.516 13.4955 167.027 11.7197C167.534 12.3313 168.135 12.8582 168.808 13.2806L168.755 13.3225ZM174.936 25.642C175.376 24.6109 175.692 23.5314 175.879 22.426C176.963 23.2828 178.185 23.9488 179.493 24.3954C179.619 25.0449 180.111 25.0658 180.698 25.3487C171.877 29.1409 163.748 35.2064 155.556 40.5177C153.104 42.0995 150.412 43.388 148.065 45.1061C147.647 44.1543 147.297 43.1741 147.018 42.1728C150.999 40.2348 154.801 37.7311 158.635 35.5521C163.339 32.8808 168.064 30.3142 172.841 27.7372C173.477 27.6114 174.094 27.4 174.674 27.1086C174.808 27.0435 174.925 26.9486 175.016 26.8312C175.107 26.7138 175.171 26.5771 175.201 26.4315C175.231 26.2858 175.228 26.1352 175.191 25.9911C175.154 25.847 175.085 25.7133 174.988 25.6001L174.936 25.642ZM181.504 32.5875C182.552 31.8856 183.662 31.1628 184.647 30.398C185.38 32.577 183.935 32.7132 181.557 32.5456L181.504 32.5875ZM171.898 40.151C170.413 41.043 169.275 42.4135 168.671 44.0375C168.496 43.8035 168.3 43.5861 168.085 43.388C167.975 43.2932 167.836 43.2393 167.691 43.2355C167.546 43.2316 167.404 43.278 167.289 43.3668C167.174 43.4555 167.094 43.5813 167.061 43.7226C167.029 43.864 167.046 44.0122 167.11 44.1423C167.202 44.2985 167.286 44.4594 167.362 44.6242C166.335 44.2297 165.224 44.107 164.135 44.268C172.097 38.1187 171.982 38.4539 179.461 33.8655C179.891 37.0292 174.077 38.7368 171.95 40.1091L171.898 40.151ZM163.213 53.3505C163.926 54.0838 164.701 54.7647 165.445 55.4457C164.427 54.9518 163.377 54.5283 162.302 54.1781L163.213 53.3505ZM161.244 53.8429C160.452 53.6054 159.679 53.3113 158.929 52.9629C159.792 52.3425 160.618 51.6709 161.401 50.9515C161.707 51.4798 162.058 51.9809 162.449 52.4496C161.968 52.8186 161.56 53.2732 161.244 53.7905V53.8429ZM160.898 49.7573C159.847 50.5503 158.903 51.4764 158.091 52.5125C157.136 51.9529 156.244 51.2927 155.43 50.543C157.389 49.3383 159.275 47.9974 161.129 46.6041C160.665 47.5716 160.579 48.6774 160.888 49.7049L160.898 49.7573ZM154.906 50.0401C154.278 49.4326 153.691 48.7726 153.115 48.0917C155.011 46.6565 156.708 44.8546 158.594 43.4299C165.927 37.8254 183.736 28.1667 183.736 28.1667C183.921 28.4673 184.089 28.7786 184.238 29.099C182.552 30.2409 159.044 44.7394 154.906 49.9878V50.0401ZM152.361 47.1907C152.235 47.0231 150.842 45.2632 150.684 45.0956C158.133 41.7538 167.718 32.7132 182.185 26.2391C182.479 26.5036 182.756 26.7871 183.013 27.0877C182.017 27.3915 157.295 40.9576 152.361 47.1384V47.1907ZM149.218 45.7451C149.134 46.0279 149.05 46.4889 148.956 46.9498L148.485 46.007L149.218 45.7451ZM146.84 41.1357C146.662 40.371 146.525 39.6063 146.421 38.8101C146.39 38.6668 146.313 38.5378 146.201 38.4434L146.389 37.7206C151.302 35.3216 158.342 29.5704 167.969 26.6372C168.593 27.1195 169.305 27.4753 170.065 27.6848C167.687 28.8476 151.292 37.6997 146.819 41.0834L146.84 41.1357ZM151.648 26.962C153.952 25.9446 156.179 24.7612 158.311 23.4211C160.586 22.2135 162.934 21.1464 165.34 20.226C165.282 21.0733 165.352 21.9246 165.549 22.7507C162.7 23.9103 159.925 25.2468 157.242 26.7524C154.508 28.1876 151.428 29.4133 148.683 30.9428C149.061 30.0837 149.469 29.2247 149.92 28.3762C150.705 28.261 150.978 27.7581 151.627 26.9096L151.648 26.962ZM146.84 36.0131C147.175 34.8817 147.563 33.7608 147.992 32.6503C151.198 31.8018 150.957 31.2047 165.937 23.9449C166.165 24.5319 166.483 25.0798 166.88 25.5687C159.795 28.2045 153.059 31.6942 146.819 35.9607L146.84 36.0131ZM165.539 18.7804C162.742 19.0318 159.851 21.0955 153.461 24.5944C154.571 23.2326 155.72 21.9126 156.907 20.6346C160.388 18.6119 163.976 16.7794 167.655 15.1453C166.633 16.1428 165.902 17.3993 165.539 18.7804ZM145.426 42.8747L145.583 42.8119C146.173 45.1266 147.097 47.3428 148.327 49.3907C148.757 50.1135 150.056 50.1554 150.601 47.9345C152.145 50.0589 153.995 51.9439 156.09 53.5286C159.809 56.1371 164.471 56.1685 167.613 59.6674C167.71 59.7876 167.836 59.8808 167.979 59.9377C168.122 59.9946 168.278 60.0134 168.43 59.9922C168.43 61.6788 166.094 62.4016 167.163 67.9014C167.697 70.667 171.626 73.4012 172.589 78.4715C172.233 79.1524 168.619 86.9045 168.692 91.0424C154.602 81.1009 143.205 62.0873 145.426 42.8747ZM169.97 58.2741C170.484 58.6722 171.95 59.7407 172.6 59.6674C171.552 60.4426 171.133 60.8407 170.159 61.6054C170.557 60.3379 170.756 59.196 169.97 58.2846V58.2741ZM188.052 68.0061C184.479 71.3898 180.394 73.5164 176.224 76.0306L176.403 75.7163C176.591 75.3602 176.266 74.8259 175.837 74.983C175.342 75.1709 174.89 75.4558 174.506 75.8211C174.386 75.4312 174.232 75.0525 174.045 74.6897C178.491 72.5341 182.662 69.8542 186.47 66.7071C186.947 67.2007 187.478 67.6398 188.052 68.0166V68.0061ZM190.765 69.2737C187.842 70.8242 185.527 73.5688 183.086 75.7268C180.027 78.3876 176.182 79.9171 173.008 82.4418C173.731 80.7447 174.569 79.121 175.365 77.6334C180.753 75.9533 185.611 72.9031 189.466 68.7814C189.888 68.9753 190.322 69.1432 190.765 69.2842V69.2737ZM172.107 84.7779C172.209 84.756 172.306 84.7132 172.39 84.6522C175.763 81.9809 179.566 79.9905 183.013 77.4448C186.155 75.1087 188.67 72.0289 191.729 69.567C192.242 69.7032 192.776 69.808 193.3 69.9023C189.77 72.5107 186.585 75.7163 183.264 78.5553C179.252 82.0018 175.229 85.4379 171.144 88.7901C171.332 87.4241 171.654 86.0802 172.107 84.7779ZM173.448 73.684C173.281 73.4117 173.103 73.1498 172.904 72.8879C173.336 72.5092 173.726 72.0842 174.066 71.6203C176.245 69.3156 181.075 66.6443 184.416 63.952C184.733 64.5237 185.083 65.0764 185.464 65.6072C181.557 68.4147 177.387 70.866 173.459 73.684H173.448ZM172.128 71.8298C171.678 71.2432 171.217 70.6565 170.808 70.0489C172.558 68.5509 171.856 68.4985 176.581 65.4291C178.676 64.0672 180.907 62.8206 182.866 61.2911C183.152 61.7286 183.411 62.1835 183.641 62.653C179.545 66.0577 172.977 69.609 172.128 71.8298ZM170.18 69.0537C169.908 68.5904 169.68 68.103 169.499 67.5976C173.983 63.3025 173.878 63.1663 180.813 59.3112C181.263 59.5411 181.677 59.8378 182.038 60.1912C177.838 63.4282 171.73 66.0472 170.18 69.0642V69.0537ZM169.185 65.8586C169.188 65.1674 169.287 64.48 169.478 63.8158C171.63 62.044 173.871 60.3832 176.193 58.8398C176.245 58.81 176.291 58.771 176.329 58.7246C177.169 58.651 178.014 58.651 178.854 58.7246C175.994 60.2645 171.144 63.3968 169.185 65.8586ZM173.291 59.1646C173.343 59.0678 173.372 58.9602 173.375 58.8503H173.731L173.291 59.1646ZM171.039 90.6967C171.73 90.1415 190.943 74.0402 194.368 70.0804L195.552 70.227C195.615 70.3632 195.657 70.4994 195.72 70.6356C191.624 74.8259 188.104 79.2048 183.453 82.8923C179.524 86.035 174.957 88.9996 171.929 93.1166C171.688 92.9595 171.426 92.8233 171.185 92.6767C171.104 92.0195 171.055 91.3587 171.039 90.6967ZM183.872 85.1655C183.821 85.041 183.733 84.935 183.62 84.8617C189.214 80.4514 191.09 77.9477 196.086 72.4479C196.17 77.5915 187.894 80.9018 183.872 85.1655ZM174.779 94.6671C174.119 94.3318 173.469 93.9756 172.82 93.6195C175.949 91.0215 179.091 88.4619 182.248 85.9407C180.582 90.7281 176.811 90.9377 174.779 94.6671ZM225.188 85.7417C212.062 97.8727 193.436 102.953 176.727 95.5784C178.079 93.3576 180.918 91.891 182.604 89.911C182.735 89.9591 182.875 89.9781 183.014 89.9667C183.154 89.9553 183.289 89.9138 183.41 89.845C183.532 89.7763 183.637 89.6819 183.718 89.5685C183.8 89.4551 183.856 89.3253 183.882 89.1882C184.825 85.0817 202.917 75.7792 197.396 70.028C197.867 69.4728 197.784 68.3623 196.914 68.2471C193.635 67.7966 190.534 67.3043 188.041 65.2929C188.114 64.832 187.622 64.2977 187.151 64.4549C184.448 61.3121 184.72 55.9695 176.8 56.598C174.815 56.8227 172.812 56.8612 170.819 56.7132C170.075 56.0469 169.216 55.5216 168.284 55.1628C167.121 53.801 165.434 52.5963 164.439 51.5906C163.119 50.2602 161.736 47.6831 163.873 46.3527C165.225 45.5041 167.079 46.4365 168.326 47.1593C168.428 47.4555 168.547 47.7458 168.682 48.0288C169.132 48.9821 170.4 48.2593 170.253 47.3688C169.007 39.8577 181.022 40.7586 181.441 34.4836C183.536 34.5883 187.067 34.735 187.004 32.1265C186.945 30.4596 186.474 28.8333 185.633 27.3929C184.792 25.9524 183.608 24.7426 182.185 23.8716C182.279 23.243 180.237 22.6459 179.472 22.2898C178.155 21.6276 176.906 20.8381 175.743 19.9327C175.124 19.4823 174.423 20.1213 174.36 20.7289C173.972 24.5001 173.448 25.0868 172.265 25.7468C166.67 26.4801 164.397 17.649 171.552 14.5796C172.202 14.2967 172.003 13.4377 171.552 13.1025C169.688 11.7511 168.797 11.2273 168.64 10.6302C172.186 8.29556 176.03 6.4492 180.069 5.14089C186.355 4.47044 190.87 8.00078 190.189 14.8519C189.948 17.3033 189.728 19.6184 191.331 21.6403C194.337 25.4325 201.241 19.6289 203.755 17.9633C205.85 16.5909 208.396 15.4805 209.894 13.4063C211.151 11.6673 211.811 9.66644 212.9 7.8227C222.815 12.471 231.067 20.0465 236.544 29.5286C236.362 29.6104 236.204 29.7364 236.083 29.8952C234.449 32.1684 233.632 30.859 231.704 29.979C230.651 29.561 229.486 29.5167 228.404 29.8533C225.094 30.6495 224.696 35.4579 220.862 33.6874C220.191 33.3732 219.123 33.897 219.458 34.735C219.848 35.9057 220.135 37.1079 220.317 38.3282C217.028 37.5216 214.482 39.5434 215.551 41.9423C216.483 44.0375 220.526 44.1842 223.166 43.1261C224.218 42.715 225.209 42.1617 226.11 41.4814C229.117 40.3501 231.432 42.8852 234.376 44.1947C237.152 45.4413 239.435 44.1947 240.357 41.5443C240.594 41.5317 240.819 41.4394 240.996 41.2824C241.609 44.2662 241.887 47.3091 241.824 50.3544C238.576 47.3584 234.04 51.6639 229.599 46.4155C229.348 46.1243 229.063 45.864 228.75 45.6403C227.93 45.0646 226.926 44.8144 225.932 44.9384C223.811 45.1076 221.708 45.4581 219.647 45.986C218.358 44.8546 210.543 48.6364 209.338 56.2209C209.052 58.352 209.596 60.5115 210.858 62.2527C212.12 63.9939 214.002 65.1837 216.116 65.5758C218.788 67.2833 221.972 67.2624 225.063 67.0528C224.434 70.0489 224.12 73.5059 225.911 75.8106C225.999 75.9369 226.118 76.038 226.257 76.1039C226.665 79.3305 225.408 82.3475 225.188 85.7417Z" fill="url(#paint18_linear_52_16616)"/>
<path id="Vector_12" d="M154.843 67.6406C154.843 67.6101 154.831 67.5808 154.81 67.5592C154.788 67.5375 154.759 67.5254 154.728 67.5254C154.698 67.5254 154.668 67.5375 154.647 67.5592C154.625 67.5808 154.613 67.6101 154.613 67.6406C153.963 70.4272 155.262 73.2766 156.446 75.7489C157.63 78.2212 159.757 81.7934 162.564 82.621C162.721 82.6619 162.887 82.6504 163.037 82.5882C163.186 82.5261 163.312 82.4167 163.394 82.2767C163.476 82.1367 163.509 81.9739 163.49 81.8129C163.471 81.6519 163.399 81.5016 163.287 81.3849C158.374 76.566 157.441 75.9375 154.843 67.6406Z" fill="url(#paint19_linear_52_16616)"/>
<path id="Vector_13" d="M165.005 80.0746C162.323 78.388 160.668 75.5071 158.719 73.0663C158.625 72.951 158.405 73.0663 158.457 73.2234C159.672 76.2404 161.17 79.7812 164.177 81.4364C164.358 81.5462 164.574 81.5797 164.78 81.5296C164.985 81.4795 165.162 81.3499 165.272 81.1693C165.381 80.9887 165.415 80.7719 165.365 80.5666C165.315 80.3613 165.185 80.1843 165.005 80.0746Z" fill="url(#paint20_linear_52_16616)"/>
<path id="Vector_14" d="M217.75 86.1191C210.606 89.2618 208.626 93.9341 195.835 94.5731C195.785 94.5731 195.737 94.5929 195.702 94.6283C195.666 94.6637 195.646 94.7116 195.646 94.7616C195.646 94.8116 195.666 94.8596 195.702 94.895C195.737 94.9303 195.785 94.9502 195.835 94.9502C203.524 97.3491 212.596 91.8075 218.515 87.3343C218.676 87.2329 218.791 87.0716 218.833 86.886C218.875 86.7003 218.842 86.5055 218.74 86.3443C218.639 86.1832 218.478 86.0689 218.292 86.0267C218.106 85.9844 217.912 86.0177 217.75 86.1191Z" fill="url(#paint21_linear_52_16616)"/>
<path id="Vector_15" d="M205.705 90.414C209.319 90.0054 216.851 86.5379 217.961 83.0809C218.16 82.4523 217.354 81.7505 216.778 82.18C215.06 83.4475 213.75 85.0608 211.865 86.2027C209.769 87.4493 207.486 88.2978 205.474 89.5759C205.118 89.7749 205.212 90.4663 205.705 90.414Z" fill="url(#paint22_linear_52_16616)"/>
<path id="Vector_16" d="M218.15 14.9463C221.354 16.9016 224.288 19.2683 226.876 21.9861C227.631 22.8242 228.05 23.8089 228.972 24.427C229.08 24.4814 229.2 24.5079 229.321 24.5039C229.442 24.4999 229.56 24.4655 229.664 24.404C229.768 24.3425 229.856 24.2557 229.918 24.1517C229.98 24.0478 230.015 23.9299 230.019 23.8089C229.736 20.5509 223.011 15.973 218.381 14.2654C218.024 14.1188 217.804 14.7368 218.15 14.9463Z" fill="url(#paint23_linear_52_16616)"/>
<path id="Vector_17" d="M223.167 20.3625C223.102 20.3105 223.021 20.2842 222.939 20.2886C222.856 20.2929 222.778 20.3278 222.719 20.3863C222.661 20.4448 222.626 20.5229 222.622 20.6055C222.617 20.6882 222.643 20.7695 222.695 20.8339C223.942 22.3215 224.937 23.2748 226.383 24.9509C226.739 25.3595 226.949 25.6632 227.514 25.6213C227.609 25.6225 227.702 25.5923 227.777 25.5355C227.853 25.4786 227.908 25.3983 227.933 25.3071C228.153 24.3119 227.336 23.7986 223.167 20.3625Z" fill="url(#paint24_linear_52_16616)"/>
</g>
</g>
<defs>
<linearGradient id="paint0_linear_52_16616" x1="70.6599" y1="130.992" x2="70.6599" y2="135.501" gradientUnits="userSpaceOnUse">
<stop stop-color="#49D46F"/>
<stop offset="1" stop-color="#25BE9F"/>
</linearGradient>
<linearGradient id="paint1_linear_52_16616" x1="60.4375" y1="132.017" x2="78.4613" y2="135.737" gradientUnits="userSpaceOnUse">
<stop stop-color="#1764DB"/>
<stop offset="1" stop-color="#80E39B"/>
</linearGradient>
<linearGradient id="paint2_linear_52_16616" x1="75.9733" y1="128.409" x2="75.9733" y2="132.14" gradientUnits="userSpaceOnUse">
<stop stop-color="#49D46F"/>
<stop offset="1" stop-color="#25BE9F"/>
</linearGradient>
<linearGradient id="paint3_linear_52_16616" x1="70.9551" y1="129.257" x2="80.0437" y2="130.37" gradientUnits="userSpaceOnUse">
<stop stop-color="#1764DB"/>
<stop offset="1" stop-color="#80E39B"/>
</linearGradient>
<linearGradient id="paint4_linear_52_16616" x1="55.5412" y1="91.5518" x2="55.5412" y2="112.101" gradientUnits="userSpaceOnUse">
<stop stop-color="#49D46F"/>
<stop offset="1" stop-color="#25BE9F"/>
</linearGradient>
<linearGradient id="paint5_linear_52_16616" x1="46.8457" y1="96.2221" x2="62.8067" y2="96.837" gradientUnits="userSpaceOnUse">
<stop stop-color="#1764DB"/>
<stop offset="1" stop-color="#80E39B"/>
</linearGradient>
<linearGradient id="paint6_linear_52_16616" x1="62.3275" y1="98.0811" x2="62.3275" y2="106.781" gradientUnits="userSpaceOnUse">
<stop stop-color="#49D46F"/>
<stop offset="1" stop-color="#25BE9F"/>
</linearGradient>
<linearGradient id="paint7_linear_52_16616" x1="58.2559" y1="100.058" x2="65.7271" y2="100.377" gradientUnits="userSpaceOnUse">
<stop stop-color="#1764DB"/>
<stop offset="1" stop-color="#80E39B"/>
</linearGradient>
<linearGradient id="paint8_linear_52_16616" x1="49.6541" y1="75.459" x2="49.6541" y2="180.546" gradientUnits="userSpaceOnUse">
<stop stop-color="#49D46F"/>
<stop offset="1" stop-color="#25BE9F"/>
</linearGradient>
<linearGradient id="paint9_linear_52_16616" x1="-3.31278e-08" y1="99.3425" x2="91.1092" y2="103.261" gradientUnits="userSpaceOnUse">
<stop stop-color="#1764DB"/>
<stop offset="1" stop-color="#80E39B"/>
</linearGradient>
<linearGradient id="paint10_linear_52_16616" x1="96.9754" y1="39.6582" x2="96.9754" y2="82.3164" gradientUnits="userSpaceOnUse">
<stop stop-color="#49D46F"/>
<stop offset="1" stop-color="#25BE9F"/>
</linearGradient>
<linearGradient id="paint11_linear_52_16616" x1="78.7441" y1="49.3533" x2="112.207" y2="50.6552" gradientUnits="userSpaceOnUse">
<stop stop-color="#1764DB"/>
<stop offset="1" stop-color="#80E39B"/>
</linearGradient>
<linearGradient id="paint12_linear_52_16616" x1="111.879" y1="74.2803" x2="111.879" y2="97.4132" gradientUnits="userSpaceOnUse">
<stop stop-color="#49D46F"/>
<stop offset="1" stop-color="#25BE9F"/>
</linearGradient>
<linearGradient id="paint13_linear_52_16616" x1="91.4824" y1="79.5378" x2="128.738" y2="82.5281" gradientUnits="userSpaceOnUse">
<stop stop-color="#1764DB"/>
<stop offset="1" stop-color="#80E39B"/>
</linearGradient>
<linearGradient id="paint14_linear_52_16616" x1="124.671" y1="115.742" x2="124.671" y2="119.764" gradientUnits="userSpaceOnUse">
<stop stop-color="#49D46F"/>
<stop offset="1" stop-color="#25BE9F"/>
</linearGradient>
<linearGradient id="paint15_linear_52_16616" x1="103.047" y1="116.656" x2="135.115" y2="132.352" gradientUnits="userSpaceOnUse">
<stop stop-color="#1764DB"/>
<stop offset="1" stop-color="#80E39B"/>
</linearGradient>
<linearGradient id="paint16_linear_52_16616" x1="179.208" y1="10.7344" x2="179.208" y2="20.5721" gradientUnits="userSpaceOnUse">
<stop stop-color="#49D46F"/>
<stop offset="1" stop-color="#25BE9F"/>
</linearGradient>
<linearGradient id="paint17_linear_52_16616" x1="222.362" y1="25.0645" x2="222.362" y2="33.0607" gradientUnits="userSpaceOnUse">
<stop stop-color="#49D46F"/>
<stop offset="1" stop-color="#25BE9F"/>
</linearGradient>
<linearGradient id="paint18_linear_52_16616" x1="193.444" y1="0" x2="193.444" y2="102.389" gradientUnits="userSpaceOnUse">
<stop stop-color="#49D46F"/>
<stop offset="1" stop-color="#25BE9F"/>
</linearGradient>
<linearGradient id="paint19_linear_52_16616" x1="158.967" y1="67.5254" x2="158.967" y2="82.645" gradientUnits="userSpaceOnUse">
<stop stop-color="#49D46F"/>
<stop offset="1" stop-color="#25BE9F"/>
</linearGradient>
<linearGradient id="paint20_linear_52_16616" x1="161.918" y1="73.0195" x2="161.918" y2="81.5523" gradientUnits="userSpaceOnUse">
<stop stop-color="#49D46F"/>
<stop offset="1" stop-color="#25BE9F"/>
</linearGradient>
<linearGradient id="paint21_linear_52_16616" x1="207.249" y1="86.0088" x2="207.249" y2="95.5297" gradientUnits="userSpaceOnUse">
<stop stop-color="#49D46F"/>
<stop offset="1" stop-color="#25BE9F"/>
</linearGradient>
<linearGradient id="paint22_linear_52_16616" x1="211.626" y1="82.0479" x2="211.626" y2="90.4168" gradientUnits="userSpaceOnUse">
<stop stop-color="#49D46F"/>
<stop offset="1" stop-color="#25BE9F"/>
</linearGradient>
<linearGradient id="paint23_linear_52_16616" x1="223.998" y1="14.2432" x2="223.998" y2="24.5043" gradientUnits="userSpaceOnUse">
<stop stop-color="#49D46F"/>
<stop offset="1" stop-color="#25BE9F"/>
</linearGradient>
<linearGradient id="paint24_linear_52_16616" x1="225.294" y1="20.2881" x2="225.294" y2="25.6252" gradientUnits="userSpaceOnUse">
<stop stop-color="#49D46F"/>
<stop offset="1" stop-color="#25BE9F"/>
</linearGradient>
</defs>
</svg>
