<svg width="117" height="92" viewBox="0 0 117 92" fill="none" xmlns="http://www.w3.org/2000/svg">
<g id="Group 6619">
<path id="Vector" d="M116.465 83.4149C103.103 71.6295 86.4276 64.2576 68.7179 62.3064C52.5737 60.5987 36.2795 63.5812 21.7869 70.8965C13.8106 74.8567 6.56325 80.1403 0.35287 86.5228C0.166223 86.7138 0.474413 86.9569 0.65672 86.8093C12.103 76.2225 26.1015 68.5395 41.3458 65.1061C54.3341 62.2229 67.8211 62.4618 80.6992 65.803C93.5773 69.1441 105.479 75.4924 115.427 84.3264C116.096 84.9341 117.19 84.0573 116.465 83.4149Z" fill="white" stroke="url(#paint0_linear_50_3554)" stroke-width="0.5"/>
<path id="Vector_2" d="M85.8582 72.7548C84.2088 71.8086 82.0689 71.3962 80.2154 70.9318C78.362 70.4673 76.4998 70.0897 74.616 69.7945C63.1106 68.0212 51.3393 69.4292 40.5767 73.866C36.5356 75.5589 30.4066 78.8665 26.9819 81.5967C26.8169 81.7226 26.9818 81.9353 27.1685 81.8398C33.7966 78.0417 43.0248 73.6881 50.5038 72.0039C57.9382 70.3246 65.6126 69.9851 73.1662 71.0012C75.2098 71.2793 77.238 71.6603 79.2431 72.1428C80.2675 72.3917 81.2803 72.6651 82.2816 72.9632C83.3178 73.3386 84.376 73.6503 85.4502 73.8964C85.5983 73.9378 85.7564 73.9214 85.8929 73.8508C86.0294 73.7801 86.1341 73.6604 86.1859 73.5156C86.2376 73.3709 86.2325 73.2119 86.1718 73.0708C86.111 72.9296 85.9989 72.8167 85.8582 72.7548Z" fill="white" stroke="url(#paint1_linear_50_3554)" stroke-width="0.5"/>
<path id="Vector_3" d="M94.9705 81.2181C95.0821 80.9243 95.1381 80.6122 95.1354 80.2979C95.0312 80.1417 94.9314 79.981 94.8403 79.8161C94.2279 79.212 93.5721 78.6534 92.8783 78.145C92.0449 77.4678 91.2028 76.7979 90.352 76.1352C88.7394 74.7961 87.0367 73.5692 85.2561 72.4631C85.0304 72.3285 84.6702 72.5542 84.8828 72.806C86.2494 74.3 87.7187 75.6967 89.2799 76.986C90.0178 77.6328 90.7514 78.2882 91.498 78.9133L91.7714 79.152C77.0133 75.7923 61.196 76.4999 46.8762 81.4829C42.5703 82.9804 37.9996 84.7297 34.2363 87.3601C34.2254 87.3681 34.2165 87.3785 34.2103 87.3905C32.9081 86.1882 29.0796 82.6592 27.6299 81.7477C27.4779 81.6479 27.2479 81.8128 27.3824 81.9821C29.3424 84.2108 31.4417 86.3129 33.6677 88.276C33.9617 88.0857 34.266 87.9118 34.5792 87.7551L34.4707 87.6553C38.2384 86.1578 41.8498 84.3738 45.7043 83.0629C49.5916 81.7285 53.569 80.6725 57.6063 79.9029C65.6312 78.3849 73.835 78.0486 81.9573 78.9046C86.2812 79.3685 90.5606 80.1814 94.7534 81.3353C94.8359 81.2919 94.9054 81.2529 94.9705 81.2181Z" fill="white" stroke="url(#paint2_linear_50_3554)" stroke-width="0.5"/>
<path id="Vector_4" d="M35.2909 53.0575C44.4062 61.3047 58.7303 60.8706 68.8874 54.9109C78.745 49.1205 85.1084 37.7394 83.7584 26.228C82.5344 15.8105 74.0918 6.65174 63.5745 5.21065C62.3594 5.04299 61.1328 4.97476 59.9066 5.00664C59.8933 5.00368 59.8795 5.00375 59.8662 5.00684C59.8529 5.00994 59.8405 5.01598 59.8298 5.02452C59.8192 5.03306 59.8106 5.04389 59.8047 5.05619C59.7988 5.0685 59.7957 5.08197 59.7957 5.09562C59.7957 5.10927 59.7988 5.12275 59.8047 5.13506C59.8106 5.14736 59.8192 5.15819 59.8298 5.16673C59.8405 5.17527 59.8529 5.18131 59.8662 5.1844C59.8795 5.1875 59.8933 5.18757 59.9066 5.18461C70.22 4.94587 79.5654 12.9326 82.2045 22.6774C85.0867 33.3336 80.325 45.1271 71.7566 51.7596C62.6413 58.8305 49.0637 60.8316 39.0586 54.364C30.4077 48.7776 26.9395 37.5267 29.3529 27.7516C31.8922 17.5337 40.8122 9.7987 50.7045 6.92086C51.9676 6.55191 53.2568 6.24806 54.5416 5.98762C55.0842 5.87477 55.0495 5.1195 54.4678 5.18027C43.7291 6.4868 33.3506 13.9483 29.2618 24.0316C25.2901 33.7156 27.4127 45.9345 35.2909 53.0575Z" fill="white" stroke="url(#paint3_linear_50_3554)" stroke-width="0.5"/>
<path id="Vector_5" d="M41.8505 56.2345C33.3168 52.8271 26.5541 45.7345 24.3925 36.7016C23.3 32.1701 23.36 27.4371 24.5671 22.9347C25.7742 18.4324 28.0899 14.3041 31.3028 10.9269C34.823 7.23736 39.2461 4.75017 44.0208 3.11809C44.1076 3.09205 44.0642 2.98353 43.9817 3.00089C34.8664 4.73715 27.1401 12.0772 24.0409 20.689C22.3908 25.2829 21.947 30.2232 22.7518 35.0376C23.5566 39.8521 25.5832 44.3795 28.6376 48.1869C31.9669 52.2758 36.5072 55.592 41.5597 57.1807C42.2498 57.3891 42.4539 56.4819 41.8505 56.2345Z" fill="white" stroke="url(#paint4_linear_50_3554)" stroke-width="0.5"/>
<path id="Vector_6" d="M72.4299 8.53915C71.6705 7.68711 70.8038 6.93716 69.8516 6.30806C68.9224 5.61528 67.9447 4.99007 66.926 4.43725C64.8656 3.33652 62.6793 2.4897 60.415 1.91534C55.8992 0.712798 51.1496 0.694858 46.6248 1.86325C46.5901 1.86325 46.6248 1.911 46.6248 1.90665C51.1583 1.20327 55.7896 1.47257 60.211 2.69665C62.3689 3.30963 64.4544 4.15371 66.4311 5.21422C67.4165 5.74378 68.3844 6.3124 69.3177 6.92443C70.2509 7.53646 71.0843 8.30909 72.0306 8.89074C72.2346 9.0253 72.6209 8.77788 72.4299 8.53915Z" fill="white" stroke="url(#paint5_linear_50_3554)" stroke-width="0.5"/>
<path id="Vector_7" d="M33.6927 46.6377C31.1493 42.1536 30.1174 36.9698 30.7497 31.8535C29.7022 36.9937 30.6323 42.3399 33.3541 46.8244C33.4626 47.0284 33.8229 46.8547 33.6927 46.6377Z" fill="white" stroke="url(#paint6_linear_50_3554)" stroke-width="0.5"/>
<g id="Vector_8">
<path d="M56.8063 57.076C52.8427 57.3111 48.875 56.6893 45.1734 55.2529C41.4577 53.7959 38.1074 51.5406 35.3592 48.6465C35.3288 48.6465 35.3592 48.6465 35.3592 48.6465C40.4464 54.9013 48.8152 58.5779 56.8974 57.4536C57.1232 57.4319 57.0407 57.063 56.8063 57.076Z" fill="white"/>
<path d="M35.3592 48.6465C38.1074 51.5406 41.4577 53.7959 45.1734 55.2529C48.875 56.6893 52.8427 57.3111 56.8063 57.076C57.0407 57.063 57.1232 57.4319 56.8974 57.4536C48.8152 58.5779 40.4464 54.9013 35.3592 48.6465ZM35.3592 48.6465C35.3592 48.6465 35.3288 48.6465 35.3592 48.6465Z" stroke="url(#paint7_linear_50_3554)" stroke-width="0.5"/>
</g>
<path id="Vector_9" d="M77.5313 42.8773C76.4988 44.5124 75.3377 46.0626 74.0588 47.5131C72.7822 48.8855 71.3798 50.1353 69.8701 51.2461C68.3402 52.3658 66.7132 53.3464 65.0086 54.176C63.2723 55.0441 61.4796 55.5563 59.7 56.2465C59.6566 56.2465 59.7 56.3159 59.7304 56.3116C61.6012 56.0555 63.5024 55.2698 65.2039 54.4842C66.9157 53.6831 68.5441 52.7148 70.0654 51.5933C71.6496 50.4455 73.1205 49.149 74.4581 47.7215C75.8063 46.3334 76.9931 44.7971 77.9957 43.1421C78.152 42.8513 77.7049 42.6212 77.5313 42.8773Z" fill="white" stroke="url(#paint8_linear_50_3554)" stroke-width="0.5"/>
<path id="Vector_10" d="M80.9465 34.6737C81.4912 32.5318 81.7825 30.3334 81.8146 28.1236C81.8474 25.9071 81.6039 23.6952 81.0897 21.5389C80.5906 19.4728 79.9134 17.1071 78.5939 15.4056C78.4202 15.1799 77.9167 15.2493 78.0382 15.6009C78.3725 16.5906 78.8716 17.5151 79.2536 18.4874C80.4683 21.5117 81.1256 24.7308 81.1939 27.9891C81.2493 30.1565 81.0305 32.3223 80.5428 34.4349C80.3047 35.4649 80.0046 36.4795 79.6443 37.4734C79.2797 38.4761 78.711 39.4657 78.4463 40.5118C78.4463 40.5639 78.5114 40.6073 78.5461 40.5682C79.1378 39.7675 79.5993 38.8783 79.9134 37.9335C80.3296 36.871 80.6748 35.782 80.9465 34.6737Z" fill="white" stroke="url(#paint9_linear_50_3554)" stroke-width="0.5"/>
<path id="Vector_11" d="M46.3843 10.2447C38.2412 12.8056 32.0602 20.762 31.4004 29.2393C31.4004 29.2697 31.4568 29.2784 31.4612 29.2393C32.2155 25.1225 34.0061 21.2656 36.6642 18.0327C39.3222 14.7997 42.7601 12.2972 46.6534 10.7612C46.9876 10.6397 46.6925 10.1492 46.3843 10.2447Z" fill="white" stroke="url(#paint10_linear_50_3554)" stroke-width="0.5"/>
<path id="Vector_12" d="M78.0646 14.9584C75.6773 11.5857 71.9877 9.11156 68.168 7.62273C64.3658 6.13296 60.2385 5.67038 56.2008 6.28147C53.9068 6.65438 51.6832 7.37603 49.6074 8.4214C49.6074 8.4214 49.6074 8.45613 49.6074 8.45179C54.3473 6.4078 59.6137 5.92144 64.6477 7.06279C67.1513 7.66466 69.5329 8.69244 71.6882 10.1012C73.8493 11.5654 75.8004 13.3179 77.4873 15.31C77.7434 15.6008 78.312 15.2926 78.0646 14.9584Z" fill="white" stroke="url(#paint11_linear_50_3554)" stroke-width="0.5"/>
<path id="Vector_13" d="M32.3645 49.0671C31.5224 48.2424 30.3808 47.6868 29.478 46.8968C28.5041 46.0581 27.6302 45.11 26.8736 44.071C26.8519 44.0363 26.7825 44.071 26.8085 44.1057C27.4865 45.2081 28.2906 46.2278 29.2045 47.1442C30.0206 47.9516 31.0971 48.9629 32.2213 49.2928C32.2482 49.2934 32.2747 49.287 32.2984 49.2743C32.3221 49.2616 32.3421 49.243 32.3565 49.2203C32.3709 49.1976 32.3792 49.1716 32.3806 49.1448C32.382 49.1179 32.3765 49.0912 32.3645 49.0671Z" fill="white" stroke="url(#paint12_linear_50_3554)" stroke-width="0.5"/>
<path id="Vector_14" d="M31.1977 47.3146C29.978 46.0818 28.6237 45.0227 27.4778 43.7032C26.2912 42.3356 25.2712 40.8318 24.4393 39.2236C24.4393 39.2236 24.3916 39.2236 24.4046 39.2236C25.1474 40.8825 26.089 42.445 27.2087 43.8768C28.2678 45.2267 29.5309 46.6331 31.0414 47.4839C31.163 47.5663 31.3062 47.4231 31.1977 47.3146Z" fill="white" stroke="url(#paint13_linear_50_3554)" stroke-width="0.5"/>
<path id="Vector_15" d="M30.2738 45.1788C29.758 44.5508 29.2058 43.9536 28.62 43.3904C27.9776 42.6785 27.3829 41.9363 26.8056 41.1767C25.7248 39.7573 24.8176 38.2381 23.88 36.7275C23.88 36.7275 23.8496 36.7275 23.8539 36.7275C24.5291 38.4135 25.4144 40.0076 26.4887 41.4719C26.9879 42.175 27.5261 42.8478 28.0861 43.4989C28.6318 44.2226 29.2711 44.8706 29.9873 45.4262C30.1522 45.5521 30.3953 45.3567 30.2738 45.1788Z" fill="white" stroke="url(#paint14_linear_50_3554)" stroke-width="0.5"/>
<path id="Vector_16" d="M29.3141 41.6857C28.8405 41.0713 28.3241 40.4911 27.7688 39.9494C27.1448 39.2701 26.5565 38.5587 26.0066 37.8182C24.9851 36.4519 24.0626 35.0143 23.2459 33.5166C23.2459 33.5166 23.1895 33.5166 23.1982 33.5166C23.8662 35.1318 24.7167 36.6653 25.7331 38.0873C26.662 39.3895 27.7775 40.9651 29.1448 41.8072C29.262 41.8984 29.3879 41.7942 29.3141 41.6857Z" fill="white" stroke="url(#paint15_linear_50_3554)" stroke-width="0.5"/>
<path id="Vector_17" d="M28.2715 38.0483C27.2775 36.8155 26.2227 35.6566 25.3068 34.3544C24.4093 33.0507 23.5889 31.6956 22.85 30.2959C22.85 30.2959 22.8109 30.2959 22.8196 30.2959C23.9135 33.1694 25.6844 36.1514 27.9806 38.2349C28.1152 38.3695 28.393 38.2262 28.2715 38.0483Z" fill="white" stroke="url(#paint16_linear_50_3554)" stroke-width="0.5"/>
<path id="Vector_18" d="M27.4282 34.3313C26.8986 33.2722 25.9784 32.3563 25.2579 31.4448C24.5373 30.5333 23.6518 29.6 22.8879 28.6494C22.8879 28.6494 22.8358 28.6494 22.8532 28.6494C23.6041 29.6478 24.2856 30.7025 25.0235 31.7096C25.705 32.6341 26.3517 33.7063 27.2198 34.4659C27.3197 34.5831 27.5237 34.4789 27.4282 34.3313Z" fill="white" stroke="url(#paint17_linear_50_3554)" stroke-width="0.5"/>
<path id="Vector_19" d="M27.4796 31.3885C26.1774 29.561 24.6408 27.8812 23.1736 26.1797C23.1736 26.1797 23.1433 26.1797 23.152 26.1797C24.4889 27.9767 25.7997 29.8215 27.2929 31.497C27.3754 31.6055 27.5577 31.5013 27.4796 31.3885Z" fill="white" stroke="url(#paint18_linear_50_3554)" stroke-width="0.5"/>
<path id="Vector_20" d="M27.9044 27.6775C26.8931 26.0889 25.4042 24.7129 24.1541 23.3369C24.1541 23.3369 24.1237 23.3369 24.1324 23.3369C25.287 24.8127 26.3809 26.5099 27.7612 27.7817C27.8306 27.8382 27.9609 27.7557 27.9044 27.6775Z" fill="white" stroke="url(#paint19_linear_50_3554)" stroke-width="0.5"/>
<path id="Vector_21" d="M29.165 24.2824C28.5284 23.6004 27.8342 22.9744 27.0901 22.4116C26.3132 21.7432 25.5232 21.1094 24.7332 20.4453C24.7332 20.4453 24.6941 20.4453 24.7115 20.4453C25.4364 21.1572 26.1569 21.8734 26.8818 22.5722C27.524 23.2451 28.2209 23.8636 28.9653 24.4213C29.0868 24.4995 29.2605 24.3866 29.165 24.2824Z" fill="white" stroke="url(#paint20_linear_50_3554)" stroke-width="0.5"/>
<path id="Vector_22" d="M30.6496 21.6433C29.7511 20.5234 28.5747 19.5641 27.5547 18.5527C28.527 19.5945 29.4428 20.7968 30.5237 21.7257C30.5627 21.7822 30.7147 21.7214 30.6496 21.6433Z" fill="white" stroke="url(#paint21_linear_50_3554)" stroke-width="0.5"/>
<path id="Vector_23" d="M32.5442 17.6926C31.0857 16.5206 29.5882 15.4007 28.082 14.2852C29.5405 15.4528 31.0033 16.6161 32.5051 17.7273C32.5268 17.7707 32.5833 17.7229 32.5442 17.6926Z" fill="white" stroke="url(#paint22_linear_50_3554)" stroke-width="0.5"/>
<path id="Vector_24" d="M35.2554 14.6947C33.8447 13.6052 32.1866 12.7501 30.6717 11.8125C30.6717 11.8125 30.637 11.8125 30.6717 11.8385C32.1518 12.8239 33.6146 13.9741 35.186 14.7989C35.2337 14.8379 35.3379 14.7337 35.2554 14.6947Z" fill="white" stroke="url(#paint23_linear_50_3554)" stroke-width="0.5"/>
<path id="Vector_25" d="M38.4427 11.4614C36.8844 10.5108 35.2176 9.7555 33.6072 8.90039C33.6072 8.90039 33.5638 8.90039 33.6072 8.93511C35.1959 9.80324 36.7324 10.8103 38.3819 11.6003C38.4557 11.648 38.5425 11.5221 38.4427 11.4614Z" fill="white" stroke="url(#paint24_linear_50_3554)" stroke-width="0.5"/>
<path id="Vector_26" d="M42.0053 9.12087C40.3246 8.1977 38.5961 7.36457 36.8269 6.625C36.7922 6.625 36.7531 6.65538 36.7965 6.67709C38.4477 7.63509 40.1487 8.50445 41.8924 9.28147C42.0183 9.35092 42.1398 9.199 42.0053 9.12087Z" fill="white" stroke="url(#paint25_linear_50_3554)" stroke-width="0.5"/>
<path id="Vector_27" d="M46.5991 7.05535C45.1841 6.05266 43.5867 5.2236 42.1152 4.31641C43.5607 5.28003 44.9844 6.3565 46.4993 7.19859C46.5075 7.21219 46.519 7.22352 46.5328 7.23154C46.5465 7.23957 46.562 7.24403 46.5779 7.24454C46.5938 7.24505 46.6096 7.24158 46.6238 7.23445C46.638 7.22732 46.6502 7.21675 46.6593 7.2037C46.6684 7.19065 46.6741 7.17554 46.6758 7.15974C46.6776 7.14394 46.6754 7.12794 46.6694 7.1132C46.6635 7.09847 46.6539 7.08545 46.6416 7.07535C46.6293 7.06525 46.6147 7.05837 46.5991 7.05535Z" fill="white" stroke="url(#paint26_linear_50_3554)" stroke-width="0.5"/>
<path id="Vector_28" d="M49.9537 5.47944C48.5491 4.71032 47.0996 4.02616 45.6131 3.43066C45.6131 3.43066 45.5784 3.43066 45.6131 3.45671C46.9844 4.29129 48.4049 5.04215 49.8669 5.70516C49.8941 5.70749 49.9213 5.70092 49.9444 5.68645C49.9676 5.67198 49.9854 5.65039 49.9952 5.62493C50.005 5.59946 50.0062 5.57151 49.9987 5.54527C49.9913 5.51903 49.9755 5.49593 49.9537 5.47944Z" fill="white" stroke="url(#paint27_linear_50_3554)" stroke-width="0.5"/>
<path id="Vector_29" d="M53.2958 4.56283C51.846 3.58619 50.3225 2.7224 48.8163 1.83691C50.2487 2.83526 51.6767 3.86399 53.1569 4.77118C53.1694 4.78919 53.1862 4.80386 53.2056 4.81392C53.2251 4.82398 53.2468 4.82912 53.2687 4.82891C53.2906 4.82869 53.3122 4.82312 53.3315 4.81268C53.3507 4.80224 53.3672 4.78724 53.3793 4.76899C53.3915 4.75075 53.399 4.72981 53.4012 4.70799C53.4035 4.68618 53.4003 4.66415 53.3921 4.64383C53.3838 4.6235 53.3708 4.6055 53.354 4.59138C53.3372 4.57727 53.3172 4.56747 53.2958 4.56283Z" fill="white" stroke="url(#paint28_linear_50_3554)" stroke-width="0.5"/>
<path id="Vector_30" d="M56.5273 4.67243C55.87 4.16566 55.17 3.71689 54.4351 3.33117C53.6408 2.8537 52.8377 2.38925 52.0391 1.9248C52.7596 2.42398 53.4758 2.92315 54.2094 3.41364C54.9025 3.94985 55.6418 4.4234 56.4188 4.82869C56.4926 4.8938 56.6445 4.7766 56.5273 4.67243Z" fill="white" stroke="url(#paint29_linear_50_3554)" stroke-width="0.5"/>
<path id="Vector_31" d="M59.9895 4.3378C58.136 3.30472 56.174 2.39319 54.2381 1.53809C56.0438 2.63193 57.906 3.7084 59.8072 4.63296C60.0155 4.75016 60.2195 4.46801 59.9895 4.3378Z" fill="white" stroke="url(#paint30_linear_50_3554)" stroke-width="0.5"/>
<path id="Vector_32" d="M62.7751 4.94566C61.9128 4.40044 61.0184 3.90761 60.0969 3.46984C59.1897 2.99671 58.2868 2.52358 57.3579 2.10254C57.3276 2.10254 57.3015 2.10254 57.3319 2.1416C58.9974 3.31694 60.7621 4.34521 62.6058 5.21477C62.8011 5.30159 62.9617 5.07587 62.7751 4.94566Z" fill="white" stroke="url(#paint31_linear_50_3554)" stroke-width="0.5"/>
<path id="Vector_33" d="M65.5757 5.27975C64.6794 4.70102 63.7536 4.16929 62.8021 3.68673C61.9543 3.20237 61.0689 2.78722 60.1543 2.44531C60.9415 3.00708 61.7734 3.50357 62.6415 3.92981C63.5822 4.44722 64.5485 4.91661 65.5367 5.33618C65.5844 5.38392 65.6365 5.31881 65.5757 5.27975Z" fill="white" stroke="url(#paint32_linear_50_3554)" stroke-width="0.5"/>
<path id="Vector_34" d="M67.2005 5.96401C66.5133 5.32122 65.7886 4.71972 65.0302 4.16265C64.9955 4.1366 64.939 4.16265 64.9781 4.21039C65.6208 4.89289 66.305 5.53507 67.0269 6.13329C67.1354 6.22879 67.3264 6.09423 67.2005 5.96401Z" fill="white" stroke="url(#paint33_linear_50_3554)" stroke-width="0.5"/>
<path id="Vector_35" d="M68.9622 6.48514C68.5845 6.27245 68.1982 6.0858 67.8119 5.89481C67.7685 5.87311 67.7294 5.9252 67.7728 5.95124C68.1374 6.1813 68.4977 6.41135 68.8754 6.6197C68.9709 6.66311 69.062 6.52855 68.9622 6.48514Z" fill="white" stroke="url(#paint34_linear_50_3554)" stroke-width="0.5"/>
<path id="Vector_36" d="M31.4314 19.4824C30.1292 18.3711 28.7141 17.3945 27.3338 16.3701C28.6056 17.4943 29.834 18.6576 31.184 19.7037C31.3576 19.86 31.6397 19.6473 31.4314 19.4824Z" fill="white" stroke="url(#paint35_linear_50_3554)" stroke-width="0.5"/>
<path id="Vector_37" d="M33.6042 16.3256C32.1848 15.1102 30.5658 14.1553 29.0769 13.0527C29.0769 13.0527 29.0379 13.0527 29.0552 13.0527C30.4963 14.229 31.8202 15.5399 33.3438 16.6164C33.5478 16.7683 33.8082 16.4905 33.6042 16.3256Z" fill="white" stroke="url(#paint36_linear_50_3554)" stroke-width="0.5"/>
<g id="Vector_38">
<path d="M36.7878 12.8754C35.2628 11.9405 33.6828 11.0983 32.0565 10.3535C32.0261 10.3535 32.0565 10.3535 32.0565 10.3535C33.5031 11.4019 35.0121 12.3615 36.5751 13.227C36.5973 13.2534 36.6254 13.2742 36.6572 13.2875C36.6891 13.3009 36.7236 13.3065 36.758 13.3038C36.7924 13.3011 36.8257 13.2903 36.8551 13.2722C36.8844 13.2541 36.9091 13.2293 36.9269 13.1997C36.9448 13.1702 36.9554 13.1369 36.9578 13.1024C36.9601 13.068 36.9543 13.0335 36.9407 13.0018C36.9271 12.9701 36.9061 12.9421 36.8795 12.9201C36.8529 12.8981 36.8215 12.8828 36.7878 12.8754Z" fill="white"/>
<path d="M32.0565 10.3535C33.6828 11.0983 35.2628 11.9405 36.7878 12.8754C36.8215 12.8828 36.8529 12.8981 36.8795 12.9201C36.9061 12.9421 36.9271 12.9701 36.9407 13.0018C36.9543 13.0335 36.9601 13.068 36.9578 13.1024C36.9554 13.1369 36.9448 13.1702 36.9269 13.1997C36.9091 13.2293 36.8844 13.2541 36.8551 13.2722C36.8257 13.2903 36.7924 13.3011 36.758 13.3038C36.7236 13.3065 36.6891 13.3009 36.6572 13.2875C36.6254 13.2742 36.5973 13.2534 36.5751 13.227C35.0121 12.3615 33.5031 11.4019 32.0565 10.3535ZM32.0565 10.3535C32.0565 10.3535 32.0261 10.3535 32.0565 10.3535Z" stroke="url(#paint37_linear_50_3554)" stroke-width="0.5"/>
</g>
<path id="Vector_39" d="M40.3964 10.4669C39.6505 9.90725 38.8491 9.4258 38.0047 9.03014C37.2034 8.56465 36.3675 8.16124 35.5045 7.82345C35.4989 7.82171 35.4929 7.82189 35.4875 7.82397C35.482 7.82605 35.4774 7.8299 35.4744 7.83491C35.4714 7.83992 35.4702 7.84579 35.4709 7.85158C35.4716 7.85738 35.4743 7.86275 35.4785 7.86685C36.2052 8.43238 36.9759 8.93895 37.7833 9.38173C38.5569 9.90157 39.3833 10.3381 40.2488 10.6839C40.2762 10.689 40.3045 10.6861 40.3302 10.6754C40.3559 10.6647 40.3779 10.6467 40.3936 10.6237C40.4092 10.6006 40.4178 10.5735 40.4183 10.5457C40.4188 10.5179 40.4112 10.4905 40.3964 10.4669Z" fill="white" stroke="url(#paint38_linear_50_3554)" stroke-width="0.5"/>
<path id="Vector_40" d="M43.7267 8.1493C42.1859 7.14517 40.5624 6.27391 38.8739 5.54492C38.8479 5.54492 38.8088 5.54492 38.8392 5.58399C40.3168 6.67756 41.8868 7.64047 43.5314 8.46183C43.5519 8.47465 43.5748 8.48331 43.5987 8.48731C43.6225 8.4913 43.6469 8.49056 43.6705 8.48512C43.6941 8.47968 43.7164 8.46965 43.7361 8.4556C43.7558 8.44155 43.7725 8.42375 43.7854 8.40323C43.7982 8.38271 43.8068 8.35986 43.8108 8.336C43.8148 8.31213 43.8141 8.28771 43.8086 8.26413C43.8032 8.24055 43.7932 8.21828 43.7791 8.19857C43.765 8.17887 43.7473 8.16213 43.7267 8.1493Z" fill="white" stroke="url(#paint39_linear_50_3554)" stroke-width="0.5"/>
<path id="Vector_41" d="M48.9887 6.30024C48.2508 5.75952 47.4579 5.2983 46.6231 4.92426C45.7549 4.45547 44.8521 4.01707 43.9319 3.62207C43.9058 3.62207 43.8798 3.64377 43.9102 3.66114C44.7219 4.23844 45.5509 4.76366 46.406 5.27585C47.1586 5.79233 47.9631 6.22876 48.8064 6.57804C48.8433 6.60222 48.8882 6.61077 48.9313 6.60182C48.9745 6.59286 49.0123 6.56713 49.0365 6.5303C49.0606 6.49346 49.0692 6.44852 49.0602 6.40538C49.0513 6.36224 49.0256 6.32442 48.9887 6.30024Z" fill="white" stroke="url(#paint40_linear_50_3554)" stroke-width="0.5"/>
<path id="Vector_42" d="M51.2104 5.29655C50.0793 4.25086 48.8172 3.35644 47.4557 2.63574L47.4297 2.66613C48.4761 3.78536 49.6656 4.76173 50.9673 5.57001C51.1583 5.67853 51.3753 5.45281 51.2104 5.29655Z" fill="white" stroke="url(#paint41_linear_50_3554)" stroke-width="0.5"/>
<path id="Vector_43" d="M29.7955 22.4936C28.5769 21.2869 27.2503 20.1943 25.8325 19.2295C25.8325 19.2295 25.7847 19.2295 25.8064 19.2555C26.9354 20.5519 28.1838 21.7392 29.5351 22.8018C29.5766 22.8275 29.626 22.8373 29.6743 22.8296C29.7225 22.8219 29.7664 22.7972 29.7979 22.7599C29.8295 22.7225 29.8466 22.6752 29.8461 22.6263C29.8457 22.5774 29.8277 22.5304 29.7955 22.4936Z" fill="white" stroke="url(#paint42_linear_50_3554)" stroke-width="0.5"/>
<path id="Vector_44" d="M28.4661 25.81C27.8709 25.1433 27.214 24.5343 26.5041 23.9913C25.7576 23.3358 24.9979 22.6891 24.2079 22.1074C24.1862 22.1074 24.1602 22.1074 24.1775 22.1335C24.8547 22.8497 25.5492 23.5312 26.2741 24.1996C26.8891 24.8498 27.5633 25.4413 28.2881 25.9662C28.3923 26.0183 28.5486 25.9185 28.4661 25.81Z" fill="white" stroke="url(#paint43_linear_50_3554)" stroke-width="0.5"/>
<path id="Vector_45" d="M27.8775 29.17C26.6662 27.858 25.3715 26.6256 24.0014 25.4805C24.0014 25.4805 23.9623 25.4805 23.9753 25.4805C25.0694 26.894 26.2555 28.2338 27.526 29.4912C27.7517 29.6735 28.0902 29.4001 27.8775 29.17Z" fill="white" stroke="url(#paint44_linear_50_3554)" stroke-width="0.5"/>
<path id="Vector_46" d="M85.5551 75.7152C85.5551 74.9035 85.6853 73.8878 85.2817 73.1586C85.2704 73.1433 85.2556 73.1309 85.2387 73.1224C85.2217 73.1138 85.203 73.1094 85.184 73.1094C85.165 73.1094 85.1463 73.1138 85.1293 73.1224C85.1124 73.1309 85.0976 73.1433 85.0863 73.1586C84.6089 73.8183 84.6523 74.8948 84.5698 75.6978C84.4786 76.6181 84.2052 77.7249 84.47 78.6191C84.5038 78.7124 84.5649 78.7935 84.6454 78.8516C84.7258 78.9098 84.822 78.9424 84.9212 78.9452C85.0205 78.948 85.1182 78.9209 85.2019 78.8674C85.2855 78.8139 85.3511 78.7364 85.3902 78.6451C85.7418 77.7857 85.5638 76.6267 85.5551 75.7152Z" fill="white" stroke="url(#paint45_linear_50_3554)" stroke-width="0.5"/>
<path id="Vector_47" d="M98.9501 80.8458C97.4612 78.8534 95.1954 77.2126 93.1987 75.7585C91.6448 74.6213 89.9172 73.4059 88.0724 72.694C88.1044 72.6528 88.1265 72.6048 88.1369 72.5536C88.1472 72.5024 88.1456 72.4496 88.1321 72.3992C88.1187 72.3487 88.0938 72.3021 88.0593 72.2629C88.0249 72.2237 87.9818 72.193 87.9335 72.1732C84.1007 70.2676 79.5908 69.3301 75.3891 68.6399C62.452 66.5084 49.1748 68.1464 37.1437 73.3582C32.67 75.3294 28.4447 77.8223 24.5559 80.785C24.2607 81.0064 24.7078 81.371 24.99 81.1756C39.1322 71.0503 56.6432 66.7884 73.8568 69.2823C76.1765 69.637 78.4747 70.1195 80.7411 70.7277C82.8854 71.292 84.9602 72.0646 87.0828 72.6984C88.7496 74.1568 90.7636 75.268 92.5303 76.605C93.4592 77.3125 94.3664 78.0547 95.2432 78.8317C96.1981 79.6998 97.0792 80.6634 98.0819 81.4361C98.4943 81.7616 99.3711 81.4057 98.9501 80.8458Z" fill="white" stroke="url(#paint46_linear_50_3554)" stroke-width="0.5"/>
<path id="Vector_48" d="M99.6482 82.8804C82.7197 78.4139 64.3632 78.8306 47.7082 84.3693C43.1053 85.8767 38.6493 87.8003 34.3954 90.1163C33.8963 89.2959 32.9847 88.6622 32.2902 88.0154C31.4221 87.2167 30.554 86.4398 29.6511 85.6628C27.9149 84.1392 26.1265 82.6981 24.2991 81.2874C24.2965 81.2849 24.2935 81.2828 24.2902 81.2814C24.2868 81.28 24.2832 81.2793 24.2796 81.2793C24.276 81.2793 24.2724 81.28 24.269 81.2814C24.2657 81.2828 24.2626 81.2849 24.26 81.2874C24.2575 81.29 24.2554 81.293 24.254 81.2964C24.2527 81.2997 24.252 81.3033 24.252 81.307C24.252 81.3106 24.2527 81.3142 24.254 81.3175C24.2554 81.3209 24.2575 81.3239 24.26 81.3265C25.7445 83.0627 27.2681 84.7426 28.8611 86.3703C29.6381 87.1603 30.4107 87.9546 31.2051 88.7229C31.9994 89.4912 32.7113 90.4201 33.6662 90.8933C34.1437 91.1407 34.747 90.7153 34.4519 90.1901C50.1867 82.9542 67.5188 79.5946 84.8032 81.3178C89.7173 81.8075 94.5824 82.7033 99.3487 83.996C99.425 84.0266 99.5069 84.0407 99.5891 84.0373C99.6712 84.0339 99.7517 84.0132 99.8253 83.9764C99.8988 83.9396 99.9637 83.8877 100.016 83.824C100.068 83.7603 100.106 83.6864 100.127 83.607C100.148 83.5275 100.153 83.4445 100.139 83.3634C100.126 83.2822 100.096 83.2047 100.051 83.1361C100.006 83.0674 99.9464 83.0092 99.877 82.9651C99.8075 82.921 99.7296 82.8922 99.6482 82.8804Z" fill="white" stroke="url(#paint47_linear_50_3554)" stroke-width="0.5"/>
</g>
<defs>
<linearGradient id="paint0_linear_50_3554" x1="0.294922" y1="67.5235" x2="102.697" y2="89.2122" gradientUnits="userSpaceOnUse">
<stop stop-color="#1764DB"/>
<stop offset="1" stop-color="#80E39B"/>
</linearGradient>
<linearGradient id="paint1_linear_50_3554" x1="26.9141" y1="71.9621" x2="79.109" y2="82.9578" gradientUnits="userSpaceOnUse">
<stop stop-color="#1764DB"/>
<stop offset="1" stop-color="#80E39B"/>
</linearGradient>
<linearGradient id="paint2_linear_50_3554" x1="27.3418" y1="76.0258" x2="87.3788" y2="87.7118" gradientUnits="userSpaceOnUse">
<stop stop-color="#1764DB"/>
<stop offset="1" stop-color="#80E39B"/>
</linearGradient>
<linearGradient id="paint3_linear_50_3554" x1="27.3086" y1="17.3459" x2="79.2423" y2="19.81" gradientUnits="userSpaceOnUse">
<stop stop-color="#1764DB"/>
<stop offset="1" stop-color="#80E39B"/>
</linearGradient>
<linearGradient id="paint4_linear_50_3554" x1="22.3613" y1="15.32" x2="42.3064" y2="15.6836" gradientUnits="userSpaceOnUse">
<stop stop-color="#1764DB"/>
<stop offset="1" stop-color="#80E39B"/>
</linearGradient>
<linearGradient id="paint5_linear_50_3554" x1="46.6094" y1="2.80199" x2="69.8761" y2="6.25765" gradientUnits="userSpaceOnUse">
<stop stop-color="#1764DB"/>
<stop offset="1" stop-color="#80E39B"/>
</linearGradient>
<linearGradient id="paint6_linear_50_3554" x1="30.3301" y1="35.2766" x2="33.4462" y2="35.3086" gradientUnits="userSpaceOnUse">
<stop stop-color="#1764DB"/>
<stop offset="1" stop-color="#80E39B"/>
</linearGradient>
<linearGradient id="paint7_linear_50_3554" x1="35.3457" y1="50.6938" x2="55.0405" y2="52.8517" gradientUnits="userSpaceOnUse">
<stop stop-color="#1764DB"/>
<stop offset="1" stop-color="#80E39B"/>
</linearGradient>
<linearGradient id="paint8_linear_50_3554" x1="59.6816" y1="45.8451" x2="76.4809" y2="46.8808" gradientUnits="userSpaceOnUse">
<stop stop-color="#1764DB"/>
<stop offset="1" stop-color="#80E39B"/>
</linearGradient>
<linearGradient id="paint9_linear_50_3554" x1="78.0195" y1="21.0272" x2="81.5102" y2="21.051" gradientUnits="userSpaceOnUse">
<stop stop-color="#1764DB"/>
<stop offset="1" stop-color="#80E39B"/>
</linearGradient>
<linearGradient id="paint10_linear_50_3554" x1="31.4004" y1="14.5581" x2="45.5366" y2="15.0787" gradientUnits="userSpaceOnUse">
<stop stop-color="#1764DB"/>
<stop offset="1" stop-color="#80E39B"/>
</linearGradient>
<linearGradient id="paint11_linear_50_3554" x1="49.6074" y1="8.15736" x2="75.3297" y2="11.7069" gradientUnits="userSpaceOnUse">
<stop stop-color="#1764DB"/>
<stop offset="1" stop-color="#80E39B"/>
</linearGradient>
<linearGradient id="paint12_linear_50_3554" x1="26.8027" y1="45.2467" x2="31.9177" y2="45.4947" gradientUnits="userSpaceOnUse">
<stop stop-color="#1764DB"/>
<stop offset="1" stop-color="#80E39B"/>
</linearGradient>
<linearGradient id="paint13_linear_50_3554" x1="24.4023" y1="41.1065" x2="30.6747" y2="41.342" gradientUnits="userSpaceOnUse">
<stop stop-color="#1764DB"/>
<stop offset="1" stop-color="#80E39B"/>
</linearGradient>
<linearGradient id="paint14_linear_50_3554" x1="23.8535" y1="38.7136" x2="29.7781" y2="38.9127" gradientUnits="userSpaceOnUse">
<stop stop-color="#1764DB"/>
<stop offset="1" stop-color="#80E39B"/>
</linearGradient>
<linearGradient id="paint15_linear_50_3554" x1="23.1973" y1="35.4088" x2="28.8334" y2="35.5979" gradientUnits="userSpaceOnUse">
<stop stop-color="#1764DB"/>
<stop offset="1" stop-color="#80E39B"/>
</linearGradient>
<linearGradient id="paint16_linear_50_3554" x1="22.8184" y1="32.1123" x2="27.8532" y2="32.2695" gradientUnits="userSpaceOnUse">
<stop stop-color="#1764DB"/>
<stop offset="1" stop-color="#80E39B"/>
</linearGradient>
<linearGradient id="paint17_linear_50_3554" x1="22.8496" y1="29.9828" x2="27.0754" y2="30.1337" gradientUnits="userSpaceOnUse">
<stop stop-color="#1764DB"/>
<stop offset="1" stop-color="#80E39B"/>
</linearGradient>
<linearGradient id="paint18_linear_50_3554" x1="23.1504" y1="27.3986" x2="27.1416" y2="27.5458" gradientUnits="userSpaceOnUse">
<stop stop-color="#1764DB"/>
<stop offset="1" stop-color="#80E39B"/>
</linearGradient>
<linearGradient id="paint19_linear_50_3554" x1="24.1309" y1="24.3513" x2="27.6068" y2="24.4856" gradientUnits="userSpaceOnUse">
<stop stop-color="#1764DB"/>
<stop offset="1" stop-color="#80E39B"/>
</linearGradient>
<linearGradient id="paint20_linear_50_3554" x1="24.707" y1="21.3549" x2="28.8191" y2="21.5647" gradientUnits="userSpaceOnUse">
<stop stop-color="#1764DB"/>
<stop offset="1" stop-color="#80E39B"/>
</linearGradient>
<linearGradient id="paint21_linear_50_3554" x1="27.5547" y1="19.2789" x2="30.4084" y2="19.4054" gradientUnits="userSpaceOnUse">
<stop stop-color="#1764DB"/>
<stop offset="1" stop-color="#80E39B"/>
</linearGradient>
<linearGradient id="paint22_linear_50_3554" x1="28.082" y1="15.0714" x2="32.1815" y2="15.3128" gradientUnits="userSpaceOnUse">
<stop stop-color="#1764DB"/>
<stop offset="1" stop-color="#80E39B"/>
</linearGradient>
<linearGradient id="paint23_linear_50_3554" x1="30.6562" y1="12.4932" x2="34.8908" y2="12.7911" gradientUnits="userSpaceOnUse">
<stop stop-color="#1764DB"/>
<stop offset="1" stop-color="#80E39B"/>
</linearGradient>
<linearGradient id="paint24_linear_50_3554" x1="33.5879" y1="9.5164" x2="38.0612" y2="9.88448" gradientUnits="userSpaceOnUse">
<stop stop-color="#1764DB"/>
<stop offset="1" stop-color="#80E39B"/>
</linearGradient>
<linearGradient id="paint25_linear_50_3554" x1="36.7773" y1="7.23277" x2="41.5976" y2="7.66651" gradientUnits="userSpaceOnUse">
<stop stop-color="#1764DB"/>
<stop offset="1" stop-color="#80E39B"/>
</linearGradient>
<linearGradient id="paint26_linear_50_3554" x1="42.1152" y1="4.9819" x2="46.2866" y2="5.27766" gradientUnits="userSpaceOnUse">
<stop stop-color="#1764DB"/>
<stop offset="1" stop-color="#80E39B"/>
</linearGradient>
<linearGradient id="paint27_linear_50_3554" x1="45.5977" y1="3.9477" x2="49.616" y2="4.30193" gradientUnits="userSpaceOnUse">
<stop stop-color="#1764DB"/>
<stop offset="1" stop-color="#80E39B"/>
</linearGradient>
<linearGradient id="paint28_linear_50_3554" x1="48.8047" y1="2.51691" x2="53.0096" y2="2.81099" gradientUnits="userSpaceOnUse">
<stop stop-color="#1764DB"/>
<stop offset="1" stop-color="#80E39B"/>
</linearGradient>
<linearGradient id="paint29_linear_50_3554" x1="52.0391" y1="2.58904" x2="56.1832" y2="2.88148" gradientUnits="userSpaceOnUse">
<stop stop-color="#1764DB"/>
<stop offset="1" stop-color="#80E39B"/>
</linearGradient>
<linearGradient id="paint30_linear_50_3554" x1="54.2246" y1="2.2478" x2="59.5776" y2="2.70553" gradientUnits="userSpaceOnUse">
<stop stop-color="#1764DB"/>
<stop offset="1" stop-color="#80E39B"/>
</linearGradient>
<linearGradient id="paint31_linear_50_3554" x1="57.3184" y1="2.81427" x2="62.3771" y2="3.22157" gradientUnits="userSpaceOnUse">
<stop stop-color="#1764DB"/>
<stop offset="1" stop-color="#80E39B"/>
</linearGradient>
<linearGradient id="paint32_linear_50_3554" x1="60.1543" y1="3.10615" x2="65.1265" y2="3.53026" gradientUnits="userSpaceOnUse">
<stop stop-color="#1764DB"/>
<stop offset="1" stop-color="#80E39B"/>
</linearGradient>
<linearGradient id="paint33_linear_50_3554" x1="64.9648" y1="4.60989" x2="67.0523" y2="4.71736" gradientUnits="userSpaceOnUse">
<stop stop-color="#1764DB"/>
<stop offset="1" stop-color="#80E39B"/>
</linearGradient>
<linearGradient id="paint34_linear_50_3554" x1="67.7539" y1="6.0575" x2="68.8975" y2="6.14572" gradientUnits="userSpaceOnUse">
<stop stop-color="#1764DB"/>
<stop offset="1" stop-color="#80E39B"/>
</linearGradient>
<linearGradient id="paint35_linear_50_3554" x1="27.3203" y1="17.1402" x2="31.1545" y2="17.3557" gradientUnits="userSpaceOnUse">
<stop stop-color="#1764DB"/>
<stop offset="1" stop-color="#80E39B"/>
</linearGradient>
<linearGradient id="paint36_linear_50_3554" x1="29.0508" y1="13.8726" x2="33.2897" y2="14.1201" gradientUnits="userSpaceOnUse">
<stop stop-color="#1764DB"/>
<stop offset="1" stop-color="#80E39B"/>
</linearGradient>
<linearGradient id="paint37_linear_50_3554" x1="32.043" y1="11.0242" x2="36.535" y2="11.3647" gradientUnits="userSpaceOnUse">
<stop stop-color="#1764DB"/>
<stop offset="1" stop-color="#80E39B"/>
</linearGradient>
<linearGradient id="paint38_linear_50_3554" x1="35.4707" y1="8.4732" x2="39.9903" y2="8.82857" gradientUnits="userSpaceOnUse">
<stop stop-color="#1764DB"/>
<stop offset="1" stop-color="#80E39B"/>
</linearGradient>
<linearGradient id="paint39_linear_50_3554" x1="38.8281" y1="6.21422" x2="43.3832" y2="6.5652" gradientUnits="userSpaceOnUse">
<stop stop-color="#1764DB"/>
<stop offset="1" stop-color="#80E39B"/>
</linearGradient>
<linearGradient id="paint40_linear_50_3554" x1="43.8965" y1="4.30007" x2="48.6165" y2="4.6722" gradientUnits="userSpaceOnUse">
<stop stop-color="#1764DB"/>
<stop offset="1" stop-color="#80E39B"/>
</linearGradient>
<linearGradient id="paint41_linear_50_3554" x1="47.4297" y1="3.30909" x2="50.9462" y2="3.5165" gradientUnits="userSpaceOnUse">
<stop stop-color="#1764DB"/>
<stop offset="1" stop-color="#80E39B"/>
</linearGradient>
<linearGradient id="paint42_linear_50_3554" x1="25.8008" y1="20.0483" x2="29.5093" y2="20.2378" gradientUnits="userSpaceOnUse">
<stop stop-color="#1764DB"/>
<stop offset="1" stop-color="#80E39B"/>
</linearGradient>
<linearGradient id="paint43_linear_50_3554" x1="24.1719" y1="22.9877" x2="28.13" y2="23.1885" gradientUnits="userSpaceOnUse">
<stop stop-color="#1764DB"/>
<stop offset="1" stop-color="#80E39B"/>
</linearGradient>
<linearGradient id="paint44_linear_50_3554" x1="23.9727" y1="26.4055" x2="27.6165" y2="26.5674" gradientUnits="userSpaceOnUse">
<stop stop-color="#1764DB"/>
<stop offset="1" stop-color="#80E39B"/>
</linearGradient>
<linearGradient id="paint45_linear_50_3554" x1="84.3574" y1="74.4357" x2="85.5066" y2="74.4469" gradientUnits="userSpaceOnUse">
<stop stop-color="#1764DB"/>
<stop offset="1" stop-color="#80E39B"/>
</linearGradient>
<linearGradient id="paint46_linear_50_3554" x1="24.459" y1="70.8743" x2="89.1296" y2="86.7543" gradientUnits="userSpaceOnUse">
<stop stop-color="#1764DB"/>
<stop offset="1" stop-color="#80E39B"/>
</linearGradient>
<linearGradient id="paint47_linear_50_3554" x1="24.252" y1="82.3677" x2="87.8768" y2="102.121" gradientUnits="userSpaceOnUse">
<stop stop-color="#1764DB"/>
<stop offset="1" stop-color="#80E39B"/>
</linearGradient>
</defs>
</svg>
