<svg width="57" height="62" viewBox="0 0 57 62" fill="none" xmlns="http://www.w3.org/2000/svg">
<g id="Group 6622">
<path id="Vector" d="M53.0078 1.70897C52.113 0.744188 50.0861 1.7942 48.6769 2.57942C43.6735 5.36725 39.513 9.43334 35.59 13.3625C27.827 21.132 20.5312 29.3547 13.7408 37.9873C10.3909 42.2482 7.21457 46.5699 4.21166 50.9525C2.99427 52.739 1.43296 54.7325 1.09818 56.5769C1.06521 56.7526 1.04688 56.9307 1.0434 57.1095C1.03992 57.1051 1.03506 57.1021 1.02961 57.1009C1.02416 57.0997 1.01846 57.1004 1.01346 57.1029C1.00847 57.1054 1.00449 57.1095 1.00218 57.1146C0.999872 57.1196 0.999379 57.1254 1.00079 57.1308C1.00079 57.1764 1.02818 57.2221 1.0434 57.2677C1.035 57.5704 1.09118 57.8713 1.20821 58.1505C1.32524 58.4296 1.50043 58.6807 1.7221 58.8869C2.0265 59.4818 2.44911 60.0084 2.96405 60.4344C3.47899 60.8603 4.07543 61.1768 4.71688 61.3643C5.02123 61.4434 5.2708 61.0599 4.9634 60.8925C4.12249 60.4554 3.33507 59.9222 2.61688 59.3038C2.71229 59.3227 2.8089 59.3349 2.90601 59.3404C4.58905 59.4651 6.5734 58.123 8.07993 56.9512C10.4965 55.0399 12.7943 52.946 15.0282 50.8642C19.7596 46.4679 24.2242 41.7929 28.3982 36.8642C28.6173 36.6055 28.2126 36.5599 28.0147 36.7942C24.7149 40.7394 21.2143 44.5122 17.5269 48.0977C15.713 49.8609 13.8494 51.5856 11.936 53.2717C10.1799 54.8238 8.36602 56.5434 6.36341 57.8216C5.33167 58.479 4.1234 59.0573 3.10688 58.9508C1.83166 58.8169 1.32644 57.7699 1.49079 56.6012C1.76775 54.6625 3.50557 52.4986 4.79905 50.6116C7.41036 46.8134 10.1495 43.0506 13.0165 39.3234C18.9595 31.6384 25.3187 24.2845 32.0656 17.2946C35.593 13.6425 39.2056 9.85333 43.2656 6.58463C45.3108 4.93811 47.6147 3.2855 49.9613 2.19289C50.7343 1.83376 51.8817 1.38637 52.4174 1.8155C52.953 2.24464 52.953 2.87159 52.7217 3.58377C52.3748 4.60638 51.5896 5.65029 50.9443 6.64551C45.1161 15.6268 38.8252 24.5016 31.9804 33.1968C31.9226 33.2699 32.0321 33.2851 32.0839 33.2181C39.0839 24.3342 45.7065 15.289 51.6748 6.1129C52.603 4.72507 53.9817 2.76202 53.0078 1.70897Z" fill="url(#paint0_linear_50_3559)" stroke="url(#paint1_linear_50_3559)"/>
<path id="Vector_2" d="M55.8834 3.85479C54.9125 2.7987 53.7195 1.64217 52.426 1C52.3986 1 52.3529 1.0213 52.3682 1.05173C52.9312 2.22043 53.9295 3.31609 54.8821 4.23218C54.7662 4.20778 54.6453 4.22488 54.5407 4.28051C54.4362 4.33614 54.3545 4.42676 54.3099 4.53652C46.5034 22.5631 34.2594 38.4592 19.1851 51.0074C14.9425 54.5409 10.359 57.6027 5.99767 60.9809C5.97028 61.0022 5.99767 61.054 6.02506 61.0357C10.4016 58.9053 14.3794 55.9653 18.199 52.9583C22.0557 49.9108 25.7257 46.6342 29.189 43.1461C36.1393 36.1475 42.2446 28.3577 47.3799 19.9365C50.3272 15.1049 52.9553 10.0856 55.2473 4.91087C55.2998 4.80417 55.3127 4.6823 55.2838 4.56695C55.6581 4.70695 56.206 4.18957 55.8834 3.85479Z" fill="url(#paint2_linear_50_3559)" stroke="url(#paint3_linear_50_3559)"/>
<path id="Vector_3" d="M52.5536 1.77638C47.684 2.65899 43.6392 5.77856 40.1057 9.08074C35.9544 12.9551 32.0314 17.1064 28.1479 21.2547C24.1731 25.4952 20.2978 29.8261 16.5218 34.2473C12.8483 38.5477 9.12615 42.8786 5.82397 47.4712C4.25049 49.6564 2.81397 51.9664 1.86745 54.5017C1.35005 55.8956 0.887444 57.7369 1.42005 59.1825C1.41231 59.2559 1.42606 59.3299 1.45962 59.3956C1.53159 59.5327 1.61725 59.6622 1.71527 59.7821C1.87234 60.0275 2.06402 60.2489 2.2844 60.4395C2.30571 60.4577 2.33615 60.4395 2.33006 60.406C2.33151 60.3837 2.33151 60.3613 2.33006 60.339C3.21596 60.9244 4.25699 61.2308 5.31875 61.2186C5.34919 61.2186 5.36136 61.1699 5.31875 61.1577C4.67186 60.9028 4.0586 60.5696 3.49266 60.1656C3.00266 59.8004 2.61614 59.3103 2.1444 58.9482C1.95571 54.6295 4.81354 50.6273 7.33354 47.2916C10.4835 43.1251 13.8557 39.1077 17.237 35.1177C24.0422 27.1134 31.1762 19.4032 38.6388 11.9873C42.641 8.01552 46.9262 4.13812 52.5749 2.85682C53.2262 2.69551 53.2871 1.64247 52.5536 1.77638Z" fill="url(#paint4_linear_50_3559)" stroke="url(#paint5_linear_50_3559)"/>
<path id="Vector_4" d="M5.5498 60.7396C4.70335 60.088 3.80908 59.5009 2.87458 58.9835C2.81371 58.953 2.74676 59.0474 2.80154 59.09C3.62903 59.7536 4.50608 60.3529 5.42502 60.8826C5.51632 60.9343 5.64415 60.8126 5.5498 60.7396Z" fill="url(#paint6_linear_50_3559)" stroke="url(#paint7_linear_50_3559)"/>
<path id="Vector_5" d="M6.32364 60.2021C5.65308 59.7421 4.95704 59.3204 4.23886 58.939C4.19016 58.9117 4.12321 58.9786 4.17495 59.0121C4.8279 59.5002 5.50766 59.9513 6.21104 60.3634C6.29321 60.4121 6.41191 60.266 6.32364 60.2021Z" fill="url(#paint8_linear_50_3559)" stroke="url(#paint9_linear_50_3559)"/>
<path id="Vector_6" d="M7.64477 59.4139C6.97353 59.0445 6.28151 58.7143 5.57216 58.4247C5.50825 58.4004 5.42303 58.4978 5.49303 58.5404C6.14873 58.9468 6.82756 59.3147 7.52607 59.6421C7.55634 59.6579 7.59163 59.6609 7.62416 59.6507C7.6567 59.6404 7.68382 59.6176 7.69956 59.5874C7.7153 59.5571 7.71836 59.5218 7.70809 59.4893C7.69782 59.4567 7.67504 59.4296 7.64477 59.4139Z" fill="url(#paint10_linear_50_3559)" stroke="url(#paint11_linear_50_3559)"/>
<path id="Vector_7" d="M9.01409 58.1141C8.40539 57.8098 7.79669 57.5054 7.188 57.2011C7.17981 57.1969 7.17086 57.1943 7.16169 57.1936C7.15251 57.1928 7.14328 57.1939 7.13452 57.1967C7.12576 57.1996 7.11764 57.2041 7.11063 57.2101C7.10362 57.216 7.09785 57.2233 7.09365 57.2315C7.08945 57.2397 7.08691 57.2486 7.08617 57.2578C7.08542 57.267 7.0865 57.2762 7.08932 57.285C7.09215 57.2937 7.09668 57.3019 7.10264 57.3089C7.10861 57.3159 7.11589 57.3217 7.12409 57.3258C7.71148 57.6637 8.30191 57.9985 8.90148 58.318C9.03235 58.3759 9.14191 58.1719 9.01409 58.1141Z" fill="url(#paint12_linear_50_3559)" stroke="url(#paint13_linear_50_3559)"/>
<path id="Vector_8" d="M11.3635 56.9551C10.6225 56.5769 9.85198 56.2593 9.05962 56.0055C8.99267 55.9781 8.9318 56.0816 9.0018 56.1151C9.72561 56.5064 10.4786 56.8412 11.254 57.1164C11.3392 57.1469 11.467 57.0221 11.3635 56.9551Z" fill="url(#paint14_linear_50_3559)" stroke="url(#paint15_linear_50_3559)"/>
<path id="Vector_9" d="M12.685 55.7373C12.383 55.5462 12.0641 55.3832 11.7324 55.2503C11.3786 55.0686 11.0149 54.907 10.6428 54.7664C10.5545 54.736 10.4389 54.8608 10.5332 54.9247C10.8353 55.1107 11.1472 55.2804 11.4676 55.4329C11.81 55.6354 12.1695 55.8075 12.5419 55.9473C12.6667 55.9808 12.8158 55.8256 12.685 55.7373Z" fill="url(#paint16_linear_50_3559)" stroke="url(#paint17_linear_50_3559)"/>
<path id="Vector_10" d="M14.5096 54.4005C13.7966 53.9679 13.0408 53.6099 12.2544 53.3323C12.1905 53.311 12.1022 53.4023 12.1722 53.454C12.8515 53.927 13.5789 54.3269 14.3422 54.6471C14.4639 54.7049 14.6435 54.4888 14.5096 54.4005Z" fill="url(#paint18_linear_50_3559)" stroke="url(#paint19_linear_50_3559)"/>
<path id="Vector_11" d="M16.6417 53.5C15.6965 52.9582 14.7187 52.4754 13.7139 52.0544C13.6621 52.0331 13.5921 52.1122 13.6469 52.1517C14.5711 52.7378 15.5306 53.2663 16.5199 53.7343C16.5501 53.7441 16.5826 53.7428 16.6119 53.7307C16.6412 53.7187 16.6653 53.6967 16.6798 53.6686C16.6944 53.6405 16.6986 53.6082 16.6916 53.5773C16.6846 53.5465 16.6669 53.5191 16.6417 53.5Z" fill="url(#paint20_linear_50_3559)" stroke="url(#paint21_linear_50_3559)"/>
<path id="Vector_12" d="M18.1626 51.7803C17.5235 51.3846 16.8569 51.0377 16.1965 50.6816C16.1539 50.6603 16.0961 50.7333 16.1417 50.7607C16.7748 51.1624 17.4017 51.5672 18.0591 51.9263C18.1322 51.9781 18.2387 51.8381 18.1626 51.7803Z" fill="url(#paint22_linear_50_3559)" stroke="url(#paint23_linear_50_3559)"/>
<path id="Vector_13" d="M20.5501 49.1447C19.768 48.5877 18.9341 48.1007 18.1154 47.5925C18.0149 47.5286 17.8688 47.6807 17.9784 47.7507C18.788 48.2864 19.5854 48.8403 20.4284 49.3212C20.5258 49.376 20.6475 49.2147 20.5501 49.1447Z" fill="url(#paint24_linear_50_3559)" stroke="url(#paint25_linear_50_3559)"/>
<path id="Vector_14" d="M23.3554 47.1055C22.5063 46.4968 21.5902 45.9764 20.7015 45.4255C20.5828 45.3525 20.4154 45.529 20.5402 45.6112C21.4289 46.1803 22.3024 46.7829 23.2276 47.2912C23.3372 47.346 23.4559 47.1786 23.3554 47.1055Z" fill="url(#paint26_linear_50_3559)" stroke="url(#paint27_linear_50_3559)"/>
<path id="Vector_15" d="M25.9698 44.3211C25.3033 43.7306 24.5576 43.2315 23.8394 42.708C23.7115 42.6167 23.535 42.8145 23.6598 42.915C24.3689 43.4537 25.0598 44.0259 25.8176 44.4976C25.9302 44.5676 26.0763 44.4185 25.9698 44.3211Z" fill="url(#paint28_linear_50_3559)" stroke="url(#paint29_linear_50_3559)"/>
<path id="Vector_16" d="M28.6419 42.005C27.7202 41.3253 26.7621 40.6964 25.7719 40.1211C25.6136 40.0298 25.3854 40.2519 25.5528 40.3706C26.4934 41.0482 27.4708 41.673 28.4806 42.2424C28.6084 42.3154 28.7667 42.0993 28.6419 42.005Z" fill="url(#paint30_linear_50_3559)" stroke="url(#paint31_linear_50_3559)"/>
<path id="Vector_17" d="M30.7277 39.6612C29.9516 39.1316 29.139 38.6568 28.3416 38.1607C28.2168 38.0846 28.0372 38.2672 28.1742 38.3494C28.9624 38.8607 29.7385 39.3933 30.5481 39.8712C30.679 39.9442 30.8707 39.7586 30.7277 39.6612Z" fill="url(#paint32_linear_50_3559)" stroke="url(#paint33_linear_50_3559)"/>
<path id="Vector_18" d="M33.2375 37.0554C32.5315 36.5437 31.7855 36.0898 31.0066 35.698C30.9366 35.6676 30.8605 35.768 30.9244 35.8198C31.6197 36.3452 32.3578 36.8115 33.1309 37.2137C33.2131 37.2624 33.3257 37.1163 33.2375 37.0554Z" fill="url(#paint34_linear_50_3559)" stroke="url(#paint35_linear_50_3559)"/>
<path id="Vector_19" d="M35.7237 35.0587C35.0998 34.6052 34.4516 34.1883 33.8094 33.7622C33.7363 33.7135 33.6298 33.823 33.7059 33.8778C34.3298 34.3283 34.9476 34.7909 35.5898 35.2109C35.6842 35.2717 35.815 35.1317 35.7237 35.0587Z" fill="url(#paint36_linear_50_3559)" stroke="url(#paint37_linear_50_3559)"/>
<path id="Vector_20" d="M36.4841 32.7708C35.7392 32.1613 34.9598 31.5953 34.1498 31.0755C34.1163 31.0542 34.0676 31.1029 34.1011 31.1334C34.8219 31.767 35.5778 32.3594 36.3654 32.9077C36.4507 32.9686 36.5724 32.8408 36.4841 32.7708Z" fill="url(#paint38_linear_50_3559)" stroke="url(#paint39_linear_50_3559)"/>
<path id="Vector_21" d="M38.2951 31.0664C37.5264 30.3858 36.713 29.7574 35.8603 29.1855C35.842 29.1855 35.8177 29.1855 35.8329 29.216C36.5606 29.9362 37.3353 30.6073 38.152 31.2247C38.2494 31.3008 38.3955 31.1486 38.2951 31.0664Z" fill="url(#paint40_linear_50_3559)" stroke="url(#paint41_linear_50_3559)"/>
<path id="Vector_22" d="M37.1965 28.7535C37.1417 28.7109 37.0596 28.7992 37.1174 28.8418C37.6013 29.2161 38.0883 29.5783 38.5844 29.9374C38.63 29.9739 38.7 29.8979 38.6513 29.8613C38.1806 29.4839 37.6957 29.1147 37.1965 28.7535Z" fill="url(#paint42_linear_50_3559)" stroke="url(#paint43_linear_50_3559)"/>
<path id="Vector_23" d="M40.1225 28.8423C39.3373 28.1758 38.5247 27.5427 37.7121 26.9127C37.6694 26.8792 37.6086 26.9432 37.6512 26.9797C38.4334 27.6493 39.2155 28.3188 40.0282 28.9488C40.0951 29.0005 40.1895 28.8971 40.1225 28.8423Z" fill="url(#paint44_linear_50_3559)" stroke="url(#paint45_linear_50_3559)"/>
<path id="Vector_24" d="M40.9593 27.1897C40.2715 26.6601 39.5319 26.1914 38.8288 25.7045C38.7954 25.6832 38.7497 25.7319 38.7832 25.7562C39.468 26.2827 40.1467 26.8336 40.8649 27.3145C40.9288 27.3693 41.0384 27.2536 40.9593 27.1897Z" fill="url(#paint46_linear_50_3559)" stroke="url(#paint47_linear_50_3559)"/>
<path id="Vector_25" d="M42.8165 25.1202C41.7565 24.6111 40.8151 23.8853 40.053 22.9897C39.9678 22.8924 39.7943 23.008 39.8704 23.1176C40.5629 24.1315 41.5359 24.9215 42.6704 25.391C42.8317 25.4732 42.9869 25.2115 42.8165 25.1202Z" fill="url(#paint48_linear_50_3559)" stroke="url(#paint49_linear_50_3559)"/>
<path id="Vector_26" d="M44.2579 23.0532C43.4179 22.6424 42.7027 22.3106 42.0818 21.5771C41.9753 21.4524 41.747 21.6076 41.8505 21.7384C42.4135 22.4537 43.2322 23.1628 44.1514 23.3424C44.1883 23.351 44.227 23.3459 44.2604 23.328C44.2938 23.31 44.3195 23.2805 44.3326 23.2449C44.3457 23.2094 44.3453 23.1702 44.3315 23.1349C44.3178 23.0996 44.2916 23.0706 44.2579 23.0532Z" fill="url(#paint50_linear_50_3559)" stroke="url(#paint51_linear_50_3559)"/>
<path id="Vector_27" d="M46.2748 20.1523C45.2948 19.6715 44.5856 19.2393 43.9069 18.3628C43.8309 18.2684 43.6878 18.3628 43.7395 18.4784C43.9831 18.9553 44.3268 19.374 44.7469 19.706C45.1671 20.0379 45.654 20.2753 46.1743 20.4019C46.3235 20.4324 46.4117 20.2193 46.2748 20.1523Z" fill="url(#paint52_linear_50_3559)" stroke="url(#paint53_linear_50_3559)"/>
<path id="Vector_28" d="M47.9708 16.8413C47.0731 16.5096 46.2851 15.9354 45.6942 15.1826C45.6121 15.0761 45.4264 15.2039 45.5055 15.3135C46.0791 16.1361 46.8781 16.7755 47.8064 17.1548C47.989 17.2278 48.1808 16.9265 47.9708 16.8413Z" fill="url(#paint54_linear_50_3559)" stroke="url(#paint55_linear_50_3559)"/>
<path id="Vector_29" d="M49.6895 14.1081C49.3165 13.8008 48.9173 13.5269 48.4964 13.2894C48.1373 13.0581 47.7812 12.8176 47.4038 12.6076C47.3004 12.5498 47.1847 12.7172 47.279 12.7933C47.9566 13.4059 48.702 13.9389 49.5008 14.382C49.5367 14.3964 49.5765 14.3982 49.6136 14.3871C49.6507 14.3759 49.6828 14.3525 49.7048 14.3206C49.7268 14.2887 49.7372 14.2503 49.7344 14.2116C49.7317 14.173 49.7158 14.1365 49.6895 14.1081Z" fill="url(#paint56_linear_50_3559)" stroke="url(#paint57_linear_50_3559)"/>
<path id="Vector_30" d="M51.3188 10.7761C51.0224 10.5251 50.69 10.32 50.3328 10.1674C49.9632 9.95244 49.5788 9.76427 49.1823 9.60434C49.091 9.57086 48.9875 9.69261 49.0728 9.76565C49.4052 10.0279 49.7561 10.2659 50.1228 10.4778C50.4297 10.714 50.7703 10.9027 51.1332 11.0378C51.167 11.0473 51.2029 11.0461 51.236 11.0343C51.2692 11.0226 51.2978 11.001 51.3181 10.9723C51.3385 10.9437 51.3494 10.9094 51.3496 10.8743C51.3497 10.8392 51.339 10.8049 51.3188 10.7761Z" fill="url(#paint58_linear_50_3559)" stroke="url(#paint59_linear_50_3559)"/>
<path id="Vector_31" d="M51.4736 8.17319L50.8071 7.70755C50.661 7.60711 50.4662 7.81103 50.6032 7.9419L51.1936 8.49277C51.3525 8.69083 51.5544 8.85007 51.784 8.95841C51.8251 8.97258 51.8695 8.97421 51.9115 8.96309C51.9535 8.95198 51.9913 8.92864 52.02 8.89602C52.0487 8.8634 52.067 8.82298 52.0727 8.7799C52.0784 8.73682 52.0711 8.69301 52.0519 8.65407C51.9453 8.43493 51.6714 8.31319 51.4736 8.17319Z" fill="url(#paint60_linear_50_3559)" stroke="url(#paint61_linear_50_3559)"/>
<path id="Vector_32" d="M53.3022 7.43355C52.712 7.00574 52.0915 6.62127 51.4457 6.28313C51.2935 6.19182 51.0774 6.40183 51.2388 6.51748C51.8153 6.98868 52.4256 7.41692 53.0648 7.79878C53.2535 7.90834 53.4909 7.58573 53.3022 7.43355Z" fill="url(#paint62_linear_50_3559)" stroke="url(#paint63_linear_50_3559)"/>
<path id="Vector_33" d="M53.0691 5.66825L52.296 4.98651C52.1682 4.8739 51.9917 5.08085 52.1043 5.20868C52.3387 5.44911 52.57 5.6926 52.8043 5.93608C52.9944 6.1723 53.2132 6.38393 53.4556 6.56608C53.6139 6.66347 53.8604 6.48998 53.7417 6.31042C53.5451 6.06919 53.3191 5.85347 53.0691 5.66825Z" fill="url(#paint64_linear_50_3559)" stroke="url(#paint65_linear_50_3559)"/>
<path id="Vector_34" d="M53.5389 3.32148C53.3593 3.19365 53.1128 3.45233 53.2893 3.60755C53.7854 4.04885 54.315 4.618 54.9206 4.898C55.0758 4.97104 55.2889 4.76104 55.1732 4.61191C54.7623 4.08539 54.0745 3.69278 53.5389 3.32148Z" fill="url(#paint66_linear_50_3559)" stroke="url(#paint67_linear_50_3559)"/>
<path id="Vector_35" d="M54.6336 3.3195C54.5423 3.19472 54.3292 3.33776 54.4175 3.46863C54.5483 3.67254 54.6792 3.87341 54.8223 4.07732C54.9196 4.20819 55.1449 4.05296 55.0536 3.91601C54.9196 3.69383 54.7766 3.51124 54.6336 3.3195Z" fill="url(#paint68_linear_50_3559)" stroke="url(#paint69_linear_50_3559)"/>
<path id="Vector_36" d="M49.6815 5.37917C49.7177 5.20497 49.7239 5.02589 49.6998 4.84961C45.8102 5.53135 42.7302 8.73004 40.0215 11.3687C36.3693 14.9296 32.7922 18.5727 29.2902 22.2979C22.3105 29.7605 15.7163 37.5589 9.50758 45.6931C6.86279 49.1475 3.51192 53.0188 3.27148 57.5627C3.27148 57.6905 3.46322 57.6723 3.48452 57.5627C3.50583 57.4531 3.53931 57.3192 3.5667 57.1975C4.15105 58.0953 5.33496 57.3436 6.02888 56.8049C7.92192 55.3379 9.80583 53.8558 11.6441 52.3218C11.7567 52.2275 11.6441 52.0571 11.5224 52.1484C10.3415 53.0158 9.17584 53.9075 8.01932 54.8084C7.22497 55.4171 4.82366 57.9736 3.60018 57.0362C4.51322 52.9945 6.91757 49.7653 9.38279 46.4844C12.264 42.6557 15.2435 38.9021 18.3215 35.2236C24.4085 27.9192 30.8393 20.8948 37.6233 14.2235C41.1202 10.7905 44.6233 6.80353 49.4594 5.44005C47.7185 9.88049 44.8941 13.7305 42.0363 17.5257C39.0293 21.5411 35.9189 25.4743 32.705 29.3253C26.2802 37.0466 19.3624 44.2688 12.4963 51.5884C12.478 51.6066 12.4963 51.6279 12.5267 51.6097C18.3672 46.2836 23.7572 40.3975 28.9402 34.4353C34.1233 28.4731 39.072 22.3162 43.7711 15.9705C46.0659 12.8692 48.242 9.6644 49.8002 6.12788C49.6668 5.90252 49.6243 5.63475 49.6815 5.37917Z" fill="url(#paint70_linear_50_3559)" stroke="url(#paint71_linear_50_3559)"/>
</g>
<defs>
<linearGradient id="paint0_linear_50_3559" x1="27.1706" y1="1.32227" x2="27.1706" y2="61.3749" gradientUnits="userSpaceOnUse">
<stop stop-color="#49D46F"/>
<stop offset="1" stop-color="#25BE9F"/>
</linearGradient>
<linearGradient id="paint1_linear_50_3559" x1="27.1706" y1="1.32227" x2="27.1706" y2="61.3749" gradientUnits="userSpaceOnUse">
<stop stop-color="#49D46F"/>
<stop offset="1" stop-color="#25BE9F"/>
</linearGradient>
<linearGradient id="paint2_linear_50_3559" x1="30.9837" y1="1" x2="30.9837" y2="61.0395" gradientUnits="userSpaceOnUse">
<stop stop-color="#49D46F"/>
<stop offset="1" stop-color="#25BE9F"/>
</linearGradient>
<linearGradient id="paint3_linear_50_3559" x1="30.9837" y1="1" x2="30.9837" y2="61.0395" gradientUnits="userSpaceOnUse">
<stop stop-color="#49D46F"/>
<stop offset="1" stop-color="#25BE9F"/>
</linearGradient>
<linearGradient id="paint4_linear_50_3559" x1="27.1336" y1="1.76465" x2="27.1336" y2="61.219" gradientUnits="userSpaceOnUse">
<stop stop-color="#49D46F"/>
<stop offset="1" stop-color="#25BE9F"/>
</linearGradient>
<linearGradient id="paint5_linear_50_3559" x1="27.1336" y1="1.76465" x2="27.1336" y2="61.219" gradientUnits="userSpaceOnUse">
<stop stop-color="#49D46F"/>
<stop offset="1" stop-color="#25BE9F"/>
</linearGradient>
<linearGradient id="paint6_linear_50_3559" x1="4.1821" y1="58.9775" x2="4.1821" y2="60.895" gradientUnits="userSpaceOnUse">
<stop stop-color="#49D46F"/>
<stop offset="1" stop-color="#25BE9F"/>
</linearGradient>
<linearGradient id="paint7_linear_50_3559" x1="4.1821" y1="58.9775" x2="4.1821" y2="60.895" gradientUnits="userSpaceOnUse">
<stop stop-color="#49D46F"/>
<stop offset="1" stop-color="#25BE9F"/>
</linearGradient>
<linearGradient id="paint8_linear_50_3559" x1="5.25555" y1="58.9326" x2="5.25555" y2="60.3732" gradientUnits="userSpaceOnUse">
<stop stop-color="#49D46F"/>
<stop offset="1" stop-color="#25BE9F"/>
</linearGradient>
<linearGradient id="paint9_linear_50_3559" x1="5.25555" y1="58.9326" x2="5.25555" y2="60.3732" gradientUnits="userSpaceOnUse">
<stop stop-color="#49D46F"/>
<stop offset="1" stop-color="#25BE9F"/>
</linearGradient>
<linearGradient id="paint10_linear_50_3559" x1="6.59043" y1="58.4209" x2="6.59043" y2="59.6566" gradientUnits="userSpaceOnUse">
<stop stop-color="#49D46F"/>
<stop offset="1" stop-color="#25BE9F"/>
</linearGradient>
<linearGradient id="paint11_linear_50_3559" x1="6.59043" y1="58.4209" x2="6.59043" y2="59.6566" gradientUnits="userSpaceOnUse">
<stop stop-color="#49D46F"/>
<stop offset="1" stop-color="#25BE9F"/>
</linearGradient>
<linearGradient id="paint12_linear_50_3559" x1="8.07845" y1="57.1934" x2="8.07845" y2="58.3282" gradientUnits="userSpaceOnUse">
<stop stop-color="#49D46F"/>
<stop offset="1" stop-color="#25BE9F"/>
</linearGradient>
<linearGradient id="paint13_linear_50_3559" x1="8.07845" y1="57.1934" x2="8.07845" y2="58.3282" gradientUnits="userSpaceOnUse">
<stop stop-color="#49D46F"/>
<stop offset="1" stop-color="#25BE9F"/>
</linearGradient>
<linearGradient id="paint14_linear_50_3559" x1="10.1864" y1="56.001" x2="10.1864" y2="57.1211" gradientUnits="userSpaceOnUse">
<stop stop-color="#49D46F"/>
<stop offset="1" stop-color="#25BE9F"/>
</linearGradient>
<linearGradient id="paint15_linear_50_3559" x1="10.1864" y1="56.001" x2="10.1864" y2="57.1211" gradientUnits="userSpaceOnUse">
<stop stop-color="#49D46F"/>
<stop offset="1" stop-color="#25BE9F"/>
</linearGradient>
<linearGradient id="paint16_linear_50_3559" x1="11.6169" y1="54.7617" x2="11.6169" y2="55.9519" gradientUnits="userSpaceOnUse">
<stop stop-color="#49D46F"/>
<stop offset="1" stop-color="#25BE9F"/>
</linearGradient>
<linearGradient id="paint17_linear_50_3559" x1="11.6169" y1="54.7617" x2="11.6169" y2="55.9519" gradientUnits="userSpaceOnUse">
<stop stop-color="#49D46F"/>
<stop offset="1" stop-color="#25BE9F"/>
</linearGradient>
<linearGradient id="paint18_linear_50_3559" x1="13.3518" y1="53.3291" x2="13.3518" y2="54.6567" gradientUnits="userSpaceOnUse">
<stop stop-color="#49D46F"/>
<stop offset="1" stop-color="#25BE9F"/>
</linearGradient>
<linearGradient id="paint19_linear_50_3559" x1="13.3518" y1="53.3291" x2="13.3518" y2="54.6567" gradientUnits="userSpaceOnUse">
<stop stop-color="#49D46F"/>
<stop offset="1" stop-color="#25BE9F"/>
</linearGradient>
<linearGradient id="paint20_linear_50_3559" x1="15.1609" y1="52.0508" x2="15.1609" y2="53.7408" gradientUnits="userSpaceOnUse">
<stop stop-color="#49D46F"/>
<stop offset="1" stop-color="#25BE9F"/>
</linearGradient>
<linearGradient id="paint21_linear_50_3559" x1="15.1609" y1="52.0508" x2="15.1609" y2="53.7408" gradientUnits="userSpaceOnUse">
<stop stop-color="#49D46F"/>
<stop offset="1" stop-color="#25BE9F"/>
</linearGradient>
<linearGradient id="paint22_linear_50_3559" x1="17.1569" y1="50.6777" x2="17.1569" y2="51.9376" gradientUnits="userSpaceOnUse">
<stop stop-color="#49D46F"/>
<stop offset="1" stop-color="#25BE9F"/>
</linearGradient>
<linearGradient id="paint23_linear_50_3559" x1="17.1569" y1="50.6777" x2="17.1569" y2="51.9376" gradientUnits="userSpaceOnUse">
<stop stop-color="#49D46F"/>
<stop offset="1" stop-color="#25BE9F"/>
</linearGradient>
<linearGradient id="paint24_linear_50_3559" x1="19.2627" y1="47.5771" x2="19.2627" y2="49.3323" gradientUnits="userSpaceOnUse">
<stop stop-color="#49D46F"/>
<stop offset="1" stop-color="#25BE9F"/>
</linearGradient>
<linearGradient id="paint25_linear_50_3559" x1="19.2627" y1="47.5771" x2="19.2627" y2="49.3323" gradientUnits="userSpaceOnUse">
<stop stop-color="#49D46F"/>
<stop offset="1" stop-color="#25BE9F"/>
</linearGradient>
<linearGradient id="paint26_linear_50_3559" x1="21.9447" y1="45.4082" x2="21.9447" y2="47.302" gradientUnits="userSpaceOnUse">
<stop stop-color="#49D46F"/>
<stop offset="1" stop-color="#25BE9F"/>
</linearGradient>
<linearGradient id="paint27_linear_50_3559" x1="21.9447" y1="45.4082" x2="21.9447" y2="47.302" gradientUnits="userSpaceOnUse">
<stop stop-color="#49D46F"/>
<stop offset="1" stop-color="#25BE9F"/>
</linearGradient>
<linearGradient id="paint28_linear_50_3559" x1="24.812" y1="42.6846" x2="24.812" y2="44.5157" gradientUnits="userSpaceOnUse">
<stop stop-color="#49D46F"/>
<stop offset="1" stop-color="#25BE9F"/>
</linearGradient>
<linearGradient id="paint29_linear_50_3559" x1="24.812" y1="42.6846" x2="24.812" y2="44.5157" gradientUnits="userSpaceOnUse">
<stop stop-color="#49D46F"/>
<stop offset="1" stop-color="#25BE9F"/>
</linearGradient>
<linearGradient id="paint30_linear_50_3559" x1="27.0907" y1="40.0996" x2="27.0907" y2="42.2572" gradientUnits="userSpaceOnUse">
<stop stop-color="#49D46F"/>
<stop offset="1" stop-color="#25BE9F"/>
</linearGradient>
<linearGradient id="paint31_linear_50_3559" x1="27.0907" y1="40.0996" x2="27.0907" y2="42.2572" gradientUnits="userSpaceOnUse">
<stop stop-color="#49D46F"/>
<stop offset="1" stop-color="#25BE9F"/>
</linearGradient>
<linearGradient id="paint32_linear_50_3559" x1="29.4517" y1="38.1426" x2="29.4517" y2="39.8878" gradientUnits="userSpaceOnUse">
<stop stop-color="#49D46F"/>
<stop offset="1" stop-color="#25BE9F"/>
</linearGradient>
<linearGradient id="paint33_linear_50_3559" x1="29.4517" y1="38.1426" x2="29.4517" y2="39.8878" gradientUnits="userSpaceOnUse">
<stop stop-color="#49D46F"/>
<stop offset="1" stop-color="#25BE9F"/>
</linearGradient>
<linearGradient id="paint34_linear_50_3559" x1="32.085" y1="35.6924" x2="32.085" y2="37.2234" gradientUnits="userSpaceOnUse">
<stop stop-color="#49D46F"/>
<stop offset="1" stop-color="#25BE9F"/>
</linearGradient>
<linearGradient id="paint35_linear_50_3559" x1="32.085" y1="35.6924" x2="32.085" y2="37.2234" gradientUnits="userSpaceOnUse">
<stop stop-color="#49D46F"/>
<stop offset="1" stop-color="#25BE9F"/>
</linearGradient>
<linearGradient id="paint36_linear_50_3559" x1="34.7172" y1="33.75" x2="34.7172" y2="35.2258" gradientUnits="userSpaceOnUse">
<stop stop-color="#49D46F"/>
<stop offset="1" stop-color="#25BE9F"/>
</linearGradient>
<linearGradient id="paint37_linear_50_3559" x1="34.7172" y1="33.75" x2="34.7172" y2="35.2258" gradientUnits="userSpaceOnUse">
<stop stop-color="#49D46F"/>
<stop offset="1" stop-color="#25BE9F"/>
</linearGradient>
<linearGradient id="paint38_linear_50_3559" x1="35.3023" y1="31.0703" x2="35.3023" y2="32.9237" gradientUnits="userSpaceOnUse">
<stop stop-color="#49D46F"/>
<stop offset="1" stop-color="#25BE9F"/>
</linearGradient>
<linearGradient id="paint39_linear_50_3559" x1="35.3023" y1="31.0703" x2="35.3023" y2="32.9237" gradientUnits="userSpaceOnUse">
<stop stop-color="#49D46F"/>
<stop offset="1" stop-color="#25BE9F"/>
</linearGradient>
<linearGradient id="paint40_linear_50_3559" x1="37.0785" y1="29.1855" x2="37.0785" y2="31.2454" gradientUnits="userSpaceOnUse">
<stop stop-color="#49D46F"/>
<stop offset="1" stop-color="#25BE9F"/>
</linearGradient>
<linearGradient id="paint41_linear_50_3559" x1="37.0785" y1="29.1855" x2="37.0785" y2="31.2454" gradientUnits="userSpaceOnUse">
<stop stop-color="#49D46F"/>
<stop offset="1" stop-color="#25BE9F"/>
</linearGradient>
<linearGradient id="paint42_linear_50_3559" x1="37.8828" y1="28.7422" x2="37.8828" y2="29.9471" gradientUnits="userSpaceOnUse">
<stop stop-color="#49D46F"/>
<stop offset="1" stop-color="#25BE9F"/>
</linearGradient>
<linearGradient id="paint43_linear_50_3559" x1="37.8828" y1="28.7422" x2="37.8828" y2="29.9471" gradientUnits="userSpaceOnUse">
<stop stop-color="#49D46F"/>
<stop offset="1" stop-color="#25BE9F"/>
</linearGradient>
<linearGradient id="paint44_linear_50_3559" x1="38.8911" y1="26.9033" x2="38.8911" y2="28.9629" gradientUnits="userSpaceOnUse">
<stop stop-color="#49D46F"/>
<stop offset="1" stop-color="#25BE9F"/>
</linearGradient>
<linearGradient id="paint45_linear_50_3559" x1="38.8911" y1="26.9033" x2="38.8911" y2="28.9629" gradientUnits="userSpaceOnUse">
<stop stop-color="#49D46F"/>
<stop offset="1" stop-color="#25BE9F"/>
</linearGradient>
<linearGradient id="paint46_linear_50_3559" x1="39.8792" y1="25.6992" x2="39.8792" y2="27.3288" gradientUnits="userSpaceOnUse">
<stop stop-color="#49D46F"/>
<stop offset="1" stop-color="#25BE9F"/>
</linearGradient>
<linearGradient id="paint47_linear_50_3559" x1="39.8792" y1="25.6992" x2="39.8792" y2="27.3288" gradientUnits="userSpaceOnUse">
<stop stop-color="#49D46F"/>
<stop offset="1" stop-color="#25BE9F"/>
</linearGradient>
<linearGradient id="paint48_linear_50_3559" x1="41.3711" y1="22.9531" x2="41.3711" y2="25.4068" gradientUnits="userSpaceOnUse">
<stop stop-color="#49D46F"/>
<stop offset="1" stop-color="#25BE9F"/>
</linearGradient>
<linearGradient id="paint49_linear_50_3559" x1="41.3711" y1="22.9531" x2="41.3711" y2="25.4068" gradientUnits="userSpaceOnUse">
<stop stop-color="#49D46F"/>
<stop offset="1" stop-color="#25BE9F"/>
</linearGradient>
<linearGradient id="paint50_linear_50_3559" x1="43.0832" y1="21.5312" x2="43.0832" y2="23.3465" gradientUnits="userSpaceOnUse">
<stop stop-color="#49D46F"/>
<stop offset="1" stop-color="#25BE9F"/>
</linearGradient>
<linearGradient id="paint51_linear_50_3559" x1="43.0832" y1="21.5312" x2="43.0832" y2="23.3465" gradientUnits="userSpaceOnUse">
<stop stop-color="#49D46F"/>
<stop offset="1" stop-color="#25BE9F"/>
</linearGradient>
<linearGradient id="paint52_linear_50_3559" x1="45.0357" y1="18.3242" x2="45.0357" y2="20.4049" gradientUnits="userSpaceOnUse">
<stop stop-color="#49D46F"/>
<stop offset="1" stop-color="#25BE9F"/>
</linearGradient>
<linearGradient id="paint53_linear_50_3559" x1="45.0357" y1="18.3242" x2="45.0357" y2="20.4049" gradientUnits="userSpaceOnUse">
<stop stop-color="#49D46F"/>
<stop offset="1" stop-color="#25BE9F"/>
</linearGradient>
<linearGradient id="paint54_linear_50_3559" x1="46.7744" y1="15.1426" x2="46.7744" y2="17.1661" gradientUnits="userSpaceOnUse">
<stop stop-color="#49D46F"/>
<stop offset="1" stop-color="#25BE9F"/>
</linearGradient>
<linearGradient id="paint55_linear_50_3559" x1="46.7744" y1="15.1426" x2="46.7744" y2="17.1661" gradientUnits="userSpaceOnUse">
<stop stop-color="#49D46F"/>
<stop offset="1" stop-color="#25BE9F"/>
</linearGradient>
<linearGradient id="paint56_linear_50_3559" x1="48.4895" y1="12.5957" x2="48.4895" y2="14.3943" gradientUnits="userSpaceOnUse">
<stop stop-color="#49D46F"/>
<stop offset="1" stop-color="#25BE9F"/>
</linearGradient>
<linearGradient id="paint57_linear_50_3559" x1="48.4895" y1="12.5957" x2="48.4895" y2="14.3943" gradientUnits="userSpaceOnUse">
<stop stop-color="#49D46F"/>
<stop offset="1" stop-color="#25BE9F"/>
</linearGradient>
<linearGradient id="paint58_linear_50_3559" x1="50.1953" y1="9.59863" x2="50.1953" y2="11.0441" gradientUnits="userSpaceOnUse">
<stop stop-color="#49D46F"/>
<stop offset="1" stop-color="#25BE9F"/>
</linearGradient>
<linearGradient id="paint59_linear_50_3559" x1="50.1953" y1="9.59863" x2="50.1953" y2="11.0441" gradientUnits="userSpaceOnUse">
<stop stop-color="#49D46F"/>
<stop offset="1" stop-color="#25BE9F"/>
</linearGradient>
<linearGradient id="paint60_linear_50_3559" x1="51.3156" y1="7.68066" x2="51.3156" y2="8.97038" gradientUnits="userSpaceOnUse">
<stop stop-color="#49D46F"/>
<stop offset="1" stop-color="#25BE9F"/>
</linearGradient>
<linearGradient id="paint61_linear_50_3559" x1="51.3156" y1="7.68066" x2="51.3156" y2="8.97038" gradientUnits="userSpaceOnUse">
<stop stop-color="#49D46F"/>
<stop offset="1" stop-color="#25BE9F"/>
</linearGradient>
<linearGradient id="paint62_linear_50_3559" x1="52.2765" y1="6.26074" x2="52.2765" y2="7.82104" gradientUnits="userSpaceOnUse">
<stop stop-color="#49D46F"/>
<stop offset="1" stop-color="#25BE9F"/>
</linearGradient>
<linearGradient id="paint63_linear_50_3559" x1="52.2765" y1="6.26074" x2="52.2765" y2="7.82104" gradientUnits="userSpaceOnUse">
<stop stop-color="#49D46F"/>
<stop offset="1" stop-color="#25BE9F"/>
</linearGradient>
<linearGradient id="paint64_linear_50_3559" x1="52.9207" y1="4.9541" x2="52.9207" y2="6.59413" gradientUnits="userSpaceOnUse">
<stop stop-color="#49D46F"/>
<stop offset="1" stop-color="#25BE9F"/>
</linearGradient>
<linearGradient id="paint65_linear_50_3559" x1="52.9207" y1="4.9541" x2="52.9207" y2="6.59413" gradientUnits="userSpaceOnUse">
<stop stop-color="#49D46F"/>
<stop offset="1" stop-color="#25BE9F"/>
</linearGradient>
<linearGradient id="paint66_linear_50_3559" x1="54.2174" y1="3.28711" x2="54.2174" y2="4.91298" gradientUnits="userSpaceOnUse">
<stop stop-color="#49D46F"/>
<stop offset="1" stop-color="#25BE9F"/>
</linearGradient>
<linearGradient id="paint67_linear_50_3559" x1="54.2174" y1="3.28711" x2="54.2174" y2="4.91298" gradientUnits="userSpaceOnUse">
<stop stop-color="#49D46F"/>
<stop offset="1" stop-color="#25BE9F"/>
</linearGradient>
<linearGradient id="paint68_linear_50_3559" x1="54.7357" y1="3.27148" x2="54.7357" y2="4.12676" gradientUnits="userSpaceOnUse">
<stop stop-color="#49D46F"/>
<stop offset="1" stop-color="#25BE9F"/>
</linearGradient>
<linearGradient id="paint69_linear_50_3559" x1="54.7357" y1="3.27148" x2="54.7357" y2="4.12676" gradientUnits="userSpaceOnUse">
<stop stop-color="#49D46F"/>
<stop offset="1" stop-color="#25BE9F"/>
</linearGradient>
<linearGradient id="paint70_linear_50_3559" x1="26.5359" y1="4.84961" x2="26.5359" y2="57.6519" gradientUnits="userSpaceOnUse">
<stop stop-color="#49D46F"/>
<stop offset="1" stop-color="#25BE9F"/>
</linearGradient>
<linearGradient id="paint71_linear_50_3559" x1="26.5359" y1="4.84961" x2="26.5359" y2="57.6519" gradientUnits="userSpaceOnUse">
<stop stop-color="#49D46F"/>
<stop offset="1" stop-color="#25BE9F"/>
</linearGradient>
</defs>
</svg>
