<svg width="45" height="54" viewBox="0 0 45 54" fill="none" xmlns="http://www.w3.org/2000/svg">
<g id="Group 6620">
<path id="Vector" d="M39.41 30.0564C36.6438 22.6792 31.8417 16.2381 25.5612 11.4809C22.5003 9.16643 19.0082 6.99083 15.1692 6.33573C13.4743 6.02042 11.7246 6.19576 10.126 6.84112C8.77568 7.54545 7.508 8.39793 6.34636 9.38282C4.76071 11.1194 3.8788 13.5242 3.64898 15.845C3.19975 20.5028 5.36368 24.8 7.45792 28.8023C7.4648 28.82 7.49667 28.8076 7.48802 28.7906C6.75639 27.2161 6.01919 25.5644 5.42355 23.8678C5.95267 23.4498 6.45363 22.9972 6.92315 22.5131C7.16313 23.2256 7.42731 23.9287 7.7157 24.6223C7.50054 24.7847 7.29694 24.9618 7.10639 25.1524C6.86466 25.3613 6.64524 25.5947 6.45165 25.8489C6.44867 25.8516 6.44692 25.8555 6.44678 25.8595C6.44664 25.8636 6.44812 25.8676 6.4509 25.8705C6.45368 25.8735 6.45752 25.8753 6.46158 25.8754C6.46565 25.8756 6.46961 25.8741 6.47259 25.8713C6.75042 25.7202 7.01325 25.5431 7.25757 25.3423C7.44178 25.1974 7.64497 25.0594 7.81738 24.8946C8.13512 25.6394 8.47955 26.3724 8.85068 27.0937C8.84446 27.0951 8.83849 27.0974 8.83297 27.1006C8.67192 27.2224 8.51904 27.3546 8.37529 27.4964C8.23976 27.6096 8.12416 27.7447 8.03329 27.8962C8.02502 27.9116 8.04361 27.9227 8.05955 27.9165C8.23782 27.8371 8.40266 27.7305 8.54817 27.6004C8.68749 27.4891 8.82005 27.3696 8.94514 27.2425C9.17735 27.6883 9.42127 28.1275 9.67227 28.564C9.59205 28.6237 9.51585 28.6887 9.44417 28.7585C9.35403 28.8465 9.27745 28.9537 9.18141 29.0317C9.16193 29.0393 9.1931 29.0618 9.20058 29.0548C9.31708 28.977 9.45795 28.9304 9.58035 28.8625C9.64734 28.8267 9.71228 28.7872 9.77486 28.7442C10.0362 29.1862 10.31 29.6273 10.5965 30.0677C10.2499 30.2964 9.94207 30.579 9.6846 30.9048C9.66866 30.911 9.6956 30.9331 9.70691 30.9308C10.0882 30.7831 10.4465 30.5815 10.7706 30.3322C11.0393 30.7374 11.318 31.1366 11.6066 31.5299C11.4865 31.6209 11.3712 31.7181 11.2611 31.821C11.0886 31.9677 10.9327 32.1328 10.7961 32.3134C10.7872 32.3168 10.8037 32.3328 10.8037 32.3328C11.0119 32.239 11.2094 32.1227 11.3924 31.986C11.5125 31.9068 11.6318 31.8258 11.7435 31.7356C11.9662 32.0363 12.1947 32.3307 12.4267 32.6237C12.0112 33.0337 11.6468 33.5175 11.2692 33.9515C11.2568 33.9563 11.2788 33.9763 11.2874 33.9669C11.7145 33.5972 12.1988 33.2543 12.6088 32.8566C13.0293 33.3726 13.4657 33.8825 13.9181 34.3861C13.4045 34.6956 13.0421 35.2215 12.6503 35.6712C12.4409 35.4468 12.2314 35.2224 12.0249 34.9949C11.1735 34.062 10.2393 33.0941 9.51878 32.0574C9.50709 32.0273 9.44433 32.0598 9.46379 32.0889C10.1137 33.0593 10.6678 34.0506 11.3982 34.9713C12.1658 35.9457 12.9998 36.8659 13.8942 37.7253C15.6363 39.4058 17.5566 40.8913 19.6209 42.1551C23.7344 44.6662 28.7279 46.9455 33.6634 46.2048C36.0547 45.8448 38.5041 44.7163 39.9709 42.7365C40.1989 42.4834 40.3866 42.1968 40.5273 41.8866C40.6793 41.5427 40.7954 41.1842 40.874 40.8166C40.9096 40.6384 40.9232 40.4566 40.9144 40.2751C41.8371 36.9415 40.5777 33.1632 39.41 30.0564ZM6.77827 9.79182C6.69676 9.93352 6.6177 10.0763 6.54032 10.2286C6.41783 10.48 6.3042 10.7279 6.20945 10.9929C5.93135 11.1927 5.68 11.4273 5.46156 11.6909C5.82456 11.0085 6.26649 10.3711 6.77827 9.79182ZM5.07104 12.5273C5.37029 12.1648 5.6925 11.8218 6.03569 11.5006C5.89921 11.9384 5.79135 12.3847 5.7128 12.8365C5.36962 13.1153 5.06555 13.439 4.80878 13.7989C4.70367 13.9376 4.59952 14.084 4.50305 14.2396C4.64626 13.6546 4.8362 13.082 5.07104 12.5273ZM4.15735 16.5768C4.62714 16.1335 5.08613 15.6782 5.52623 15.2056C5.52984 15.6872 5.55744 16.1676 5.60304 16.6472L5.57294 16.6589C5.20307 16.9187 4.90474 17.3259 4.59631 17.6495C4.45361 17.8068 4.30028 17.9682 4.15994 18.1369C4.13145 17.6178 4.13081 17.0977 4.15803 16.5786L4.15735 16.5768ZM4.19302 18.4582C4.4285 18.2669 4.6452 18.0483 4.85757 17.8395C5.13587 17.5933 5.40143 17.333 5.6532 17.0597C5.77816 18.084 5.96822 19.0993 6.22222 20.0994C6.1849 20.0996 6.14897 20.1136 6.12128 20.1386C5.63152 20.5672 5.1631 21.014 4.70619 21.4747C4.45186 20.4852 4.28021 19.4762 4.19302 18.4582ZM5.39446 23.8139C5.1541 23.1268 4.93746 22.4324 4.75475 21.731C5.27942 21.3031 5.79152 20.8638 6.27735 20.404C6.44825 21.0645 6.64107 21.7185 6.85584 22.3661C6.33515 22.8136 5.8468 23.2974 5.39446 23.8139ZM5.52918 14.8091C5.05397 15.3347 4.59917 15.8761 4.16479 16.4333C4.15792 16.4156 4.16629 16.3899 4.16827 16.3688C4.20138 15.8753 4.26383 15.3842 4.35529 14.8982C4.57971 14.5787 4.78731 14.2474 5.03032 13.9391C5.21506 13.7064 5.43451 13.4948 5.64413 13.2789C5.57681 13.787 5.53866 14.2985 5.52987 14.8109L5.52918 14.8091ZM13.6959 36.7528C13.3494 36.4064 13.0094 36.0554 12.6757 35.7C13.1382 35.3166 13.6744 34.9657 13.989 34.4584C14.2893 34.7874 14.5977 35.1112 14.9144 35.4298C14.742 35.5811 14.5807 35.7445 14.4318 35.9188C14.1595 36.1722 13.9132 36.4522 13.6966 36.7545L13.6959 36.7528ZM14.6245 37.6536C14.3295 37.3769 14.0392 37.0963 13.7535 36.8119C14.051 36.6106 14.3293 36.3824 14.5852 36.1303C14.7758 35.9795 14.9561 35.8162 15.125 35.6415C15.454 35.9641 15.781 36.2814 16.1233 36.5907C15.8641 36.765 15.6248 36.9672 15.4098 37.1938C15.1862 37.3811 14.9831 37.5919 14.8041 37.8223C14.7479 37.7667 14.6839 37.7121 14.6252 37.6554L14.6245 37.6536ZM14.9086 37.9183C15.1797 37.7645 15.4345 37.5837 15.669 37.3784C15.9164 37.2093 16.1435 37.0124 16.346 36.7915C16.7284 37.1362 17.1188 37.4696 17.5166 37.7961C17.242 37.9261 16.9844 38.0891 16.7493 38.2815C16.4822 38.4557 16.2273 38.648 15.9864 38.857C15.6124 38.5498 15.2529 38.2329 14.9093 37.92L14.9086 37.9183ZM20.8399 42.3237C21.1162 42.2133 21.3793 42.0722 21.6241 41.903C21.8961 41.7471 22.149 41.56 22.3776 41.3455C22.506 41.2142 22.2985 41.042 22.1624 41.1112C21.8869 41.2622 21.6303 41.4453 21.398 41.6566C21.1601 41.8352 20.9457 42.0431 20.7599 42.2753C19.1416 41.3026 17.6006 40.2066 16.1508 38.9969C16.4129 38.8705 16.6677 38.7294 16.9139 38.5742C17.1928 38.4109 17.5532 38.2526 17.7608 37.9947C18.1139 38.2794 18.4737 38.5554 18.8375 38.8258C18.6565 38.9369 18.4859 39.0643 18.3154 39.1814C18.0535 39.3626 17.7286 39.5438 17.54 39.8086C17.5368 39.8117 17.5347 39.8157 17.5337 39.82C17.5328 39.8244 17.5332 39.8289 17.5348 39.833C17.5364 39.8372 17.5392 39.8407 17.5428 39.8433C17.5464 39.8459 17.5507 39.8474 17.5551 39.8475C17.8809 39.7587 18.1902 39.6179 18.4712 39.4307C18.6862 39.3125 18.9195 39.1995 19.1273 39.0577C19.5083 39.339 19.8998 39.6109 20.3019 39.8732C19.9238 40.1534 19.5746 40.4706 19.2594 40.8201C19.1632 40.9186 19.3337 41.0114 19.4238 40.9601C19.8455 40.7071 20.2379 40.4084 20.5942 40.0695C22.8841 41.5616 25.3523 42.7604 27.9408 43.638C27.3264 43.7563 26.586 44.3108 26.3585 44.9005C24.4319 44.2433 22.5818 43.3799 20.8406 42.3255L20.8399 42.3237ZM33.4573 45.7264C33.6953 45.5722 33.9192 45.3972 34.1265 45.2037C34.3558 45.0234 34.5715 44.8265 34.772 44.6147C34.8808 44.6377 34.9911 44.654 35.0989 44.6692C35.0538 44.7315 35.0105 44.7932 34.9685 44.8583C34.8726 44.9995 34.6787 45.2297 34.7168 45.4065C34.7179 45.4111 34.7208 45.4152 34.7249 45.4177C34.7289 45.4203 34.7338 45.4213 34.7385 45.4205C34.9293 45.3871 35.0911 45.1531 35.21 45.0132C35.3 44.909 35.3864 44.8061 35.4641 44.6965C35.5637 44.7013 35.6636 44.7012 35.7636 44.6963L35.5067 44.8797C35.3653 44.9774 35.5412 45.1312 35.6693 45.057C35.906 44.9161 36.1504 44.7846 36.3805 44.632C36.6196 44.5895 36.8552 44.53 37.0858 44.4539C37.1091 44.4767 37.1391 44.4915 37.1714 44.4961C36.0201 45.1323 34.7607 45.5495 33.4573 45.7264ZM38.8881 42.9185C38.2634 43.5163 37.5053 43.9566 36.6766 44.2032C36.6591 44.1934 36.6395 44.188 36.6194 44.1876C36.5993 44.1873 36.5795 44.1918 36.5616 44.201L36.4503 44.2605C36.1903 44.3195 35.9254 44.3541 35.659 44.364C35.6851 44.2581 35.5306 44.1856 35.4523 44.2568C35.4144 44.2903 35.3786 44.326 35.345 44.3637C34.7804 44.3399 34.2297 44.1814 33.7389 43.9012C33.5824 43.8132 33.3847 44.0387 33.5541 44.1339C33.8197 44.2883 34.1018 44.4126 34.395 44.5044C34.2279 44.6671 34.0799 44.8529 33.9272 45.0263C33.7194 45.2372 33.5369 45.4716 33.3832 45.7246C31.1482 46.0199 28.7905 45.674 26.4775 44.9235C26.7052 44.7332 26.9095 44.5194 27.1561 44.3462C27.4691 44.1622 27.7933 43.9982 28.127 43.8551C28.1545 43.8432 28.177 43.822 28.1905 43.7951C28.2039 43.7683 28.2074 43.7375 28.2004 43.7083C28.8157 43.9109 29.4371 44.0942 30.0646 44.2581C30.1371 44.2768 30.1939 44.1712 30.1116 44.1482C26.7578 43.1918 23.5789 41.7045 20.6956 39.7428L20.6819 39.7338C20.2527 39.4419 19.8285 39.142 19.4122 38.8309C19.48 38.7169 19.3663 38.592 19.225 38.6427L19.1719 38.6634C16.9983 37.0124 15.028 35.1097 13.3024 32.9949C13.1752 32.8405 13.0498 32.6854 12.9142 32.52C13.0035 32.414 12.8716 32.3001 12.7634 32.3258C10.8936 29.9232 9.35789 27.2784 8.19815 24.4635C6.936 21.3812 5.97864 17.9503 6.13146 14.5916C6.2848 11.1817 7.86488 7.76196 11.4799 6.95322C15.1606 6.13527 18.9846 7.96392 22.033 9.84717C28.1807 13.6449 33.1805 19.1049 36.6437 25.4307C38.5568 28.9246 40.2204 32.9147 40.6457 36.9069C40.8782 39.0379 40.4964 41.3871 38.8807 42.9152L38.8881 42.9185Z" fill="url(#paint0_linear_50_3555)" stroke="#0D4599" stroke-width="0.5"/>
<path id="Vector_2" d="M13.8055 32.0615C12.6391 30.3278 11.3379 28.7402 10.3654 26.8761C8.40136 23.1063 7.28811 18.9515 7.10415 14.7047C7.01451 12.5427 7.4615 9.85227 9.59227 8.73749C9.6029 8.73337 9.5854 8.71979 9.58608 8.72156C7.76529 9.56924 7.13874 11.1413 6.88453 13.0476C6.58126 15.3051 6.93938 17.744 7.4067 19.955C7.88951 22.1932 8.6479 24.363 9.6645 26.4147C10.6496 28.4266 11.8981 30.6604 13.5359 32.2172C13.6403 32.3233 13.9105 32.2164 13.8055 32.0615Z" fill="url(#paint1_linear_50_3555)" stroke="#0D4599" stroke-width="0.5"/>
<path id="Vector_3" d="M31.5523 43.1098C30.0478 42.6099 28.5164 42.2244 27.0367 41.6517C25.4614 41.0165 23.9371 40.2615 22.4772 39.3933C19.6123 37.7465 17.0516 35.6392 14.725 33.3004C14.7209 33.2898 14.7038 33.3087 14.7073 33.3073C16.8255 35.9241 19.3918 38.1437 22.2865 39.8627C23.6722 40.6786 25.118 41.3877 26.6114 41.9839C28.168 42.6287 29.7877 43.2204 31.4634 43.4582C31.6659 43.4916 31.77 43.1822 31.5523 43.1098Z" fill="url(#paint2_linear_50_3555)" stroke="#0D4599" stroke-width="0.5"/>
<path id="Vector_4" d="M39.5851 33.275C38.6671 30.4044 37.44 27.642 35.9253 25.0366C34.403 22.3916 32.695 19.678 30.5515 17.4169C30.3783 17.2335 30.031 17.4621 30.1908 17.669C31.9224 19.9291 33.6797 22.114 35.0957 24.5639C36.3998 26.8272 37.5147 29.1944 38.4289 31.6412C39.3185 34.0265 40.1828 36.6825 39.438 39.2461C38.7745 41.5416 36.3054 43.7008 33.594 43.3781C33.5637 43.3735 33.5471 43.4146 33.5788 43.4227C35.8434 43.9332 38.045 42.7175 39.2346 40.937C40.7974 38.5959 40.3521 35.712 39.5851 33.275Z" fill="url(#paint3_linear_50_3555)" stroke="#0D4599" stroke-width="0.5"/>
<path id="Vector_5" d="M28.5515 15.3304C26.2254 12.914 23.2333 10.9763 20.2951 9.39263C17.6077 7.94589 14.4234 6.45779 11.4855 8.05514C11.4799 8.05732 11.4754 8.06166 11.4729 8.0672C11.4705 8.07273 11.4704 8.079 11.4725 8.08464C11.4747 8.09027 11.4791 8.09481 11.4846 8.09725C11.4901 8.09969 11.4964 8.09982 11.502 8.09763C14.5436 6.67808 18.2298 8.83942 20.8905 10.2333C23.6164 11.6692 25.9534 13.6147 28.3466 15.5323C28.4621 15.6301 28.6681 15.4523 28.5515 15.3304Z" fill="url(#paint4_linear_50_3555)" stroke="#0D4599" stroke-width="0.5"/>
<path id="Vector_6" d="M24.0554 42.1801C23.8359 42.2834 23.639 42.4291 23.476 42.6088C23.2949 42.7605 23.1232 42.9231 22.962 43.0958C22.9496 43.1111 22.9418 43.1297 22.9397 43.1493C22.9375 43.1689 22.9411 43.1888 22.95 43.2064C22.9513 43.2192 22.956 43.2315 22.9637 43.2418L22.9823 43.253C23.0003 43.2641 23.0208 43.2707 23.0419 43.2721C23.0631 43.2735 23.0843 43.2696 23.1036 43.2609C23.3239 43.132 23.5361 42.9897 23.739 42.8348C23.9499 42.7176 24.1334 42.5567 24.2772 42.3629C24.3431 42.2232 24.1566 42.1469 24.0554 42.1801Z" fill="url(#paint5_linear_50_3555)" stroke="#0D4599" stroke-width="0.5"/>
<path id="Vector_7" d="M26.0967 43.0316C25.8374 43.1665 25.6025 43.3439 25.4017 43.5562C25.2316 43.7059 24.9966 43.846 24.9354 44.0715C24.9175 44.1356 24.9948 44.1667 25.0421 44.1626C25.2804 44.1413 25.4932 43.9283 25.6833 43.7933C25.9233 43.6577 26.1375 43.4807 26.3158 43.2706C26.4172 43.1171 26.255 42.9722 26.0967 43.0316Z" fill="url(#paint6_linear_50_3555)" stroke="#0D4599" stroke-width="0.5"/>
<path id="Vector_8" d="M29.3057 44.2944C28.9224 44.4598 28.5928 44.7289 28.3542 45.0715C28.3209 45.117 28.372 45.1542 28.4152 45.1395C28.8177 45.0115 29.1771 44.7753 29.4544 44.4568C29.5323 44.3531 29.4073 44.257 29.3057 44.2944Z" fill="url(#paint7_linear_50_3555)" stroke="#0D4599" stroke-width="0.5"/>
<path id="Vector_9" d="M30.9706 44.3035C30.6749 44.4696 30.3963 44.6645 30.1389 44.8853C29.864 45.0657 29.616 45.2841 29.4024 45.5341C29.3759 45.5708 29.4183 45.6012 29.4544 45.5893C29.7663 45.4636 30.0599 45.2967 30.3276 45.0933C30.6192 44.9221 30.8933 44.7228 31.1461 44.4983C31.2534 44.3914 31.0816 44.2482 30.9706 44.3035Z" fill="url(#paint8_linear_50_3555)" stroke="#0D4599" stroke-width="0.5"/>
<path id="Vector_10" d="M32.3429 44.2051C32.0521 44.3851 31.7856 44.6017 31.5497 44.8494C31.3414 45.0424 31.0731 45.2383 30.9565 45.4996C30.954 45.5065 30.9535 45.514 30.9549 45.5213C30.9563 45.5286 30.9595 45.5353 30.9644 45.5409C30.9693 45.5465 30.9755 45.5506 30.9825 45.553C30.9895 45.5554 30.997 45.5558 31.0043 45.5544C31.2845 45.4446 31.542 45.2838 31.7636 45.0801C32.0508 44.8954 32.313 44.6745 32.5436 44.4227C32.5628 44.3943 32.5719 44.3603 32.5694 44.3261C32.5668 44.2919 32.5528 44.2595 32.5296 44.2343C32.5063 44.2091 32.4752 44.1925 32.4413 44.1872C32.4075 44.1819 32.3728 44.1882 32.3429 44.2051Z" fill="url(#paint9_linear_50_3555)" stroke="#0D4599" stroke-width="0.5"/>
<path id="Vector_11" d="M33.7843 44.4099C33.5061 44.5791 33.2493 44.7815 33.0198 45.0125C32.7791 45.2157 32.5493 45.4315 32.3313 45.6589C32.316 45.6771 32.3458 45.6961 32.3592 45.6888C32.6412 45.5386 32.8996 45.3486 33.1653 45.172C33.4459 45.006 33.705 44.8062 33.9368 44.5769C34.0245 44.4879 33.884 44.357 33.7843 44.4099Z" fill="url(#paint10_linear_50_3555)" stroke="#0D4599" stroke-width="0.5"/>
</g>
<defs>
<linearGradient id="paint0_linear_50_3555" x1="3.74306" y1="20.4114" x2="29.513" y2="11.2771" gradientUnits="userSpaceOnUse">
<stop stop-color="#1764DB"/>
<stop offset="1" stop-color="#80E39B"/>
</linearGradient>
<linearGradient id="paint1_linear_50_3555" x1="5.50758" y1="16.0173" x2="11.0582" y2="13.9415" gradientUnits="userSpaceOnUse">
<stop stop-color="#1764DB"/>
<stop offset="1" stop-color="#80E39B"/>
</linearGradient>
<linearGradient id="paint2_linear_50_3555" x1="15.985" y1="36.5988" x2="26.5884" y2="32.9116" gradientUnits="userSpaceOnUse">
<stop stop-color="#1764DB"/>
<stop offset="1" stop-color="#80E39B"/>
</linearGradient>
<linearGradient id="paint3_linear_50_3555" x1="26.5114" y1="25.2515" x2="34.5792" y2="22.268" gradientUnits="userSpaceOnUse">
<stop stop-color="#1764DB"/>
<stop offset="1" stop-color="#80E39B"/>
</linearGradient>
<linearGradient id="paint4_linear_50_3555" x1="12.532" y1="10.8129" x2="24.1134" y2="6.91707" gradientUnits="userSpaceOnUse">
<stop stop-color="#1764DB"/>
<stop offset="1" stop-color="#80E39B"/>
</linearGradient>
<linearGradient id="paint5_linear_50_3555" x1="22.8007" y1="42.829" x2="24.1998" y2="42.4537" gradientUnits="userSpaceOnUse">
<stop stop-color="#1764DB"/>
<stop offset="1" stop-color="#80E39B"/>
</linearGradient>
<linearGradient id="paint6_linear_50_3555" x1="24.7815" y1="43.711" x2="26.2498" y2="43.3182" gradientUnits="userSpaceOnUse">
<stop stop-color="#1764DB"/>
<stop offset="1" stop-color="#80E39B"/>
</linearGradient>
<linearGradient id="paint7_linear_50_3555" x1="28.234" y1="44.8251" x2="29.405" y2="44.5349" gradientUnits="userSpaceOnUse">
<stop stop-color="#1764DB"/>
<stop offset="1" stop-color="#80E39B"/>
</linearGradient>
<linearGradient id="paint8_linear_50_3555" x1="29.2293" y1="45.1377" x2="31.076" y2="44.7139" gradientUnits="userSpaceOnUse">
<stop stop-color="#1764DB"/>
<stop offset="1" stop-color="#80E39B"/>
</linearGradient>
<linearGradient id="paint9_linear_50_3555" x1="30.7551" y1="45.0089" x2="32.4731" y2="44.558" gradientUnits="userSpaceOnUse">
<stop stop-color="#1764DB"/>
<stop offset="1" stop-color="#80E39B"/>
</linearGradient>
<linearGradient id="paint10_linear_50_3555" x1="32.1475" y1="45.2099" x2="33.875" y2="44.7872" gradientUnits="userSpaceOnUse">
<stop stop-color="#1764DB"/>
<stop offset="1" stop-color="#80E39B"/>
</linearGradient>
</defs>
</svg>
