<svg width="62" height="52" viewBox="0 0 62 52" fill="none" xmlns="http://www.w3.org/2000/svg">
<g id="Group 6621">
<path id="Vector" d="M23.329 49.2239C22.1698 48.5084 20.9354 47.8966 19.7297 47.2633C19.7262 47.2595 19.7219 47.2566 19.717 47.2549C19.7122 47.2531 19.707 47.2525 19.7019 47.2532C19.6968 47.2538 19.692 47.2557 19.6877 47.2587C19.6835 47.2616 19.68 47.2655 19.6776 47.27C19.6752 47.2745 19.6739 47.2796 19.6738 47.2847C19.6738 47.2898 19.6749 47.2949 19.6772 47.2995C19.6795 47.3041 19.6829 47.3081 19.687 47.3111C19.6912 47.3142 19.696 47.3162 19.7011 47.317C20.8531 48.0325 22.0088 48.8018 23.2073 49.4637C23.2231 49.4716 23.2402 49.4765 23.2578 49.4778C23.2754 49.4792 23.2931 49.477 23.3099 49.4716C23.3267 49.4661 23.3422 49.4573 23.3556 49.4459C23.369 49.4344 23.38 49.4204 23.388 49.4046C23.396 49.3889 23.4008 49.3717 23.4022 49.3541C23.4035 49.3365 23.4014 49.3188 23.3959 49.3021C23.3904 49.2853 23.3817 49.2697 23.3702 49.2563C23.3587 49.2429 23.3447 49.2319 23.329 49.2239Z" fill="url(#paint0_linear_50_3556)" stroke="url(#paint1_linear_50_3556)" stroke-width="0.5"/>
<path id="Vector_2" d="M22.7981 46.6014C24.1755 47.2991 25.5745 47.9645 26.9913 48.5835C27.1702 48.6586 27.3169 48.4153 27.1273 48.3295C25.7248 47.6747 24.2972 47.0665 22.8589 46.4905C22.7802 46.4583 22.7158 46.562 22.7981 46.6014Z" fill="url(#paint2_linear_50_3556)" stroke="url(#paint3_linear_50_3556)" stroke-width="0.5"/>
<path id="Vector_3" d="M33.5463 43.1131C33.5177 43.0916 33.4819 43.1131 33.5105 43.1488C34.659 44.0183 35.7467 44.97 36.9202 45.8108C37.0168 45.8823 37.1635 45.7607 37.0562 45.6748C35.9292 44.7732 34.702 43.986 33.5463 43.1131Z" fill="url(#paint4_linear_50_3556)" stroke="url(#paint5_linear_50_3556)" stroke-width="0.5"/>
<path id="Vector_4" d="M37.2786 41.8398C38.3519 42.5554 39.4253 43.271 40.538 43.9329C40.5531 43.9448 40.5706 43.9533 40.5894 43.9578C40.6081 43.9623 40.6276 43.9626 40.6465 43.9588C40.6654 43.955 40.6832 43.947 40.6987 43.9356C40.7142 43.9242 40.7271 43.9095 40.7363 43.8926C40.7456 43.8757 40.751 43.8569 40.7522 43.8377C40.7535 43.8185 40.7506 43.7992 40.7436 43.7813C40.7366 43.7633 40.7258 43.747 40.712 43.7337C40.6981 43.7203 40.6814 43.7102 40.6632 43.7039C39.5648 43.0384 38.4271 42.4337 37.3108 41.7969C37.2857 41.7862 37.2535 41.8219 37.2786 41.8398Z" fill="url(#paint6_linear_50_3556)" stroke="url(#paint7_linear_50_3556)" stroke-width="0.5"/>
<path id="Vector_5" d="M52.0991 28.4157C52.0932 28.4101 52.0863 28.4056 52.0787 28.4027C52.0711 28.3997 52.063 28.3983 52.0549 28.3985C52.0467 28.3986 52.0387 28.4004 52.0313 28.4037C52.0238 28.4069 52.0171 28.4116 52.0114 28.4175C52.0058 28.4234 52.0014 28.4303 51.9984 28.4379C51.9954 28.4455 51.994 28.4536 51.9942 28.4617C51.9943 28.4698 51.9961 28.4779 51.9994 28.4853C52.0026 28.4928 52.0073 28.4995 52.0132 28.5052C52.7826 29.333 53.5959 30.1189 54.4497 30.8594C54.5463 30.9381 54.7431 30.8236 54.6393 30.7127C53.8356 29.9008 52.9876 29.1339 52.0991 28.4157Z" fill="url(#paint8_linear_50_3556)" stroke="url(#paint9_linear_50_3556)" stroke-width="0.5"/>
<path id="Vector_6" d="M58.3633 21.3854C58.1213 21.2147 57.8594 21.0741 57.5833 20.9668C57.544 20.9668 57.5046 21.0026 57.5332 21.0348C57.739 21.244 57.9712 21.4256 58.2238 21.575C58.4718 21.7501 58.7285 21.9125 58.993 22.0616C59.1003 22.1224 59.2291 21.9722 59.1218 21.8863C58.8821 21.7038 58.6245 21.5464 58.3633 21.3854Z" fill="url(#paint10_linear_50_3556)" stroke="url(#paint11_linear_50_3556)" stroke-width="0.5"/>
<path id="Vector_7" d="M60.8853 13.4674C60.8853 13.4495 60.8459 13.4352 60.8316 13.4173C60.7718 12.5774 60.6667 11.7414 60.5168 10.9128C60.5428 10.8905 60.5611 10.8603 60.5688 10.8269C60.5765 10.7934 60.5734 10.7583 60.5597 10.7268C60.5132 10.6051 60.4595 10.4835 60.4059 10.369C60.3522 10.2545 60.3773 10.2116 60.3594 10.1329C60.3506 10.0918 60.332 10.0534 60.3052 10.021C60.2784 9.98861 60.2442 9.96316 60.2055 9.94682C60.1805 9.89315 60.1447 9.84306 60.1161 9.78939C60.1222 9.70675 60.0994 9.62456 60.0517 9.55684C54.735 1.4423 44.4416 -0.224978 35.5685 1.76072C26.8815 3.70707 18.8385 8.45128 12.6525 14.8127C9.16412 18.3906 6.29816 22.5263 4.17298 27.0489C4.15151 27.0918 4.22307 27.124 4.24454 27.0847C8.11751 19.5771 13.8783 13.2071 20.9602 8.60155L21.0675 8.53C19.222 9.75183 17.4591 11.094 15.7902 12.5479C12.3624 15.4904 9.39342 18.9285 6.98158 22.7483C6.96012 22.7805 7.01736 22.802 7.03883 22.7734C8.70725 20.4259 10.5414 18.2008 12.5272 16.115C12.1122 16.5921 11.7079 17.0691 11.3144 17.5461C12.1206 16.573 12.9697 15.6403 13.8618 14.7483C14.5344 14.0923 15.2261 13.4555 15.9369 12.8377C18.4335 10.711 21.117 8.81423 23.9549 7.17041C27.6025 5.16763 31.513 3.6863 35.5721 2.76968C38.5367 2.0569 41.5788 1.71795 44.6276 1.76072C45.3968 1.83228 46.1625 1.93604 46.9282 2.07916C50.2327 2.67135 53.3383 4.07537 55.9658 6.16504C57.4658 7.83165 58.3497 9.96182 58.4703 12.2009C58.5061 12.7668 58.5061 13.3344 58.4703 13.9003L58.4202 13.861C58.388 13.8359 58.3236 13.861 58.3558 13.9111L58.4631 14.0399C58.3992 14.8084 58.2797 15.5713 58.1053 16.3225L58.0695 16.3011C58.0639 16.2994 58.058 16.2995 58.0524 16.3013C58.0469 16.3032 58.042 16.3067 58.0385 16.3113C58.035 16.316 58.033 16.3216 58.0328 16.3275C58.0326 16.3333 58.0342 16.3391 58.0373 16.344L58.0874 16.3941C57.5224 18.666 56.6127 20.8379 55.3897 22.8342L54.9676 22.5229C54.9389 22.505 54.9067 22.5229 54.9318 22.5587C55.0606 22.6911 55.193 22.8199 55.3253 22.9451C54.8352 23.768 54.3164 24.5623 53.7797 25.3172C50.9823 29.2591 47.6381 32.7829 43.8476 35.7824C36.2841 41.7932 26.6955 46.0651 16.9959 46.7771C11.5397 47.1778 5.74365 45.8003 2.92432 40.6948C2.88854 40.6304 2.85991 40.5624 2.82414 40.498C1.63015 37.2347 1.54214 33.6694 2.57368 30.3512C2.57368 30.3298 2.54149 30.3155 2.53433 30.3512C1.92612 31.9283 1.58513 33.5958 1.52538 35.2851C1.52048 34.6135 1.57676 33.9429 1.69354 33.2815C1.68479 32.1487 1.88617 31.0242 2.28746 29.9648C1.21836 32.0179 0.800265 34.348 1.08888 36.6446C1.25596 37.9183 1.63064 39.1559 2.19801 40.3083C2.54808 41.4367 3.03469 42.5181 3.64703 43.5284C5.79374 47.1062 9.72936 49.9685 13.9226 50.4372C13.5362 50.4193 13.1498 50.405 12.7634 50.38C12.7571 50.3822 12.7516 50.3863 12.7477 50.3917C12.7438 50.3972 12.7418 50.4037 12.7418 50.4104C12.7418 50.4171 12.7438 50.4236 12.7477 50.429C12.7516 50.4345 12.7571 50.4386 12.7634 50.4408C19.826 51.6107 27.2715 50.659 34.1517 48.0651C35.8079 47.4928 37.4129 46.7819 38.9496 45.9399C47.2967 41.6715 54.3665 34.913 58.1983 26.6195C60.0874 22.5229 61.1322 18.1436 60.871 13.7107C60.9033 13.7126 60.935 13.7016 60.9591 13.6801C60.9833 13.6587 60.9979 13.6285 60.9998 13.5962C61.0017 13.5639 60.9907 13.5323 60.9692 13.5081C60.9478 13.4839 60.9176 13.4693 60.8853 13.4674ZM21.2822 8.37972C21.4396 8.27597 21.6006 8.17579 21.7616 8.07561C21.6185 8.17579 21.4396 8.27597 21.2822 8.37972ZM27.0067 5.36718C26.999 5.35597 26.9879 5.34752 26.975 5.34302C26.9622 5.33852 26.9482 5.33821 26.9352 5.34214C26.1087 5.69993 25.293 6.08633 24.488 6.50494C29.0712 4.0577 34.1946 2.25805 39.3718 1.77504C35.0959 2.35258 30.9298 3.56321 27.0103 5.36718H27.0067ZM59.2717 9.74646L58.9425 9.40656C58.6457 9.07392 58.3266 8.76193 57.9873 8.47275C57.9806 8.4662 57.9716 8.46252 57.9622 8.46252C57.9528 8.46252 57.9439 8.4662 57.9372 8.47275C57.7944 8.15135 57.6355 7.8373 57.4613 7.53178C58.1302 8.21501 58.7372 8.95613 59.2753 9.74646H59.2717ZM57.9765 8.58008C58.212 8.92202 58.4664 9.2505 58.7386 9.56399C58.9837 9.88591 59.2477 10.193 59.5293 10.4835C59.6474 10.598 59.8871 10.4477 59.7654 10.301C59.6975 10.2152 59.6187 10.1329 59.5472 10.0506C59.5818 10.0683 59.6194 10.0792 59.6581 10.0828C59.7297 10.1901 59.7976 10.2974 59.8692 10.4012C59.9336 10.7196 59.9908 11.0345 60.0409 11.3529C59.5789 10.7959 59.0623 10.2865 58.4989 9.83233C58.4631 9.80728 58.4059 9.83233 58.4345 9.88242C58.914 10.5712 59.4723 11.2016 60.0982 11.7608C60.153 12.1424 60.196 12.5252 60.227 12.9093C59.7824 12.5687 59.311 12.2648 58.8173 12.0005C58.7163 10.824 58.4339 9.67022 57.9801 8.58008H57.9765ZM4.15509 43.1885C4.11931 43.1348 4.08711 43.0776 4.05491 43.0239C4.32696 43.3252 4.61478 43.6118 4.91717 43.8826C5.84076 45.0388 6.8592 46.1159 7.96191 47.1027C6.44698 46.0621 5.15315 44.7318 4.15509 43.1885ZM15.1069 50.448C15.1292 50.4306 15.1472 50.4083 15.1596 50.3829C15.172 50.3575 15.1785 50.3295 15.1785 50.3013C15.1785 50.273 15.172 50.2451 15.1596 50.2196C15.1472 50.1942 15.1292 50.172 15.1069 50.1546C16.0552 50.3014 17.0106 50.3982 17.9691 50.4444C17.0174 50.473 16.0621 50.4694 15.1069 50.448ZM53.0319 33.4317C52.1752 32.5824 51.2607 31.7933 50.2949 31.0704C50.2377 31.0274 50.1625 31.0954 50.2162 31.1527C51.0397 32.0299 51.9232 32.8488 52.8602 33.6035H52.8853C52.3021 34.3191 51.701 35.0346 51.0963 35.7001C50.2305 34.9845 49.3074 34.3226 48.3808 33.6715C48.3593 33.6715 48.3307 33.6715 48.3521 33.7001C49.1929 34.4443 50.0373 35.1992 50.9353 35.8754C50.7064 36.1259 50.4738 36.3692 50.2377 36.6089C49.6258 37.2421 48.9854 37.8468 48.3378 38.4371C47.3012 37.7424 46.2262 37.107 45.1178 36.5337C45.0677 36.5051 45.0033 36.5802 45.0569 36.6124C46.0623 37.3243 47.1062 37.9801 48.184 38.5767C47.0141 39.632 45.79 40.6256 44.5167 41.5534C43.2593 40.8272 41.9594 40.1773 40.624 39.6071C40.599 39.6071 40.5811 39.625 40.6061 39.6393C41.8031 40.3955 43.0431 41.0812 44.3199 41.693C41.4766 43.7305 38.4125 45.4408 35.1857 46.7914L34.2376 47.1492C34.2287 47.1325 34.2165 47.1179 34.2018 47.1062C32.6061 46.2046 30.9531 45.4032 29.3109 44.6018C29.3047 44.5969 29.2976 44.5934 29.29 44.5916C29.2823 44.5898 29.2744 44.5896 29.2667 44.5912C29.259 44.5928 29.2517 44.596 29.2455 44.6007C29.2392 44.6054 29.234 44.6114 29.2303 44.6183C29.2265 44.6253 29.2244 44.6329 29.2239 44.6407C29.2235 44.6486 29.2247 44.6564 29.2277 44.6637C29.2306 44.671 29.2351 44.6775 29.2408 44.6829C29.2465 44.6883 29.2533 44.6923 29.2608 44.6948C30.8315 45.5642 32.3986 46.4515 34.0157 47.235C32.9996 47.5952 31.9716 47.922 30.9316 48.2154C30.9227 48.1927 30.9063 48.1738 30.8851 48.1617C29.3413 47.2672 27.7424 46.4714 26.098 45.7789C26.0947 45.7767 26.091 45.7755 26.0871 45.7753C26.0832 45.7751 26.0794 45.776 26.076 45.7779C26.0725 45.7797 26.0697 45.7824 26.0677 45.7857C26.0657 45.7891 26.0646 45.7929 26.0646 45.7968C26.0646 45.8006 26.0657 45.8044 26.0677 45.8078C26.0697 45.8111 26.0725 45.8138 26.076 45.8157C26.0794 45.8175 26.0832 45.8184 26.0871 45.8182C26.091 45.818 26.0947 45.8168 26.098 45.8147C27.5847 46.7297 29.1247 47.5553 30.7098 48.2869C29.2321 48.6984 27.7316 49.0233 26.216 49.2601C23.9847 49.5877 21.7304 49.7337 19.4754 49.6966C19.4658 49.6821 19.4521 49.6709 19.436 49.6644C18.2232 49.0025 16.9316 48.4801 15.6578 47.9291C15.6292 47.9291 15.6078 47.9542 15.6364 47.9685C16.7491 48.5589 17.8618 49.1814 19.0174 49.693C18.049 49.6787 17.0782 49.6501 16.1051 49.6072H16.0872C15.1176 48.9238 14.1265 48.2655 13.1426 47.6C13.1176 47.6 13.0854 47.6 13.1104 47.6322C14.0085 48.2977 14.8993 48.9667 15.8188 49.6143L13.0711 49.4855C11.9977 48.5302 10.8349 47.6644 9.72579 46.7413C9.72152 46.737 9.71572 46.7346 9.70968 46.7346C9.70365 46.7346 9.69786 46.737 9.69359 46.7413C9.68932 46.7456 9.68692 46.7514 9.68692 46.7574C9.68692 46.7635 9.68932 46.7692 9.69359 46.7735C10.6954 47.6608 11.6578 48.5946 12.6739 49.4641H12.6167C12.0478 49.2708 11.4932 49.0526 10.953 48.8165C10.0621 47.8648 9.10682 46.9667 8.18731 46.0436C8.18731 46.0436 8.14796 46.0436 8.16228 46.0651C8.93867 46.9059 9.69716 47.7753 10.4914 48.6054C10.2124 48.4766 9.94046 48.337 9.66854 48.1903C8.27983 47.1061 6.98266 45.9094 5.79017 44.6125C7.13995 45.615 8.67251 46.3442 10.3018 46.7592C15.5255 48.1009 21.3144 46.9417 26.3842 45.439C36.2202 42.4965 44.9847 36.7497 51.6044 28.9022C52.3987 27.9505 53.1786 26.9666 53.9121 25.9469C54.5633 26.548 55.218 27.1455 55.905 27.7036C55.9944 27.7752 56.1196 27.6607 56.0302 27.5784C55.3611 26.9881 54.6563 26.4371 53.955 25.8897C54.5633 25.0417 55.1393 24.1687 55.6724 23.2743C56.1304 23.6929 56.6026 24.1007 57.0856 24.4764C57.1787 24.548 57.3075 24.4371 57.2144 24.3476C56.7529 23.9254 56.2627 23.514 55.7618 23.124C56.5506 21.7966 57.2199 20.4017 57.7619 18.9558C58.2595 19.4504 58.7995 19.9005 59.3755 20.3011C59.4828 20.3762 59.6331 20.2546 59.5221 20.1544C58.9843 19.6771 58.4061 19.2473 57.794 18.8699C58.0492 18.1753 58.2654 17.467 58.4416 16.7483C58.7884 17.0683 59.1553 17.3659 59.54 17.6392C59.6509 17.7179 59.8048 17.5891 59.6903 17.4853C59.3097 17.153 58.9068 16.847 58.4846 16.5694C58.5239 16.3941 58.5704 16.2116 58.6062 16.0435C58.7102 15.5375 58.7867 15.0264 58.8352 14.5121C59.1706 14.9467 59.5629 15.3342 60.0016 15.6642C60.1161 15.7429 60.3164 15.6427 60.2162 15.4996C59.8293 15.01 59.3738 14.5786 58.8638 14.2188C58.9175 13.5353 58.9175 12.8486 58.8638 12.1651C59.2997 12.6135 59.7791 13.0174 60.2949 13.3708C60.7314 20.6124 57.5543 27.7287 53.0284 33.4246L53.0319 33.4317Z" fill="url(#paint12_linear_50_3556)" stroke="url(#paint13_linear_50_3556)" stroke-width="0.5"/>
<path id="Vector_8" d="M47.5684 2.58346C34.5486 1.63176 21.4037 7.27759 12.6988 16.8948C10.2683 19.5802 8.18626 22.5614 6.50195 25.7679C6.50195 25.7893 6.52342 25.8036 6.53415 25.7857C9.61741 20.1216 13.9012 15.1996 19.0857 11.3642C24.2702 7.52882 30.2302 4.87268 36.5486 3.58168C40.184 2.88497 43.8887 2.61838 47.5863 2.7874C47.7365 2.78382 47.6972 2.5942 47.5684 2.58346Z" fill="url(#paint14_linear_50_3556)" stroke="url(#paint15_linear_50_3556)" stroke-width="0.5"/>
<path id="Vector_9" d="M5.49726 27.9002C3.6332 31.5925 2.73516 36.1292 4.56701 40.0148C6.09117 43.2599 9.57599 45.8753 13.2862 45.4459C13.2982 45.4485 13.3106 45.4483 13.3225 45.4454C13.3344 45.4426 13.3456 45.4371 13.3551 45.4294C13.3646 45.4217 13.3723 45.4119 13.3776 45.4008C13.3828 45.3898 13.3856 45.3777 13.3856 45.3654C13.3856 45.3532 13.3828 45.3411 13.3776 45.33C13.3723 45.3189 13.3646 45.3092 13.3551 45.3015C13.3456 45.2938 13.3344 45.2883 13.3225 45.2854C13.3106 45.2825 13.2982 45.2824 13.2862 45.2849C9.52232 45.496 6.09475 43.0237 4.63499 39.6105C3.01423 35.8788 3.7298 31.4494 5.51872 27.9074C5.51872 27.8966 5.51872 27.8931 5.49726 27.9002Z" fill="url(#paint16_linear_50_3556)" stroke="url(#paint17_linear_50_3556)" stroke-width="0.5"/>
<path id="Vector_10" d="M30.4442 42.2156C25.8908 44.0907 21.1062 45.3459 16.2188 45.9473C25.3136 45.0708 34.1079 41.5931 41.5141 36.2872C45.2288 33.6198 48.5776 30.4767 51.4748 26.9383C54.634 23.0599 57.3711 18.4874 57.3389 13.3425C57.3737 10.7652 56.5196 8.25463 54.9202 6.23333C53.3853 4.38001 51.1814 3.06694 48.752 2.92383C48.6447 2.92383 48.6376 3.08841 48.752 3.09557C53.761 3.57142 56.9524 8.15105 57.1421 12.9203C57.3531 18.1368 54.5553 22.813 51.371 26.7236C45.7782 33.5327 38.5895 38.8544 30.4442 42.2156Z" fill="url(#paint18_linear_50_3556)" stroke="url(#paint19_linear_50_3556)" stroke-width="0.5"/>
</g>
<defs>
<linearGradient id="paint0_linear_50_3556" x1="19.6738" y1="47.7587" x2="23.0812" y2="48.0186" gradientUnits="userSpaceOnUse">
<stop stop-color="#1764DB"/>
<stop offset="1" stop-color="#80E39B"/>
</linearGradient>
<linearGradient id="paint1_linear_50_3556" x1="19.6738" y1="47.7587" x2="23.0812" y2="48.0186" gradientUnits="userSpaceOnUse">
<stop stop-color="#1764DB"/>
<stop offset="1" stop-color="#80E39B"/>
</linearGradient>
<linearGradient id="paint2_linear_50_3556" x1="22.7598" y1="46.9647" x2="26.8183" y2="47.3542" gradientUnits="userSpaceOnUse">
<stop stop-color="#1764DB"/>
<stop offset="1" stop-color="#80E39B"/>
</linearGradient>
<linearGradient id="paint3_linear_50_3556" x1="22.7598" y1="46.9647" x2="26.8183" y2="47.3542" gradientUnits="userSpaceOnUse">
<stop stop-color="#1764DB"/>
<stop offset="1" stop-color="#80E39B"/>
</linearGradient>
<linearGradient id="paint4_linear_50_3556" x1="33.5" y1="43.7245" x2="36.7914" y2="43.9218" gradientUnits="userSpaceOnUse">
<stop stop-color="#1764DB"/>
<stop offset="1" stop-color="#80E39B"/>
</linearGradient>
<linearGradient id="paint5_linear_50_3556" x1="33.5" y1="43.7245" x2="36.7914" y2="43.9218" gradientUnits="userSpaceOnUse">
<stop stop-color="#1764DB"/>
<stop offset="1" stop-color="#80E39B"/>
</linearGradient>
<linearGradient id="paint6_linear_50_3556" x1="37.2695" y1="42.2873" x2="40.4538" y2="42.5203" gradientUnits="userSpaceOnUse">
<stop stop-color="#1764DB"/>
<stop offset="1" stop-color="#80E39B"/>
</linearGradient>
<linearGradient id="paint7_linear_50_3556" x1="37.2695" y1="42.2873" x2="40.4538" y2="42.5203" gradientUnits="userSpaceOnUse">
<stop stop-color="#1764DB"/>
<stop offset="1" stop-color="#80E39B"/>
</linearGradient>
<linearGradient id="paint8_linear_50_3556" x1="51.9941" y1="28.9637" x2="54.4466" y2="29.0837" gradientUnits="userSpaceOnUse">
<stop stop-color="#1764DB"/>
<stop offset="1" stop-color="#80E39B"/>
</linearGradient>
<linearGradient id="paint9_linear_50_3556" x1="51.9941" y1="28.9637" x2="54.4466" y2="29.0837" gradientUnits="userSpaceOnUse">
<stop stop-color="#1764DB"/>
<stop offset="1" stop-color="#80E39B"/>
</linearGradient>
<linearGradient id="paint10_linear_50_3556" x1="57.5234" y1="21.2188" x2="59.0229" y2="21.3197" gradientUnits="userSpaceOnUse">
<stop stop-color="#1764DB"/>
<stop offset="1" stop-color="#80E39B"/>
</linearGradient>
<linearGradient id="paint11_linear_50_3556" x1="57.5234" y1="21.2188" x2="59.0229" y2="21.3197" gradientUnits="userSpaceOnUse">
<stop stop-color="#1764DB"/>
<stop offset="1" stop-color="#80E39B"/>
</linearGradient>
<linearGradient id="paint12_linear_50_3556" x1="1" y1="12.3489" x2="55.9837" y2="15.356" gradientUnits="userSpaceOnUse">
<stop stop-color="#1764DB"/>
<stop offset="1" stop-color="#80E39B"/>
</linearGradient>
<linearGradient id="paint13_linear_50_3556" x1="1" y1="12.3489" x2="55.9837" y2="15.356" gradientUnits="userSpaceOnUse">
<stop stop-color="#1764DB"/>
<stop offset="1" stop-color="#80E39B"/>
</linearGradient>
<linearGradient id="paint14_linear_50_3556" x1="6.50195" y1="7.77821" x2="44.1099" y2="10.8018" gradientUnits="userSpaceOnUse">
<stop stop-color="#1764DB"/>
<stop offset="1" stop-color="#80E39B"/>
</linearGradient>
<linearGradient id="paint15_linear_50_3556" x1="6.50195" y1="7.77821" x2="44.1099" y2="10.8018" gradientUnits="userSpaceOnUse">
<stop stop-color="#1764DB"/>
<stop offset="1" stop-color="#80E39B"/>
</linearGradient>
<linearGradient id="paint16_linear_50_3556" x1="3.56445" y1="31.8955" x2="12.5856" y2="32.1247" gradientUnits="userSpaceOnUse">
<stop stop-color="#1764DB"/>
<stop offset="1" stop-color="#80E39B"/>
</linearGradient>
<linearGradient id="paint17_linear_50_3556" x1="3.56445" y1="31.8955" x2="12.5856" y2="32.1247" gradientUnits="userSpaceOnUse">
<stop stop-color="#1764DB"/>
<stop offset="1" stop-color="#80E39B"/>
</linearGradient>
<linearGradient id="paint18_linear_50_3556" x1="16.2187" y1="12.7019" x2="53.9432" y2="14.3431" gradientUnits="userSpaceOnUse">
<stop stop-color="#1764DB"/>
<stop offset="1" stop-color="#80E39B"/>
</linearGradient>
<linearGradient id="paint19_linear_50_3556" x1="16.2187" y1="12.7019" x2="53.9432" y2="14.3431" gradientUnits="userSpaceOnUse">
<stop stop-color="#1764DB"/>
<stop offset="1" stop-color="#80E39B"/>
</linearGradient>
</defs>
</svg>
