<svg width="158" height="74" viewBox="0 0 158 74" fill="none" xmlns="http://www.w3.org/2000/svg">
<g id="Group 6693">
<g id="Group 6626">
<path id="Vector" d="M33.0592 53.7932C33.0592 53.7932 32.935 53.9219 32.6377 54.1012C32.1991 54.3653 31.7437 54.6006 31.2745 54.8056C29.4725 55.6269 27.5522 56.1587 25.5844 56.3813C22.437 56.7762 19.241 56.3529 16.3049 55.1525C12.3632 53.4919 9.23511 50.3443 7.59918 46.3923C6.61293 44.1036 6.21489 41.6046 6.44125 39.1228C6.77007 36.4508 7.73286 33.8961 9.24935 31.6717C12.5212 26.884 16.6335 22.7288 21.3869 19.4075C26.6545 15.757 32.5419 13.0946 38.7619 11.5503C39.5675 11.3246 40.3845 11.1421 41.2096 11.0036C42.026 10.853 42.8547 10.6769 43.6906 10.5512C45.3696 10.3504 47.0575 10.1146 48.7709 10.0713C52.2532 9.88214 55.7457 10.0892 59.1812 10.6884C64.0638 11.349 68.7269 13.1319 72.8048 15.8973C74.7809 17.2637 76.4551 19.0216 77.7234 21.0621C78.9916 23.1025 79.827 25.3819 80.1775 27.7587C80.4853 30.0782 80.1569 32.4378 79.2274 34.5852C78.29 36.6153 76.9342 38.4244 75.2488 39.8939C72.0961 42.4889 68.5873 44.618 64.8298 46.2161C58.5452 49.1781 51.9778 51.4985 45.2274 53.1422C44.5956 53.2626 44.0281 53.6061 43.6285 54.1102C43.2211 54.6624 42.8602 55.2475 42.5497 55.8595L40.6006 59.3481L36.4566 66.3804L36.0557 60.2328L35.8492 56.6467C35.7512 55.6685 35.7367 54.6836 35.806 53.7029C36.0379 54.6592 36.1803 55.6351 36.2313 56.6178C36.4 58.2657 36.6211 60.7224 36.9816 63.904L37.9328 62.0937L39.6624 58.8842L41.5915 55.339C41.9227 54.6697 42.3056 54.0273 42.7369 53.4177C42.996 53.0734 43.3168 52.7802 43.6829 52.5531C44.0519 52.3408 44.4464 52.1764 44.857 52.064C51.5126 50.3349 57.9853 47.9662 64.1848 44.991C67.7968 43.4129 71.1679 41.3327 74.1983 38.8121C75.7264 37.4774 76.953 35.8329 77.7967 33.9877C78.6093 32.0841 78.8868 29.9948 78.5994 27.9451C78.2713 25.7829 77.5033 23.7108 76.343 21.857C75.1827 20.0032 73.6547 18.4069 71.8533 17.1668C67.9712 14.5368 63.5347 12.8379 58.8888 12.2023C55.5635 11.6271 52.1842 11.4266 48.8142 11.6045C47.1512 11.6405 45.5138 11.8691 43.8819 12.0533C43.0776 12.1784 42.2773 12.3445 41.4763 12.479C40.6754 12.6135 39.8817 12.7985 39.1074 13.0084C33.0727 14.4865 27.3534 17.039 22.2232 20.5438C17.5986 23.7311 13.5806 27.7188 10.3584 32.3192C8.93059 34.3593 8.00883 36.7099 7.66936 39.1767C7.42955 41.4593 7.76324 43.7656 8.64018 45.8866C10.1065 49.6274 12.9811 52.6442 16.6469 54.2892C19.4339 55.5031 22.4819 55.9946 25.5092 55.7184C27.4334 55.5659 29.327 55.1467 31.1357 54.4728C31.7622 54.2069 32.4046 53.9799 33.0592 53.7932Z" fill="url(#paint0_linear_68_17569)" stroke="url(#paint1_linear_68_17569)"/>
<path id="Vector_2" d="M24.082 36.6132C24.0453 36.5095 24.2671 36.3569 24.682 36.2103C25.3026 35.987 25.9731 35.9411 26.6184 36.0776C27.1568 36.1908 27.6381 36.4902 27.9777 36.923C28.3531 37.4494 28.5109 38.1003 28.4182 38.7401C28.3212 39.3976 28.033 40.012 27.5896 40.5071C27.1023 41.0452 26.4436 41.3979 25.7256 41.5051C25.0535 41.6258 24.3607 41.5473 23.7327 41.2792C23.1047 41.0112 22.5688 40.5652 22.191 39.9964C21.8636 39.4586 21.7399 38.8211 21.8426 38.1999C21.9314 37.6966 22.1534 37.2263 22.4856 36.8379C22.7018 36.5644 22.9772 36.3436 23.2912 36.1923C23.6052 36.0409 23.9495 35.9629 24.2981 35.9641C24.7984 35.9995 25.0015 36.214 24.9716 36.3095C24.9417 36.4049 24.6887 36.4094 24.3787 36.5826C23.9455 36.7718 23.5875 37.0998 23.3612 37.5148C23.1973 37.7667 23.1128 38.0621 23.1187 38.3625C23.1247 38.663 23.2207 38.9548 23.3945 39.2C23.6386 39.4915 23.955 39.7137 24.3121 39.8444C24.6691 39.9751 25.0542 40.0098 25.4288 39.9448C25.8008 39.8901 26.145 39.7164 26.4099 39.4497C26.6603 39.1903 26.8359 38.8681 26.9182 38.5171C27.0022 38.2493 26.9806 37.9595 26.8579 37.7071C26.7352 37.4547 26.5207 37.2588 26.2582 37.1594C25.7733 36.9734 25.2624 36.8641 24.7438 36.8354C24.3444 36.7856 24.0998 36.7236 24.082 36.6132Z" fill="url(#paint2_linear_68_17569)" stroke="url(#paint3_linear_68_17569)"/>
<path id="Vector_3" d="M41.1702 31.0948C41.1369 31.0005 41.2117 30.762 41.5727 30.4329C42.1097 29.9791 42.7673 29.6915 43.4651 29.6052C43.9919 29.5245 44.5304 29.5746 45.0332 29.7511C45.361 29.8889 45.6522 30.101 45.8837 30.3708C46.1153 30.6406 46.2809 30.9606 46.3673 31.3054C46.5331 32.0302 46.4238 32.7907 46.0607 33.4395C45.7351 34.0407 45.2969 34.5736 44.7699 35.0092C44.2394 35.4779 43.6115 35.8229 42.9315 36.0194C42.5509 36.1248 42.1503 36.1363 41.7643 36.0529C41.3783 35.9695 41.0183 35.7936 40.7152 35.5403C40.4605 35.3078 40.2546 35.0269 40.1094 34.7141C39.9643 34.4012 39.8828 34.0625 39.8698 33.7179C39.8329 33.1868 39.9381 32.6555 40.1744 32.1785C40.4898 31.5713 40.9442 31.0473 41.5007 30.6493C41.8689 30.3707 42.1107 30.2746 42.1912 30.3523C42.2717 30.4299 42.178 30.6751 41.9634 31.0585C41.6634 31.5486 41.4212 32.072 41.2417 32.618C41.1464 32.9322 41.1328 33.2656 41.2022 33.5865C41.2447 33.9064 41.4084 34.1979 41.6595 34.4006C41.7884 34.4796 41.9334 34.5283 42.0837 34.5431C42.2341 34.558 42.3859 34.5386 42.5276 34.4863C42.9682 34.3399 43.3718 34.0996 43.7106 33.782C44.5235 33.0811 45.0253 32.3099 44.8869 31.6482C44.8726 31.5077 44.825 31.3725 44.7481 31.254C44.6712 31.1355 44.5671 31.037 44.4446 30.9666C44.1454 30.822 43.8178 30.7458 43.4854 30.7434C42.1497 30.6851 41.3129 31.2883 41.1702 31.0948Z" fill="url(#paint4_linear_68_17569)" stroke="url(#paint5_linear_68_17569)"/>
<path id="Vector_4" d="M61.8372 25.5951C61.8039 25.5008 62.044 25.3099 62.5604 25.1805C63.31 25.0182 64.0925 25.1158 64.7793 25.457C65.3591 25.7546 65.8263 26.2329 66.1101 26.8196C66.3939 27.4062 66.479 28.0694 66.3524 28.7087C66.2518 29.1019 66.0683 29.469 65.8144 29.7855C65.5604 30.1021 65.2418 30.3607 64.8798 30.5442C64.1957 30.8945 63.4374 31.0752 62.6689 31.0708C62.2689 31.0813 61.8695 31.033 61.4835 30.9275C60.9847 30.7954 60.5563 30.4755 60.2878 30.0349C60.1069 29.6797 59.9986 29.292 59.9692 28.8945C59.9398 28.4969 59.99 28.0975 60.1167 27.7196C60.4632 26.5828 61.2407 25.6267 62.283 25.0557C62.9523 24.6793 63.7215 24.5187 64.4855 24.5957C65.012 24.6748 65.265 24.8506 65.2445 24.9427C65.2174 25.1962 64.1019 25.0707 62.8979 26.0157C62.206 26.5216 61.7141 27.2548 61.5086 28.0869C61.4006 28.4676 61.428 28.874 61.5861 29.2368C61.6227 29.3405 61.6926 29.3582 61.8801 29.4086C62.1217 29.4675 62.37 29.4938 62.6185 29.4871C63.0643 29.547 63.5177 29.4708 63.9194 29.2683C64.3211 29.0658 64.6521 28.7466 64.869 28.3525C64.9401 28.005 64.9098 27.6443 64.7816 27.3135C64.6534 26.9827 64.4329 26.6957 64.1462 26.4868C63.6597 26.147 63.096 25.9342 62.5063 25.8677C62.124 25.7164 61.8705 25.6894 61.8372 25.5951Z" fill="url(#paint6_linear_68_17569)" stroke="url(#paint7_linear_68_17569)"/>
</g>
<g id="Group 6627">
<path id="Vector_5" d="M115.511 43.8755C115.511 43.8755 115.392 43.887 115.164 43.8492C114.828 43.7934 114.496 43.7157 114.169 43.6166C112.902 43.2535 111.7 42.6927 110.607 41.9547C108.843 40.7942 107.408 39.1984 106.44 37.3214C105.162 34.7768 104.939 31.831 105.819 29.1229C106.309 27.5378 107.188 26.1005 108.375 24.9418C109.697 23.731 111.288 22.8537 113.018 22.383C116.744 21.3733 120.622 21.0471 124.465 21.4202C128.71 21.8489 132.841 23.0458 136.658 24.9526C137.163 25.1865 137.656 25.4473 138.134 25.7338C138.612 26.0105 139.108 26.2795 139.585 26.5772C140.522 27.2013 141.479 27.8115 142.365 28.5303C144.21 29.9398 145.889 31.5543 147.369 33.3427C149.556 35.7877 151.146 38.7062 152.015 41.869C152.425 43.415 152.513 45.0288 152.273 46.6101C152.033 48.1915 151.471 49.7066 150.621 51.0615C149.774 52.369 148.588 53.4217 147.189 54.1071C145.837 54.7298 144.368 55.0597 142.88 55.0752C140.162 55.0262 137.465 54.5875 134.872 53.7724C130.409 52.5555 126.081 50.8915 121.953 48.8058C121.581 48.5936 121.145 48.5222 120.725 48.6047C120.28 48.7082 119.844 48.8485 119.423 49.0241L116.928 49.9479L111.79 51.7171L114.244 48.4312L115.69 46.5263C116.063 45.9886 116.481 45.4837 116.94 45.0171C116.644 45.6016 116.295 46.1572 115.896 46.6768C115.269 47.5841 114.319 48.9235 113.126 50.6902L114.39 50.1848L116.653 49.3074L119.162 48.3463C119.619 48.1506 120.091 47.9909 120.573 47.8687C120.853 47.8064 121.142 47.7966 121.426 47.8399C121.704 47.8918 121.975 47.9792 122.231 48.0998C126.349 50.1012 130.65 51.6999 135.075 52.8733C137.586 53.6356 140.192 54.0396 142.816 54.0734C144.166 54.0582 145.498 53.7557 146.723 53.1862C147.957 52.5736 149.001 51.6358 149.741 50.4737C150.51 49.2371 151.017 47.8561 151.23 46.416C151.444 44.9758 151.361 43.5071 150.985 42.1005C150.156 39.0908 148.644 36.3129 146.567 33.9828C145.132 32.2542 143.507 30.6919 141.724 29.3252C140.867 28.6247 139.939 28.0326 139.033 27.4204C138.572 27.1361 138.095 26.8743 137.631 26.5962C137.167 26.318 136.685 26.0686 136.203 25.8402C132.508 23.98 128.509 22.8001 124.397 22.357C120.678 21.9717 116.919 22.2539 113.299 23.1903C111.695 23.606 110.212 24.3977 108.974 25.4999C107.866 26.552 107.038 27.8639 106.565 29.3169C105.69 31.8447 105.842 34.6147 106.986 37.0322C107.873 38.8515 109.204 40.4179 110.856 41.5867C111.896 42.3412 113.036 42.9475 114.243 43.3881C114.675 43.5243 115.098 43.6871 115.511 43.8755Z" fill="url(#paint8_linear_68_17569)" stroke="url(#paint9_linear_68_17569)"/>
<path id="Vector_6" d="M118.393 31.2974C118.419 31.2291 118.598 31.2477 118.871 31.3528C119.282 31.508 119.641 31.7746 119.909 32.1227C120.133 32.4127 120.247 32.7723 120.232 33.1383C120.194 33.567 119.993 33.9648 119.669 34.2487C119.336 34.5397 118.924 34.7262 118.486 34.7851C118.007 34.847 117.521 34.7408 117.111 34.4847C116.718 34.2553 116.401 33.9161 116.199 33.5089C115.997 33.1017 115.919 32.6443 115.973 32.193C116.04 31.7791 116.253 31.403 116.573 31.1328C116.836 30.9163 117.152 30.7742 117.488 30.7211C117.715 30.6761 117.95 30.6834 118.175 30.7425C118.399 30.8016 118.607 30.9109 118.783 31.0622C119.021 31.2964 119.031 31.4928 118.975 31.5282C118.918 31.5636 118.788 31.4565 118.557 31.4102C118.255 31.3187 117.932 31.33 117.638 31.4424C117.447 31.4991 117.276 31.6121 117.149 31.7668C117.022 31.9215 116.945 32.1107 116.927 32.31C116.924 32.5631 116.989 32.8124 117.113 33.0329C117.237 33.2534 117.417 33.4374 117.635 33.5665C117.847 33.6995 118.096 33.7604 118.346 33.7399C118.585 33.7168 118.813 33.6295 119.006 33.4874C119.164 33.3881 119.279 33.2321 119.326 33.0512C119.373 32.8704 119.349 32.6785 119.259 32.5147C119.094 32.2109 118.882 31.9347 118.632 31.696C118.451 31.4982 118.354 31.361 118.393 31.2974Z" fill="url(#paint10_linear_68_17569)" stroke="url(#paint11_linear_68_17569)"/>
<path id="Vector_7" d="M129.43 35.8892C129.453 35.8271 129.594 35.7386 129.919 35.7281C130.387 35.7304 130.845 35.8691 131.235 36.127C131.537 36.3139 131.788 36.572 131.966 36.8787C132.073 37.0902 132.128 37.3235 132.129 37.5601C132.13 37.7968 132.075 38.0304 131.97 38.2424C131.74 38.681 131.356 39.0188 130.892 39.1903C130.467 39.354 130.015 39.4344 129.56 39.4271C129.089 39.4351 128.622 39.3384 128.193 39.1439C127.954 39.0328 127.746 38.8655 127.587 38.6564C127.428 38.4472 127.321 38.2026 127.278 37.9434C127.249 37.7155 127.266 37.4843 127.328 37.2631C127.39 37.042 127.495 36.8353 127.637 36.6552C127.848 36.3704 128.131 36.1468 128.457 36.0074C128.879 35.8363 129.336 35.7675 129.789 35.8065C130.096 35.8246 130.26 35.8805 130.267 35.9546C130.275 36.0287 130.121 36.1123 129.847 36.2137C129.483 36.3322 129.134 36.4925 128.807 36.6913C128.623 36.8092 128.472 36.9721 128.369 37.1646C128.252 37.345 128.209 37.5633 128.248 37.7745C128.279 37.8702 128.332 37.9575 128.401 38.03C128.471 38.1025 128.556 38.1583 128.651 38.1931C128.937 38.3094 129.245 38.3622 129.554 38.3479C130.269 38.3444 130.856 38.1708 131.072 37.776C131.126 37.6986 131.16 37.6097 131.172 37.5164C131.184 37.4231 131.174 37.3283 131.143 37.2397C131.054 37.0372 130.921 36.8569 130.754 36.7121C130.103 36.1052 129.418 36.0489 129.43 35.8892Z" fill="url(#paint12_linear_68_17569)" stroke="url(#paint13_linear_68_17569)"/>
<path id="Vector_8" d="M142.271 42.039C142.295 41.9768 142.499 41.984 142.816 42.1417C143.266 42.3836 143.62 42.7712 143.82 43.2408C143.985 43.6421 144.015 44.0862 143.905 44.506C143.795 44.9257 143.552 45.2982 143.211 45.5672C142.99 45.7228 142.739 45.8293 142.473 45.8798C142.208 45.9303 141.935 45.9235 141.672 45.8599C141.174 45.7416 140.712 45.5053 140.325 45.1709C140.118 45.0033 139.937 44.8062 139.787 44.5859C139.592 44.3034 139.513 43.9563 139.567 43.6171C139.629 43.3591 139.742 43.116 139.899 42.902C140.056 42.688 140.254 42.5075 140.482 42.3709C141.148 41.9451 141.955 41.7972 142.73 41.9586C143.232 42.0573 143.69 42.3085 144.044 42.6778C144.276 42.9454 144.328 43.1437 144.278 43.1815C144.155 43.2982 143.644 42.7524 142.626 42.7105C142.057 42.6675 141.491 42.8261 141.028 43.1586C140.808 43.3046 140.646 43.5222 140.57 43.7742C140.543 43.8426 140.571 43.8818 140.644 43.9884C140.741 44.1226 140.856 44.2432 140.984 44.3473C141.184 44.5703 141.447 44.7277 141.738 44.7988C142.028 44.8699 142.334 44.8514 142.614 44.7457C142.8 44.6004 142.941 44.4047 143.019 44.1818C143.097 43.9589 143.11 43.7183 143.055 43.4885C142.955 43.1062 142.762 42.7548 142.492 42.4662C142.364 42.2244 142.247 42.1011 142.271 42.039Z" fill="url(#paint14_linear_68_17569)" stroke="url(#paint15_linear_68_17569)"/>
</g>
</g>
<defs>
<linearGradient id="paint0_linear_68_17569" x1="35.3578" y1="12.4934" x2="52.4065" y2="60.7448" gradientUnits="userSpaceOnUse">
<stop stop-color="#49D46F"/>
<stop offset="1" stop-color="#25BE9F"/>
</linearGradient>
<linearGradient id="paint1_linear_68_17569" x1="35.3578" y1="12.4934" x2="52.4065" y2="60.7448" gradientUnits="userSpaceOnUse">
<stop stop-color="#49D46F"/>
<stop offset="1" stop-color="#25BE9F"/>
</linearGradient>
<linearGradient id="paint2_linear_68_17569" x1="24.188" y1="35.8608" x2="26.1507" y2="41.4157" gradientUnits="userSpaceOnUse">
<stop stop-color="#49D46F"/>
<stop offset="1" stop-color="#25BE9F"/>
</linearGradient>
<linearGradient id="paint3_linear_68_17569" x1="24.188" y1="35.8608" x2="26.1507" y2="41.4157" gradientUnits="userSpaceOnUse">
<stop stop-color="#49D46F"/>
<stop offset="1" stop-color="#25BE9F"/>
</linearGradient>
<linearGradient id="paint4_linear_68_17569" x1="42.1652" y1="29.9748" x2="44.1516" y2="35.5969" gradientUnits="userSpaceOnUse">
<stop stop-color="#49D46F"/>
<stop offset="1" stop-color="#25BE9F"/>
</linearGradient>
<linearGradient id="paint5_linear_68_17569" x1="42.1652" y1="29.9748" x2="44.1516" y2="35.5969" gradientUnits="userSpaceOnUse">
<stop stop-color="#49D46F"/>
<stop offset="1" stop-color="#25BE9F"/>
</linearGradient>
<linearGradient id="paint6_linear_68_17569" x1="62.0163" y1="25.0912" x2="64.0612" y2="30.8787" gradientUnits="userSpaceOnUse">
<stop stop-color="#49D46F"/>
<stop offset="1" stop-color="#25BE9F"/>
</linearGradient>
<linearGradient id="paint7_linear_68_17569" x1="62.0163" y1="25.0912" x2="64.0612" y2="30.8787" gradientUnits="userSpaceOnUse">
<stop stop-color="#49D46F"/>
<stop offset="1" stop-color="#25BE9F"/>
</linearGradient>
<linearGradient id="paint8_linear_68_17569" x1="108.446" y1="22.2272" x2="149.998" y2="41.4674" gradientUnits="userSpaceOnUse">
<stop stop-color="#1764DB"/>
<stop offset="1" stop-color="#80E39B"/>
</linearGradient>
<linearGradient id="paint9_linear_68_17569" x1="108.446" y1="22.2272" x2="149.998" y2="41.4674" gradientUnits="userSpaceOnUse">
<stop stop-color="#1764DB"/>
<stop offset="1" stop-color="#80E39B"/>
</linearGradient>
<linearGradient id="paint10_linear_68_17569" x1="116.391" y1="31.0019" x2="120.096" y2="32.6485" gradientUnits="userSpaceOnUse">
<stop stop-color="#1764DB"/>
<stop offset="1" stop-color="#80E39B"/>
</linearGradient>
<linearGradient id="paint11_linear_68_17569" x1="116.391" y1="31.0019" x2="120.096" y2="32.6485" gradientUnits="userSpaceOnUse">
<stop stop-color="#1764DB"/>
<stop offset="1" stop-color="#80E39B"/>
</linearGradient>
<linearGradient id="paint12_linear_68_17569" x1="127.901" y1="35.7513" x2="131.837" y2="37.5131" gradientUnits="userSpaceOnUse">
<stop stop-color="#1764DB"/>
<stop offset="1" stop-color="#80E39B"/>
</linearGradient>
<linearGradient id="paint13_linear_68_17569" x1="127.901" y1="35.7513" x2="131.837" y2="37.5131" gradientUnits="userSpaceOnUse">
<stop stop-color="#1764DB"/>
<stop offset="1" stop-color="#80E39B"/>
</linearGradient>
<linearGradient id="paint14_linear_68_17569" x1="140.194" y1="41.9391" x2="143.887" y2="43.5704" gradientUnits="userSpaceOnUse">
<stop stop-color="#1764DB"/>
<stop offset="1" stop-color="#80E39B"/>
</linearGradient>
<linearGradient id="paint15_linear_68_17569" x1="140.194" y1="41.9391" x2="143.887" y2="43.5704" gradientUnits="userSpaceOnUse">
<stop stop-color="#1764DB"/>
<stop offset="1" stop-color="#80E39B"/>
</linearGradient>
</defs>
</svg>
