<svg width="172" height="28" viewBox="0 0 172 28" fill="none" xmlns="http://www.w3.org/2000/svg">
<path id="Vector" d="M170 15.7756C170 15.7756 170 15.9992 169.79 16.4057C169.482 16.9999 168.98 17.4787 168.361 17.7675C167.292 18.1595 166.111 18.1595 165.042 17.7675C163.657 17.3195 162.342 16.6904 161.134 15.8976C158.382 14.2512 155.44 11.7104 151.826 9.27127C150.988 8.66483 150.05 8.19773 149.053 7.88911L147.414 7.62486C146.868 7.62486 146.343 7.62486 145.797 7.62486C143.463 8.30041 141.495 9.8324 140.313 11.8933C139.536 12.9909 138.758 14.1699 137.855 15.3894C136.884 16.7551 135.623 17.9053 134.157 18.7636C132.423 19.57 130.445 19.7432 128.589 19.2514C126.773 18.6633 125.164 17.5926 123.946 16.1618C121.572 13.5804 120.038 10.4502 117.643 8.45824C117.16 7.98555 116.565 7.63461 115.909 7.43617C115.254 7.23773 114.558 7.19784 113.883 7.31998C113.514 7.36707 113.153 7.46279 112.811 7.60452C112.432 7.7089 112.071 7.86643 111.74 8.07204L110.647 8.66151C110.354 8.85517 110.074 9.06558 109.807 9.29161C108.655 10.5458 107.699 11.9565 106.97 13.4788C106.109 15.1049 105.289 16.8122 104.239 18.5603C103.189 20.6227 101.439 22.2733 99.2807 23.2352C98.6071 23.4702 97.8957 23.5872 97.1797 23.5808C96.5135 23.5233 95.8531 23.4145 95.2047 23.2556L93.5449 22.5238C92.9614 22.2265 92.4297 21.8424 91.9692 21.3856C90.4672 19.753 89.2661 17.8829 88.4185 15.8569C87.5151 14.0072 86.7168 12.1576 85.7713 10.4908C85.0871 8.9822 83.8638 7.76265 82.3257 7.05574C81.6288 6.88873 80.8959 6.93127 80.2247 7.17769C79.4565 7.4257 78.7437 7.81189 78.1237 8.31594C76.8787 9.78589 75.8597 11.4221 75.0983 13.1739C74.1872 15.099 73.1631 16.972 72.0308 18.7838C71.4074 19.7765 70.6515 20.6855 69.7828 21.4872C68.7538 22.4088 67.4544 22.9983 66.064 23.1743C64.7329 23.3221 63.3857 23.1037 62.1772 22.5442C60.9999 21.9712 60.0052 21.1002 59.2988 20.0238C58.2167 18.2 57.3901 16.2451 56.8406 14.2105C56.3096 12.4304 55.6784 10.6798 54.9498 8.96639C54.4082 7.52826 53.3787 6.31016 52.0294 5.51094C50.6238 5.02774 49.0788 5.09335 47.7224 5.69386C46.5878 5.9581 45.6214 7.38092 44.802 8.80375C43.9826 10.2266 43.2473 11.8527 42.4909 13.4178C41.2143 16.7529 39.1994 19.7776 36.5871 22.2799C35.8073 22.9184 34.8874 23.3765 33.8972 23.6195C32.907 23.8625 31.8725 23.884 30.8724 23.6824C29.9638 23.488 29.087 23.1734 28.2672 22.7474C27.4631 22.3013 26.7508 21.7156 26.1662 21.0197C25.1366 19.6955 24.4195 18.1691 24.0652 16.548C23.687 15.0845 23.4769 13.6617 23.2248 12.3608C23.0543 11.1702 22.6779 10.0158 22.1113 8.94604C21.8594 8.54837 21.5031 8.22229 21.0787 8.00095C20.6544 7.77961 20.177 7.67091 19.6952 7.68584C17.475 7.83969 15.3198 8.47905 13.3922 9.5558C10.2158 11.4282 7.64619 14.1255 5.9757 17.3407C4.84766 19.4016 3.86497 21.5339 3.03433 23.7231C2.44605 25.2272 2.13086 26.0199 2.0048 25.9996C1.97279 25.1642 2.10106 24.3303 2.38303 23.5401C2.95963 21.2135 3.76881 18.9466 4.79915 16.7716C6.40962 13.1863 9.06768 10.1343 12.4467 7.99072C14.6392 6.6361 17.1434 5.82619 19.7372 5.63289C20.5576 5.60364 21.3724 5.7745 22.1067 6.12969C22.841 6.48488 23.4711 7.01299 23.9391 7.66549C24.6895 8.92658 25.2151 10.3008 25.4939 11.7307C26.1032 14.4341 26.4604 17.361 28.0991 19.231C28.5096 19.6788 29.0008 20.0508 29.5488 20.3286C30.1339 20.6327 30.7649 20.8453 31.4187 20.9587C32.0285 21.078 32.6589 21.0554 33.2579 20.8928C33.857 20.7302 34.4075 20.4324 34.8643 20.0238C37.068 17.7316 38.7626 15.0267 39.8436 12.0763C40.579 10.5112 41.2933 8.90542 42.1967 7.25901C42.6624 6.3851 43.2111 5.55494 43.8355 4.77923C44.1923 4.33515 44.6013 3.93271 45.0541 3.58C45.5332 3.19974 46.082 2.9101 46.6719 2.72628C47.7305 2.27259 48.8716 2.02644 50.0292 2.00202C51.1868 1.97759 52.3379 2.17537 53.416 2.58398C55.4627 3.66507 57.0535 5.40544 57.9122 7.50291C58.7262 9.32425 59.4278 11.1908 60.0132 13.0926C60.4909 14.8454 61.1969 16.5324 62.1142 18.1131C62.507 18.7063 63.0524 19.1905 63.6969 19.5183C64.3415 19.8462 65.0631 20.0063 65.7909 19.9831C66.9884 19.9831 68.2911 18.6619 69.2996 17.0765C70.3529 15.3607 71.3068 13.5896 72.1569 11.7714C73.0723 9.67936 74.3199 7.73849 75.8546 6.01909C76.3516 5.54434 76.9267 5.1528 77.5564 4.86049C78.114 4.56123 78.6975 4.3096 79.3002 4.10843C80.6516 3.64003 82.1203 3.59029 83.5022 3.96614C84.8193 4.36924 85.9966 5.11458 86.9058 6.12076C87.7149 6.98218 88.4198 7.93005 89.0068 8.94604C90.0993 10.8364 90.9187 12.747 91.7591 14.5357C92.4513 16.2112 93.416 17.7688 94.6165 19.1497C94.8689 19.4008 95.1594 19.6133 95.4779 19.7799L96.5704 20.2677C96.9065 20.2677 97.2637 20.4099 97.5789 20.4302C97.894 20.4506 98.2092 20.4303 98.4823 20.288C99.8989 19.5492 101.038 18.3969 101.739 16.9951C102.705 15.4504 103.525 13.7633 104.449 12.0966C105.321 10.2794 106.491 8.61128 107.916 7.15734C108.35 6.7933 108.806 6.45396 109.281 6.14104L110.647 5.42962C111.101 5.17254 111.589 4.9744 112.097 4.8402C112.6 4.63814 113.131 4.50804 113.672 4.454C114.238 4.39326 114.809 4.39326 115.374 4.454C115.951 4.50935 116.521 4.61826 117.076 4.77923C117.596 4.98352 118.101 5.22114 118.589 5.49059C119.009 5.77516 119.471 6.08007 119.87 6.40529C122.812 9.10865 124.177 12.2592 126.173 14.5357C127.01 15.5827 128.13 16.3848 129.409 16.8529C130.612 17.2056 131.905 17.1408 133.065 16.6699C135.271 15.491 136.783 12.8893 138.506 10.6738C139.281 9.43491 140.302 8.35694 141.51 7.50217C142.718 6.6474 144.089 6.03277 145.544 5.69386C146.28 5.69386 147.015 5.69386 147.645 5.69386L149.746 6.05978C150.959 6.46285 152.09 7.06816 153.087 7.84842C156.764 10.5518 159.495 13.1739 162.037 14.9219C164.579 16.6699 166.827 17.6862 168.34 17.1781C169.853 16.6699 169.853 15.6333 170 15.7756Z" fill="url(#paint0_linear_43_6041)" stroke="url(#paint1_linear_43_6041)" stroke-width="3"/>
<defs>
<linearGradient id="paint0_linear_43_6041" x1="2" y1="7.45455" x2="142.184" y2="52.1195" gradientUnits="userSpaceOnUse">
<stop stop-color="#1764DB"/>
<stop offset="1" stop-color="#80E39B"/>
</linearGradient>
<linearGradient id="paint1_linear_43_6041" x1="2" y1="7.45455" x2="142.184" y2="52.1195" gradientUnits="userSpaceOnUse">
<stop stop-color="#1764DB"/>
<stop offset="1" stop-color="#80E39B"/>
</linearGradient>
</defs>
</svg>
