<svg width="22" height="22" viewBox="0 0 22 22" fill="none" xmlns="http://www.w3.org/2000/svg">
<g id="ph_eye-light 1">
<path id="Vector" d="M21.0958 10.7912C21.0666 10.7241 20.3516 9.13861 18.7549 7.54187C17.2733 6.06204 14.7278 4.29688 10.9999 4.29688C7.27191 4.29688 4.72643 6.06204 3.24486 7.54187C1.64815 9.13861 0.933155 10.7216 0.903936 10.7912C0.874558 10.8572 0.859375 10.9286 0.859375 11.0009C0.859375 11.0731 0.874558 11.1445 0.903936 11.2105C0.933155 11.2767 1.64815 12.8623 3.24486 14.459C4.72643 15.9388 7.27191 17.7031 10.9999 17.7031C14.7278 17.7031 17.2733 15.9388 18.7549 14.459C20.3516 12.8623 21.0666 11.2793 21.0958 11.2105C21.1252 11.1445 21.1404 11.0731 21.1404 11.0009C21.1404 10.9286 21.1252 10.8572 21.0958 10.7912ZM10.9999 16.6719C8.30316 16.6719 5.94847 15.6905 4.00026 13.756C3.18362 12.9444 2.49252 12.0155 1.9498 11C2.49238 9.9847 3.18349 9.05608 4.00026 8.24486C5.94847 6.30955 8.30316 5.32812 10.9999 5.32812C13.6966 5.32812 16.0513 6.30955 17.9995 8.24486C18.8163 9.05608 19.5074 9.9847 20.0499 11C19.5025 12.0493 16.7577 16.6719 10.9999 16.6719ZM10.9999 7.04688C10.218 7.04688 9.45373 7.27873 8.80363 7.71309C8.15356 8.14748 7.64687 8.76486 7.34767 9.4872C7.04847 10.2095 6.97018 11.0044 7.12269 11.7712C7.27524 12.538 7.65174 13.2424 8.2046 13.7953C8.75746 14.3481 9.46182 14.7246 10.2287 14.8772C10.9955 15.0297 11.7903 14.9514 12.5127 14.6522C13.235 14.353 13.8524 13.8463 14.2868 13.1962C14.7212 12.5462 14.953 11.7819 14.953 11C14.9516 9.95197 14.5347 8.94729 13.7936 8.20622C13.0526 7.46518 12.0479 7.04825 10.9999 7.04688ZM10.9999 13.9219C10.422 13.9219 9.85707 13.7505 9.37657 13.4295C8.89606 13.1084 8.52156 12.6521 8.30041 12.1182C8.07925 11.5842 8.02139 10.9968 8.13414 10.43C8.24689 9.86318 8.52517 9.34255 8.93379 8.93393C9.34244 8.5253 9.86304 8.247 10.4298 8.13428C10.9966 8.02153 11.5841 8.07939 12.118 8.30055C12.6519 8.5217 13.1083 8.89619 13.4293 9.3767C13.7504 9.85718 13.9217 10.4221 13.9217 11C13.9217 11.7749 13.6139 12.5181 13.0659 13.0661C12.518 13.614 11.7748 13.9219 10.9999 13.9219Z" fill="#626262"/>
</g>
</svg>
