<svg width="22" height="22" viewBox="0 0 22 22" fill="none" xmlns="http://www.w3.org/2000/svg">
<g id="ph_eye-slash-light 1">
<path id="Vector" d="M4.50644 3.09376C4.41203 3.00614 4.28828 2.95703 4.15948 2.95607C4.03069 2.95511 3.90622 3.00239 3.81052 3.0886C3.71485 3.1748 3.65487 3.2937 3.64244 3.42187C3.63 3.55007 3.66599 3.67827 3.7433 3.78126L5.53769 5.75784C2.33394 7.63987 0.963234 10.6563 0.903937 10.7912C0.874557 10.8572 0.859375 10.9286 0.859375 11.0009C0.859375 11.0731 0.874557 11.1446 0.903937 11.2106C0.933156 11.2767 1.64816 12.8623 3.24488 14.459C4.72644 15.9388 7.27191 17.7031 10.9999 17.7031C12.5581 17.7126 14.0997 17.3827 15.5176 16.7363L17.4942 18.9097C17.5863 19.0109 17.7148 19.0714 17.8514 19.0778C17.9881 19.0843 18.1217 19.0362 18.2229 18.9441C18.3241 18.852 18.3846 18.7235 18.391 18.5868C18.3975 18.4502 18.3494 18.3165 18.2573 18.2153L4.50644 3.09376ZM8.68472 9.22284L12.5519 13.4785C11.9713 13.8413 11.2817 13.9886 10.6035 13.8949C9.92533 13.8012 9.3016 13.4723 8.84116 12.9656C8.38071 12.4589 8.11284 11.8066 8.08424 11.1226C8.05564 10.4385 8.26818 9.76617 8.68472 9.22284ZM10.9999 16.6719C8.30316 16.6719 5.94847 15.6905 4.00027 13.756C3.18343 12.9445 2.49232 12.0156 1.9498 11C2.31847 10.2953 3.67713 7.97673 6.24666 6.53901L7.98261 8.44768C7.36455 9.18006 7.03359 10.112 7.05127 11.0701C7.06896 12.0283 7.43409 12.9474 8.07874 13.6565C8.72341 14.3655 9.60367 14.8163 10.5558 14.9249C11.508 15.0334 12.4671 14.7925 13.2549 14.2467L14.7854 15.9311C13.5855 16.4276 12.2985 16.6794 10.9999 16.6719ZM11.5499 8.1297C11.4155 8.10407 11.2968 8.02609 11.22 7.91296C11.1431 7.79982 11.1143 7.66079 11.1399 7.52643C11.1656 7.39206 11.2436 7.2734 11.3567 7.19652C11.4698 7.11964 11.6089 7.09087 11.7432 7.11651C12.5829 7.27962 13.3473 7.7097 13.9226 8.3426C14.4979 8.97553 14.8533 9.77743 14.9358 10.6288C14.9421 10.6962 14.935 10.7642 14.915 10.8289C14.895 10.8936 14.8624 10.9537 14.8192 11.0058C14.7759 11.058 14.7228 11.101 14.6629 11.1326C14.603 11.1642 14.5375 11.1837 14.47 11.19H14.4219C14.293 11.1905 14.1685 11.1427 14.073 11.056C13.9776 10.9693 13.9181 10.85 13.9063 10.7216C13.845 10.0934 13.5825 9.50181 13.158 9.03481C12.7334 8.56781 12.1694 8.25037 11.5499 8.1297ZM21.0958 11.2106C21.0606 11.2896 20.2046 13.1871 18.2719 14.9162C18.2218 14.9632 18.1628 14.9997 18.0983 15.0235C18.0339 15.0474 17.9653 15.0581 17.8967 15.0551C17.828 15.0521 17.7607 15.0354 17.6986 15.006C17.6365 14.9766 17.5809 14.935 17.5351 14.8838C17.4892 14.8326 17.4541 14.7728 17.4317 14.7078C17.4094 14.6428 17.4002 14.574 17.4048 14.5055C17.4094 14.4369 17.4277 14.37 17.4585 14.3086C17.4894 14.2472 17.5322 14.1925 17.5844 14.1479C18.5834 13.2503 19.4178 12.185 20.0499 11C19.5073 9.98447 18.8162 9.05559 17.9995 8.24401C16.0513 6.30954 13.6966 5.32815 10.9999 5.32815C10.433 5.32738 9.86707 5.37339 9.30777 5.46565C9.24041 5.47834 9.17123 5.47748 9.10423 5.46311C9.0372 5.44876 8.97373 5.42119 8.91751 5.38202C8.86127 5.34283 8.81342 5.29285 8.77674 5.23496C8.74005 5.17709 8.71525 5.11248 8.70385 5.0449C8.69242 4.97732 8.69457 4.90816 8.71019 4.84142C8.72582 4.7747 8.75457 4.71176 8.79481 4.65626C8.83504 4.60078 8.88592 4.55389 8.94449 4.51831C9.00305 4.4827 9.06812 4.45915 9.13589 4.44901C9.75193 4.34668 10.3754 4.29582 10.9999 4.2969C14.7279 4.2969 17.2733 6.06204 18.7549 7.5419C20.3516 9.13862 21.0666 10.7216 21.0958 10.7912C21.1252 10.8572 21.1404 10.9286 21.1404 11.0009C21.1404 11.0731 21.1252 11.1446 21.0958 11.2106Z" fill="#626262"/>
</g>
</svg>
