<svg width="144" height="31" viewBox="0 0 144 31" fill="none" xmlns="http://www.w3.org/2000/svg">
<g id="Group 6728">
<path id="Vector" d="M10.4041 8.69845C10.0482 8.72583 9.69078 8.72583 9.3349 8.69845C8.32001 8.66502 7.30408 8.68266 6.29098 8.75128C5.63596 8.7945 4.90388 8.87134 4.10918 8.9914C3.71424 9.04903 3.29522 9.12107 2.8762 9.20751C2.46623 9.26335 2.08313 9.44263 1.77808 9.72138C1.64241 9.88436 1.54445 10.0752 1.49118 10.2802C1.4379 10.4852 1.43061 10.6994 1.46983 10.9076C1.54728 11.3872 1.72802 11.8443 1.99963 12.2475C2.62556 13.1489 3.41643 13.9245 4.33073 14.5335C5.37709 15.2332 6.36304 16.0187 7.27833 16.8819C7.78753 17.374 8.17786 17.9751 8.4198 18.6397C8.54241 19.0009 8.58674 19.3839 8.54984 19.7635C8.50848 20.124 8.43761 20.4806 8.33792 20.8296C7.97188 22.1743 7.5962 23.5671 7.2109 24.9982C7.02788 25.709 6.79188 26.439 6.65702 27.1497C6.59953 27.4883 6.59953 27.8341 6.65702 28.1727C6.71534 28.4869 6.86431 28.7773 7.08567 29.0083C7.189 29.1127 7.31441 29.1927 7.45273 29.2426C7.59106 29.2925 7.73881 29.3109 7.88518 29.2965C8.2198 29.2492 8.53659 29.1169 8.8051 28.9123C9.41696 28.431 9.9684 27.8779 10.4475 27.265C10.9592 26.6335 11.429 25.9693 11.8538 25.2768C12.0706 24.9262 12.2825 24.5708 12.4848 24.2058C12.6871 23.8408 12.8605 23.4902 13.1013 23.0724C13.2407 22.8312 13.4396 22.6295 13.6792 22.4865C13.9522 22.3355 14.2726 22.2943 14.5751 22.3712C15.0469 22.5258 15.4746 22.791 15.8225 23.1444C16.4679 23.7111 17.1422 24.2586 17.8357 24.7869C19.2324 25.8579 20.7088 26.8212 22.2523 27.6684C22.5724 27.8544 22.9432 27.935 23.3119 27.8989C23.472 27.8628 23.6202 27.7865 23.7424 27.6773C23.8647 27.568 23.9568 27.4294 24.0103 27.2746C24.3137 26.6167 24.044 25.8002 23.7309 24.9934C23.0887 23.3445 22.4755 21.7245 21.8911 20.1333C21.5228 19.3242 21.2948 18.4586 21.2168 17.5735C21.2132 17.1102 21.3044 16.651 21.485 16.2241C21.6655 15.7972 21.9315 15.4115 22.2667 15.0906C22.8745 14.5013 23.5599 13.9972 24.3041 13.5922C24.9791 13.2107 25.6334 12.7939 26.2643 12.3436C26.8645 11.9229 27.3766 11.3895 27.7718 10.7731C28.1407 10.2014 28.3271 9.53163 28.3064 8.85213C28.3116 8.7275 28.2851 8.6036 28.2294 8.49194C28.2294 8.46312 28.1716 8.43431 28.0126 8.42951H26.9386L24.8098 8.46792L20.7689 8.54476C20.4197 8.56688 20.0692 8.53776 19.7285 8.45832C19.3681 8.35591 19.0483 8.14448 18.8134 7.8532C18.4508 7.33114 18.1607 6.76247 17.9513 6.16271C17.4697 5.07254 17.0603 4.03039 16.6509 3.04587C16.4873 2.57801 16.2741 2.12885 16.0151 1.70597C15.9695 1.62719 15.9038 1.56178 15.8248 1.51631C15.7457 1.47083 15.6561 1.44689 15.5648 1.44689C15.4736 1.44689 15.3839 1.47083 15.3049 1.51631C15.2258 1.56178 15.1602 1.62719 15.1145 1.70597C14.8592 2.05872 14.6413 2.43694 14.4643 2.83456C14.2765 3.22357 14.1079 3.60297 13.9538 3.97276C13.6738 4.64629 13.4294 5.33399 13.2217 6.03304C13.0782 6.61232 12.8681 7.17313 12.5956 7.70432C12.3804 8.0975 12.0668 8.42841 11.6853 8.66483C11.4513 8.81103 11.1852 8.89838 10.9098 8.91936C10.8174 8.93483 10.7225 8.92487 10.6353 8.89055C10.9802 8.85039 11.3105 8.72854 11.5986 8.53516C11.9398 8.28628 12.2131 7.95604 12.3933 7.57466C12.6391 7.05369 12.828 6.50786 12.9568 5.9466C13.1429 5.22998 13.3696 4.52448 13.6359 3.83349C13.7804 3.45409 13.9441 3.06028 14.1175 2.66167L14.4113 2.05175C14.5146 1.82518 14.6456 1.61224 14.8014 1.41782C14.8924 1.29838 15.0077 1.19943 15.1396 1.12743C15.2716 1.05543 15.4173 1.01201 15.5672 1C15.7263 1.00184 15.8828 1.04003 16.0248 1.11163C16.1667 1.18323 16.2903 1.28634 16.386 1.41302C16.5548 1.63421 16.6941 1.87637 16.8002 2.1334L17.1133 2.85378C17.5435 3.83349 17.9947 4.86603 18.4667 5.9514C18.6636 6.49527 18.9325 7.01049 19.2662 7.48341C19.4282 7.68428 19.6486 7.83023 19.8971 7.90123C20.184 7.95757 20.4775 7.97374 20.7689 7.94925L24.805 7.82919L26.9338 7.77156L28.0415 7.74274C28.1694 7.74225 28.2964 7.76336 28.4172 7.80518C28.5711 7.85674 28.7044 7.95602 28.7977 8.08853C28.9273 8.29779 28.9956 8.53896 28.9952 8.78489C29.036 9.61353 28.8172 10.4343 28.369 11.1333C27.9313 11.827 27.3639 12.4303 26.6978 12.9103C25.407 13.8996 23.8513 14.4903 22.7821 15.5901C22.5148 15.8425 22.3029 16.1473 22.1595 16.4853C22.0161 16.8233 21.9444 17.1873 21.9489 17.5543C22.029 18.3524 22.2423 19.1315 22.5798 19.8595C23.1867 21.4604 23.8048 23.0804 24.4341 24.7197C24.6119 25.1494 24.749 25.5948 24.8435 26.05C24.95 26.5616 24.9014 27.0932 24.7038 27.5772C24.5902 27.8327 24.4264 28.0629 24.2222 28.2543C24.0038 28.4516 23.7358 28.586 23.4467 28.6433C22.9121 28.7199 22.367 28.6187 21.8959 28.3552C20.3062 27.4819 18.7862 26.488 17.3493 25.3824C16.6429 24.8445 15.9606 24.2842 15.3023 23.7015C15.0496 23.4383 14.7422 23.2334 14.4017 23.1012C14.1271 23.034 13.9489 23.1396 13.7418 23.4614C13.5347 23.7832 13.3469 24.201 13.1398 24.5612C12.9327 24.9214 12.6919 25.3104 12.4751 25.661C12.0283 26.3764 11.5344 27.0615 10.9965 27.7116C10.7316 28.0334 10.4523 28.3456 10.1585 28.6433C9.86482 28.9547 9.54229 29.2377 9.19522 29.4886C8.82031 29.7632 8.38073 29.9369 7.9189 29.9928C7.67188 30.0155 7.42287 29.9843 7.18917 29.9013C6.95546 29.8184 6.74265 29.6857 6.56551 29.5126C6.24231 29.1798 6.02599 28.7584 5.9442 28.3024C5.86677 27.8816 5.86677 27.4504 5.9442 27.0297C6.10314 26.2325 6.33914 25.5409 6.52698 24.8205L7.69253 20.6615C7.92028 20.0765 7.95901 19.4351 7.80331 18.827C7.60205 18.2491 7.27281 17.7238 6.84004 17.2902C5.95884 16.4399 5.00836 15.664 3.99841 14.9705C3.04712 14.3061 2.23011 13.4686 1.59024 12.502C1.29157 12.035 1.0977 11.5091 1.02191 10.9604C0.979802 10.6876 0.99854 10.4088 1.07679 10.144C1.15505 9.87924 1.29089 9.6349 1.47465 9.42843C1.84515 9.09124 2.31113 8.87653 2.80877 8.8137C3.24706 8.73686 3.66608 8.67923 4.07065 8.62641C4.87498 8.53036 5.61669 8.47272 6.28616 8.45351C7.30962 8.41413 8.33457 8.44302 9.35417 8.53996C9.70901 8.55328 10.0612 8.60645 10.4041 8.69845Z" fill="url(#paint0_linear_68_17606)" stroke="url(#paint1_linear_68_17606)" stroke-width="2"/>
<path id="Vector_2" d="M48.4041 8.69845C48.0482 8.72583 47.6908 8.72583 47.3349 8.69845C46.32 8.66502 45.3041 8.68266 44.291 8.75128C43.636 8.7945 42.9039 8.87134 42.1092 8.9914C41.7142 9.04903 41.2952 9.12107 40.8762 9.20751C40.4662 9.26335 40.0831 9.44263 39.7781 9.72138C39.6424 9.88436 39.5445 10.0752 39.4912 10.2802C39.4379 10.4852 39.4306 10.6994 39.4698 10.9076C39.5473 11.3872 39.728 11.8443 39.9996 12.2475C40.6256 13.1489 41.4164 13.9245 42.3307 14.5335C43.3771 15.2332 44.363 16.0187 45.2783 16.8819C45.7875 17.374 46.1779 17.9751 46.4198 18.6397C46.5424 19.0009 46.5867 19.3839 46.5498 19.7635C46.5085 20.124 46.4376 20.4806 46.3379 20.8296C45.9719 22.1743 45.5962 23.5671 45.2109 24.9982C45.0279 25.709 44.7919 26.439 44.657 27.1497C44.5995 27.4883 44.5995 27.8341 44.657 28.1727C44.7153 28.4869 44.8643 28.7773 45.0857 29.0083C45.189 29.1127 45.3144 29.1927 45.4527 29.2426C45.5911 29.2925 45.7388 29.3109 45.8852 29.2965C46.2198 29.2492 46.5366 29.1169 46.8051 28.9123C47.417 28.431 47.9684 27.8779 48.4475 27.265C48.9592 26.6335 49.429 25.9693 49.8538 25.2768C50.0706 24.9262 50.2825 24.5708 50.4848 24.2058C50.6871 23.8408 50.8605 23.4902 51.1013 23.0724C51.2407 22.8312 51.4396 22.6295 51.6792 22.4865C51.9522 22.3355 52.2726 22.2943 52.5751 22.3712C53.0469 22.5258 53.4746 22.791 53.8225 23.1444C54.4679 23.7111 55.1422 24.2586 55.8357 24.7869C57.2324 25.8579 58.7088 26.8212 60.2523 27.6684C60.5724 27.8544 60.9432 27.935 61.3119 27.8989C61.472 27.8628 61.6202 27.7865 61.7424 27.6773C61.8647 27.568 61.9568 27.4294 62.0103 27.2746C62.3137 26.6167 62.044 25.8002 61.7309 24.9934C61.0887 23.3445 60.4755 21.7245 59.8911 20.1333C59.5228 19.3242 59.2948 18.4586 59.2168 17.5735C59.2132 17.1102 59.3044 16.651 59.485 16.2241C59.6655 15.7972 59.9315 15.4115 60.2667 15.0906C60.8745 14.5013 61.5599 13.9972 62.3041 13.5922C62.9791 13.2107 63.6334 12.7939 64.2643 12.3436C64.8645 11.9229 65.3766 11.3895 65.7718 10.7731C66.1407 10.2014 66.3271 9.53163 66.3064 8.85213C66.3116 8.7275 66.2851 8.6036 66.2294 8.49194C66.2294 8.46312 66.1716 8.43431 66.0126 8.42951H64.9386L62.8098 8.46792L58.7689 8.54476C58.4197 8.56688 58.0692 8.53776 57.7285 8.45832C57.3681 8.35591 57.0483 8.14448 56.8134 7.8532C56.4508 7.33114 56.1607 6.76247 55.9513 6.16271C55.4697 5.07254 55.0603 4.03039 54.6509 3.04587C54.4873 2.57801 54.2741 2.12885 54.0151 1.70597C53.9695 1.62719 53.9038 1.56178 53.8248 1.51631C53.7457 1.47083 53.6561 1.44689 53.5648 1.44689C53.4736 1.44689 53.3839 1.47083 53.3049 1.51631C53.2258 1.56178 53.1602 1.62719 53.1145 1.70597C52.8592 2.05872 52.6413 2.43694 52.4643 2.83456C52.2765 3.22357 52.1079 3.60297 51.9538 3.97276C51.6738 4.64629 51.4294 5.33399 51.2217 6.03304C51.0782 6.61232 50.8681 7.17313 50.5956 7.70432C50.3804 8.0975 50.0668 8.42841 49.6853 8.66483C49.4513 8.81103 49.1852 8.89838 48.9098 8.91936C48.8174 8.93483 48.7225 8.92487 48.6353 8.89055C48.9802 8.85039 49.3105 8.72854 49.5986 8.53516C49.9398 8.28628 50.2131 7.95604 50.3933 7.57466C50.6391 7.05369 50.828 6.50786 50.9568 5.9466C51.1429 5.22998 51.3696 4.52448 51.6359 3.83349C51.7804 3.45409 51.9441 3.06028 52.1175 2.66167L52.4113 2.05175C52.5146 1.82518 52.6456 1.61224 52.8014 1.41782C52.8924 1.29838 53.0077 1.19943 53.1396 1.12743C53.2716 1.05543 53.4173 1.01201 53.5672 1C53.7263 1.00184 53.8828 1.04003 54.0248 1.11163C54.1667 1.18323 54.2903 1.28634 54.386 1.41302C54.5548 1.63421 54.6941 1.87637 54.8002 2.1334L55.1133 2.85378C55.5435 3.83349 55.9947 4.86603 56.4667 5.9514C56.6636 6.49527 56.9325 7.01049 57.2662 7.48341C57.4282 7.68428 57.6486 7.83023 57.8971 7.90123C58.184 7.95757 58.4775 7.97374 58.7689 7.94925L62.805 7.82919L64.9338 7.77156L66.0415 7.74274C66.1694 7.74225 66.2964 7.76336 66.4172 7.80518C66.5711 7.85674 66.7044 7.95602 66.7977 8.08853C66.9273 8.29779 66.9956 8.53896 66.9952 8.78489C67.036 9.61353 66.8172 10.4343 66.369 11.1333C65.9313 11.827 65.3639 12.4303 64.6978 12.9103C63.407 13.8996 61.8513 14.4903 60.7821 15.5901C60.5148 15.8425 60.3029 16.1473 60.1595 16.4853C60.0161 16.8233 59.9444 17.1873 59.9489 17.5543C60.029 18.3524 60.2423 19.1315 60.5798 19.8595C61.1867 21.4604 61.8048 23.0804 62.4341 24.7197C62.6119 25.1494 62.749 25.5948 62.8435 26.05C62.95 26.5616 62.9014 27.0932 62.7038 27.5772C62.5902 27.8327 62.4264 28.0629 62.2222 28.2543C62.0038 28.4516 61.7358 28.586 61.4467 28.6433C60.9121 28.7199 60.367 28.6187 59.8959 28.3552C58.3062 27.4819 56.7862 26.488 55.3493 25.3824C54.6429 24.8445 53.9606 24.2842 53.3023 23.7015C53.0496 23.4383 52.7422 23.2334 52.4017 23.1012C52.1271 23.034 51.9489 23.1396 51.7418 23.4614C51.5347 23.7832 51.3469 24.201 51.1398 24.5612C50.9327 24.9214 50.6919 25.3104 50.4751 25.661C50.0283 26.3764 49.5344 27.0615 48.9965 27.7116C48.7316 28.0334 48.4523 28.3456 48.1585 28.6433C47.8648 28.9547 47.5423 29.2377 47.1952 29.4886C46.8203 29.7632 46.3807 29.9369 45.9189 29.9928C45.6719 30.0155 45.4229 29.9843 45.1892 29.9013C44.9555 29.8184 44.7427 29.6857 44.5655 29.5126C44.2423 29.1798 44.026 28.7584 43.9442 28.3024C43.8668 27.8816 43.8668 27.4504 43.9442 27.0297C44.1031 26.2325 44.3391 25.5409 44.527 24.8205L45.6925 20.6615C45.9203 20.0765 45.959 19.4351 45.8033 18.827C45.6021 18.2491 45.2728 17.7238 44.84 17.2902C43.9588 16.4399 43.0084 15.664 41.9984 14.9705C41.0471 14.3061 40.2301 13.4686 39.5902 12.502C39.2916 12.035 39.0977 11.5091 39.0219 10.9604C38.9798 10.6876 38.9985 10.4088 39.0768 10.144C39.155 9.87924 39.2909 9.6349 39.4746 9.42843C39.8451 9.09124 40.3111 8.87653 40.8088 8.8137C41.2471 8.73686 41.6661 8.67923 42.0706 8.62641C42.875 8.53036 43.6167 8.47272 44.2862 8.45351C45.3096 8.41413 46.3346 8.44302 47.3542 8.53996C47.709 8.55328 48.0612 8.60645 48.4041 8.69845Z" fill="url(#paint2_linear_68_17606)" stroke="url(#paint3_linear_68_17606)" stroke-width="2"/>
<path id="Vector_3" d="M86.4041 8.69845C86.0482 8.72583 85.6908 8.72583 85.3349 8.69845C84.32 8.66502 83.3041 8.68266 82.291 8.75128C81.636 8.7945 80.9039 8.87134 80.1092 8.9914C79.7142 9.04903 79.2952 9.12107 78.8762 9.20751C78.4662 9.26335 78.0831 9.44263 77.7781 9.72138C77.6424 9.88436 77.5445 10.0752 77.4912 10.2802C77.4379 10.4852 77.4306 10.6994 77.4698 10.9076C77.5473 11.3872 77.728 11.8443 77.9996 12.2475C78.6256 13.1489 79.4164 13.9245 80.3307 14.5335C81.3771 15.2332 82.363 16.0187 83.2783 16.8819C83.7875 17.374 84.1779 17.9751 84.4198 18.6397C84.5424 19.0009 84.5867 19.3839 84.5498 19.7635C84.5085 20.124 84.4376 20.4806 84.3379 20.8296C83.9719 22.1743 83.5962 23.5671 83.2109 24.9982C83.0279 25.709 82.7919 26.439 82.657 27.1497C82.5995 27.4883 82.5995 27.8341 82.657 28.1727C82.7153 28.4869 82.8643 28.7773 83.0857 29.0083C83.189 29.1127 83.3144 29.1927 83.4527 29.2426C83.5911 29.2925 83.7388 29.3109 83.8852 29.2965C84.2198 29.2492 84.5366 29.1169 84.8051 28.9123C85.417 28.431 85.9684 27.8779 86.4475 27.265C86.9592 26.6335 87.429 25.9693 87.8538 25.2768C88.0706 24.9262 88.2825 24.5708 88.4848 24.2058C88.6871 23.8408 88.8605 23.4902 89.1013 23.0724C89.2407 22.8312 89.4396 22.6295 89.6792 22.4865C89.9522 22.3355 90.2726 22.2943 90.5751 22.3712C91.0469 22.5258 91.4746 22.791 91.8225 23.1444C92.4679 23.7111 93.1422 24.2586 93.8357 24.7869C95.2324 25.8579 96.7088 26.8212 98.2523 27.6684C98.5724 27.8544 98.9432 27.935 99.3119 27.8989C99.472 27.8628 99.6202 27.7865 99.7424 27.6773C99.8647 27.568 99.9568 27.4294 100.01 27.2746C100.314 26.6167 100.044 25.8002 99.7309 24.9934C99.0887 23.3445 98.4755 21.7245 97.8911 20.1333C97.5228 19.3242 97.2948 18.4586 97.2168 17.5735C97.2132 17.1102 97.3044 16.651 97.485 16.2241C97.6655 15.7972 97.9315 15.4115 98.2667 15.0906C98.8745 14.5013 99.5599 13.9972 100.304 13.5922C100.979 13.2107 101.633 12.7939 102.264 12.3436C102.865 11.9229 103.377 11.3895 103.772 10.7731C104.141 10.2014 104.327 9.53163 104.306 8.85213C104.312 8.7275 104.285 8.6036 104.229 8.49194C104.229 8.46312 104.172 8.43431 104.013 8.42951H102.939L100.81 8.46792L96.7689 8.54476C96.4197 8.56688 96.0692 8.53776 95.7285 8.45832C95.3681 8.35591 95.0483 8.14448 94.8134 7.8532C94.4508 7.33114 94.1607 6.76247 93.9513 6.16271C93.4697 5.07254 93.0603 4.03039 92.6509 3.04587C92.4873 2.57801 92.2741 2.12885 92.0151 1.70597C91.9695 1.62719 91.9038 1.56178 91.8248 1.51631C91.7457 1.47083 91.6561 1.44689 91.5648 1.44689C91.4736 1.44689 91.3839 1.47083 91.3049 1.51631C91.2258 1.56178 91.1602 1.62719 91.1145 1.70597C90.8592 2.05872 90.6413 2.43694 90.4643 2.83456C90.2765 3.22357 90.1079 3.60297 89.9538 3.97276C89.6738 4.64629 89.4294 5.33399 89.2217 6.03304C89.0782 6.61232 88.8681 7.17313 88.5956 7.70432C88.3804 8.0975 88.0668 8.42841 87.6853 8.66483C87.4513 8.81103 87.1852 8.89838 86.9098 8.91936C86.8174 8.93483 86.7225 8.92487 86.6353 8.89055C86.9802 8.85039 87.3105 8.72854 87.5986 8.53516C87.9398 8.28628 88.2131 7.95604 88.3933 7.57466C88.6391 7.05369 88.828 6.50786 88.9568 5.9466C89.1429 5.22998 89.3696 4.52448 89.6359 3.83349C89.7804 3.45409 89.9441 3.06028 90.1175 2.66167L90.4113 2.05175C90.5146 1.82518 90.6456 1.61224 90.8014 1.41782C90.8924 1.29838 91.0077 1.19943 91.1396 1.12743C91.2716 1.05543 91.4173 1.01201 91.5672 1C91.7263 1.00184 91.8828 1.04003 92.0248 1.11163C92.1667 1.18323 92.2903 1.28634 92.386 1.41302C92.5548 1.63421 92.6941 1.87637 92.8002 2.1334L93.1133 2.85378C93.5435 3.83349 93.9947 4.86603 94.4667 5.9514C94.6636 6.49527 94.9325 7.01049 95.2662 7.48341C95.4282 7.68428 95.6486 7.83023 95.8971 7.90123C96.184 7.95757 96.4775 7.97374 96.7689 7.94925L100.805 7.82919L102.934 7.77156L104.042 7.74274C104.169 7.74225 104.296 7.76336 104.417 7.80518C104.571 7.85674 104.704 7.95602 104.798 8.08853C104.927 8.29779 104.996 8.53896 104.995 8.78489C105.036 9.61353 104.817 10.4343 104.369 11.1333C103.931 11.827 103.364 12.4303 102.698 12.9103C101.407 13.8996 99.8513 14.4903 98.7821 15.5901C98.5148 15.8425 98.3029 16.1473 98.1595 16.4853C98.0161 16.8233 97.9444 17.1873 97.9489 17.5543C98.029 18.3524 98.2423 19.1315 98.5798 19.8595C99.1867 21.4604 99.8048 23.0804 100.434 24.7197C100.612 25.1494 100.749 25.5948 100.843 26.05C100.95 26.5616 100.901 27.0932 100.704 27.5772C100.59 27.8327 100.426 28.0629 100.222 28.2543C100.004 28.4516 99.7358 28.586 99.4467 28.6433C98.9121 28.7199 98.367 28.6187 97.8959 28.3552C96.3062 27.4819 94.7862 26.488 93.3493 25.3824C92.6429 24.8445 91.9606 24.2842 91.3023 23.7015C91.0496 23.4383 90.7422 23.2334 90.4017 23.1012C90.1271 23.034 89.9489 23.1396 89.7418 23.4614C89.5347 23.7832 89.3469 24.201 89.1398 24.5612C88.9327 24.9214 88.6919 25.3104 88.4751 25.661C88.0283 26.3764 87.5344 27.0615 86.9965 27.7116C86.7316 28.0334 86.4523 28.3456 86.1585 28.6433C85.8648 28.9547 85.5423 29.2377 85.1952 29.4886C84.8203 29.7632 84.3807 29.9369 83.9189 29.9928C83.6719 30.0155 83.4229 29.9843 83.1892 29.9013C82.9555 29.8184 82.7427 29.6857 82.5655 29.5126C82.2423 29.1798 82.026 28.7584 81.9442 28.3024C81.8668 27.8816 81.8668 27.4504 81.9442 27.0297C82.1031 26.2325 82.3391 25.5409 82.527 24.8205L83.6925 20.6615C83.9203 20.0765 83.959 19.4351 83.8033 18.827C83.6021 18.2491 83.2728 17.7238 82.84 17.2902C81.9588 16.4399 81.0084 15.664 79.9984 14.9705C79.0471 14.3061 78.2301 13.4686 77.5902 12.502C77.2916 12.035 77.0977 11.5091 77.0219 10.9604C76.9798 10.6876 76.9985 10.4088 77.0768 10.144C77.155 9.87924 77.2909 9.6349 77.4746 9.42843C77.8451 9.09124 78.3111 8.87653 78.8088 8.8137C79.2471 8.73686 79.6661 8.67923 80.0706 8.62641C80.875 8.53036 81.6167 8.47272 82.2862 8.45351C83.3096 8.41413 84.3346 8.44302 85.3542 8.53996C85.709 8.55328 86.0612 8.60645 86.4041 8.69845Z" fill="url(#paint4_linear_68_17606)" stroke="url(#paint5_linear_68_17606)" stroke-width="2"/>
<path id="Vector_4" d="M124.404 8.69845C124.048 8.72583 123.691 8.72583 123.335 8.69845C122.32 8.66502 121.304 8.68266 120.291 8.75128C119.636 8.7945 118.904 8.87134 118.109 8.9914C117.714 9.04903 117.295 9.12107 116.876 9.20751C116.466 9.26335 116.083 9.44263 115.778 9.72138C115.642 9.88436 115.544 10.0752 115.491 10.2802C115.438 10.4852 115.431 10.6994 115.47 10.9076C115.547 11.3872 115.728 11.8443 116 12.2475C116.626 13.1489 117.416 13.9245 118.331 14.5335C119.377 15.2332 120.363 16.0187 121.278 16.8819C121.788 17.374 122.178 17.9751 122.42 18.6397C122.542 19.0009 122.587 19.3839 122.55 19.7635C122.508 20.124 122.438 20.4806 122.338 20.8296C121.972 22.1743 121.596 23.5671 121.211 24.9982C121.028 25.709 120.792 26.439 120.657 27.1497C120.6 27.4883 120.6 27.8341 120.657 28.1727C120.715 28.4869 120.864 28.7773 121.086 29.0083C121.189 29.1127 121.314 29.1927 121.453 29.2426C121.591 29.2925 121.739 29.3109 121.885 29.2965C122.22 29.2492 122.537 29.1169 122.805 28.9123C123.417 28.431 123.968 27.8779 124.447 27.265C124.959 26.6335 125.429 25.9693 125.854 25.2768C126.071 24.9262 126.282 24.5708 126.485 24.2058C126.687 23.8408 126.86 23.4902 127.101 23.0724C127.241 22.8312 127.44 22.6295 127.679 22.4865C127.952 22.3355 128.273 22.2943 128.575 22.3712C129.047 22.5258 129.475 22.791 129.822 23.1444C130.468 23.7111 131.142 24.2586 131.836 24.7869C133.232 25.8579 134.709 26.8212 136.252 27.6684C136.572 27.8544 136.943 27.935 137.312 27.8989C137.472 27.8628 137.62 27.7865 137.742 27.6773C137.865 27.568 137.957 27.4294 138.01 27.2746C138.314 26.6167 138.044 25.8002 137.731 24.9934C137.089 23.3445 136.475 21.7245 135.891 20.1333C135.523 19.3242 135.295 18.4586 135.217 17.5735C135.213 17.1102 135.304 16.651 135.485 16.2241C135.666 15.7972 135.932 15.4115 136.267 15.0906C136.874 14.5013 137.56 13.9972 138.304 13.5922C138.979 13.2107 139.633 12.7939 140.264 12.3436C140.865 11.9229 141.377 11.3895 141.772 10.7731C142.141 10.2014 142.327 9.53163 142.306 8.85213C142.312 8.7275 142.285 8.6036 142.229 8.49194C142.229 8.46312 142.172 8.43431 142.013 8.42951H140.939L138.81 8.46792L134.769 8.54476C134.42 8.56688 134.069 8.53776 133.729 8.45832C133.368 8.35591 133.048 8.14448 132.813 7.8532C132.451 7.33114 132.161 6.76247 131.951 6.16271C131.47 5.07254 131.06 4.03039 130.651 3.04587C130.487 2.57801 130.274 2.12885 130.015 1.70597C129.969 1.62719 129.904 1.56178 129.825 1.51631C129.746 1.47083 129.656 1.44689 129.565 1.44689C129.474 1.44689 129.384 1.47083 129.305 1.51631C129.226 1.56178 129.16 1.62719 129.114 1.70597C128.859 2.05872 128.641 2.43694 128.464 2.83456C128.276 3.22357 128.108 3.60297 127.954 3.97276C127.674 4.64629 127.429 5.33399 127.222 6.03304C127.078 6.61232 126.868 7.17313 126.596 7.70432C126.38 8.0975 126.067 8.42841 125.685 8.66483C125.451 8.81103 125.185 8.89838 124.91 8.91936C124.817 8.93483 124.722 8.92487 124.635 8.89055C124.98 8.85039 125.311 8.72854 125.599 8.53516C125.94 8.28628 126.213 7.95604 126.393 7.57466C126.639 7.05369 126.828 6.50786 126.957 5.9466C127.143 5.22998 127.37 4.52448 127.636 3.83349C127.78 3.45409 127.944 3.06028 128.118 2.66167L128.411 2.05175C128.515 1.82518 128.646 1.61224 128.801 1.41782C128.892 1.29838 129.008 1.19943 129.14 1.12743C129.272 1.05543 129.417 1.01201 129.567 1C129.726 1.00184 129.883 1.04003 130.025 1.11163C130.167 1.18323 130.29 1.28634 130.386 1.41302C130.555 1.63421 130.694 1.87637 130.8 2.1334L131.113 2.85378C131.544 3.83349 131.995 4.86603 132.467 5.9514C132.664 6.49527 132.932 7.01049 133.266 7.48341C133.428 7.68428 133.649 7.83023 133.897 7.90123C134.184 7.95757 134.477 7.97374 134.769 7.94925L138.805 7.82919L140.934 7.77156L142.042 7.74274C142.169 7.74225 142.296 7.76336 142.417 7.80518C142.571 7.85674 142.704 7.95602 142.798 8.08853C142.927 8.29779 142.996 8.53896 142.995 8.78489C143.036 9.61353 142.817 10.4343 142.369 11.1333C141.931 11.827 141.364 12.4303 140.698 12.9103C139.407 13.8996 137.851 14.4903 136.782 15.5901C136.515 15.8425 136.303 16.1473 136.159 16.4853C136.016 16.8233 135.944 17.1873 135.949 17.5543C136.029 18.3524 136.242 19.1315 136.58 19.8595C137.187 21.4604 137.805 23.0804 138.434 24.7197C138.612 25.1494 138.749 25.5948 138.843 26.05C138.95 26.5616 138.901 27.0932 138.704 27.5772C138.59 27.8327 138.426 28.0629 138.222 28.2543C138.004 28.4516 137.736 28.586 137.447 28.6433C136.912 28.7199 136.367 28.6187 135.896 28.3552C134.306 27.4819 132.786 26.488 131.349 25.3824C130.643 24.8445 129.961 24.2842 129.302 23.7015C129.05 23.4383 128.742 23.2334 128.402 23.1012C128.127 23.034 127.949 23.1396 127.742 23.4614C127.535 23.7832 127.347 24.201 127.14 24.5612C126.933 24.9214 126.692 25.3104 126.475 25.661C126.028 26.3764 125.534 27.0615 124.997 27.7116C124.732 28.0334 124.452 28.3456 124.158 28.6433C123.865 28.9547 123.542 29.2377 123.195 29.4886C122.82 29.7632 122.381 29.9369 121.919 29.9928C121.672 30.0155 121.423 29.9843 121.189 29.9013C120.955 29.8184 120.743 29.6857 120.566 29.5126C120.242 29.1798 120.026 28.7584 119.944 28.3024C119.867 27.8816 119.867 27.4504 119.944 27.0297C120.103 26.2325 120.339 25.5409 120.527 24.8205L121.693 20.6615C121.92 20.0765 121.959 19.4351 121.803 18.827C121.602 18.2491 121.273 17.7238 120.84 17.2902C119.959 16.4399 119.008 15.664 117.998 14.9705C117.047 14.3061 116.23 13.4686 115.59 12.502C115.292 12.035 115.098 11.5091 115.022 10.9604C114.98 10.6876 114.999 10.4088 115.077 10.144C115.155 9.87924 115.291 9.6349 115.475 9.42843C115.845 9.09124 116.311 8.87653 116.809 8.8137C117.247 8.73686 117.666 8.67923 118.071 8.62641C118.875 8.53036 119.617 8.47272 120.286 8.45351C121.31 8.41413 122.335 8.44302 123.354 8.53996C123.709 8.55328 124.061 8.60645 124.404 8.69845Z" fill="url(#paint6_linear_68_17606)" stroke="url(#paint7_linear_68_17606)" stroke-width="2"/>
</g>
<defs>
<linearGradient id="paint0_linear_68_17606" x1="1" y1="7.59091" x2="26.6862" y2="8.71975" gradientUnits="userSpaceOnUse">
<stop stop-color="#1764DB"/>
<stop offset="1" stop-color="#80E39B"/>
</linearGradient>
<linearGradient id="paint1_linear_68_17606" x1="1" y1="7.59091" x2="26.6862" y2="8.71975" gradientUnits="userSpaceOnUse">
<stop stop-color="#1764DB"/>
<stop offset="1" stop-color="#80E39B"/>
</linearGradient>
<linearGradient id="paint2_linear_68_17606" x1="39" y1="7.59091" x2="64.6862" y2="8.71975" gradientUnits="userSpaceOnUse">
<stop stop-color="#1764DB"/>
<stop offset="1" stop-color="#80E39B"/>
</linearGradient>
<linearGradient id="paint3_linear_68_17606" x1="39" y1="7.59091" x2="64.6862" y2="8.71975" gradientUnits="userSpaceOnUse">
<stop stop-color="#1764DB"/>
<stop offset="1" stop-color="#80E39B"/>
</linearGradient>
<linearGradient id="paint4_linear_68_17606" x1="77" y1="7.59091" x2="102.686" y2="8.71975" gradientUnits="userSpaceOnUse">
<stop stop-color="#1764DB"/>
<stop offset="1" stop-color="#80E39B"/>
</linearGradient>
<linearGradient id="paint5_linear_68_17606" x1="77" y1="7.59091" x2="102.686" y2="8.71975" gradientUnits="userSpaceOnUse">
<stop stop-color="#1764DB"/>
<stop offset="1" stop-color="#80E39B"/>
</linearGradient>
<linearGradient id="paint6_linear_68_17606" x1="115" y1="7.59091" x2="140.686" y2="8.71975" gradientUnits="userSpaceOnUse">
<stop stop-color="#1764DB"/>
<stop offset="1" stop-color="#80E39B"/>
</linearGradient>
<linearGradient id="paint7_linear_68_17606" x1="115" y1="7.59091" x2="140.686" y2="8.71975" gradientUnits="userSpaceOnUse">
<stop stop-color="#1764DB"/>
<stop offset="1" stop-color="#80E39B"/>
</linearGradient>
</defs>
</svg>
