<svg width="149" height="47" viewBox="0 0 149 47" fill="none" xmlns="http://www.w3.org/2000/svg">
<g id="Group 6680">
<path id="Vector" d="M10.4041 24.6984C10.0482 24.7258 9.69078 24.7258 9.3349 24.6984C8.32001 24.665 7.30408 24.6827 6.29098 24.7513C5.63596 24.7945 4.90388 24.8713 4.10918 24.9914C3.71424 25.049 3.29522 25.1211 2.8762 25.2075C2.46623 25.2634 2.08313 25.4426 1.77808 25.7214C1.64241 25.8844 1.54445 26.0752 1.49118 26.2802C1.4379 26.4852 1.43061 26.6994 1.46983 26.9076C1.54728 27.3872 1.72802 27.8443 1.99963 28.2475C2.62556 29.1489 3.41643 29.9245 4.33073 30.5335C5.37709 31.2332 6.36304 32.0187 7.27833 32.8819C7.78753 33.374 8.17786 33.9751 8.4198 34.6397C8.54241 35.0009 8.58674 35.3839 8.54984 35.7635C8.50848 36.124 8.43761 36.4806 8.33792 36.8296C7.97188 38.1743 7.5962 39.5671 7.2109 40.9982C7.02788 41.709 6.79188 42.439 6.65702 43.1497C6.59953 43.4883 6.59953 43.8341 6.65702 44.1727C6.71534 44.4869 6.86431 44.7773 7.08567 45.0083C7.189 45.1127 7.31441 45.1927 7.45273 45.2426C7.59106 45.2925 7.73881 45.3109 7.88518 45.2965C8.2198 45.2492 8.53659 45.1169 8.8051 44.9123C9.41696 44.431 9.9684 43.8779 10.4475 43.265C10.9592 42.6335 11.429 41.9693 11.8538 41.2768C12.0706 40.9262 12.2825 40.5708 12.4848 40.2058C12.6871 39.8408 12.8605 39.4902 13.1013 39.0724C13.2407 38.8312 13.4396 38.6295 13.6792 38.4865C13.9522 38.3355 14.2726 38.2943 14.5751 38.3712C15.0469 38.5258 15.4746 38.791 15.8225 39.1444C16.4679 39.7111 17.1422 40.2586 17.8357 40.7869C19.2324 41.8579 20.7088 42.8212 22.2523 43.6684C22.5724 43.8544 22.9432 43.935 23.3119 43.8989C23.472 43.8628 23.6202 43.7865 23.7424 43.6773C23.8647 43.568 23.9568 43.4294 24.0103 43.2746C24.3137 42.6167 24.044 41.8002 23.7309 40.9934C23.0887 39.3445 22.4755 37.7245 21.8911 36.1333C21.5228 35.3242 21.2948 34.4586 21.2168 33.5735C21.2132 33.1102 21.3044 32.651 21.485 32.2241C21.6655 31.7972 21.9315 31.4115 22.2667 31.0906C22.8745 30.5013 23.5599 29.9972 24.3041 29.5922C24.9791 29.2107 25.6334 28.7939 26.2643 28.3436C26.8645 27.9229 27.3766 27.3895 27.7718 26.7731C28.1407 26.2014 28.3271 25.5316 28.3064 24.8521C28.3116 24.7275 28.2851 24.6036 28.2294 24.4919C28.2294 24.4631 28.1716 24.4343 28.0126 24.4295H26.9386L24.8098 24.4679L20.7689 24.5448C20.4197 24.5669 20.0692 24.5378 19.7285 24.4583C19.3681 24.3559 19.0483 24.1445 18.8134 23.8532C18.4508 23.3311 18.1607 22.7625 17.9513 22.1627C17.4697 21.0725 17.0603 20.0304 16.6509 19.0459C16.4873 18.578 16.2741 18.1288 16.0151 17.706C15.9695 17.6272 15.9038 17.5618 15.8248 17.5163C15.7457 17.4708 15.6561 17.4469 15.5648 17.4469C15.4736 17.4469 15.3839 17.4708 15.3049 17.5163C15.2258 17.5618 15.1602 17.6272 15.1145 17.706C14.8592 18.0587 14.6413 18.4369 14.4643 18.8346C14.2765 19.2236 14.1079 19.603 13.9538 19.9728C13.6738 20.6463 13.4294 21.334 13.2217 22.033C13.0782 22.6123 12.8681 23.1731 12.5956 23.7043C12.3804 24.0975 12.0668 24.4284 11.6853 24.6648C11.4513 24.811 11.1852 24.8984 10.9098 24.9194C10.8174 24.9348 10.7225 24.9249 10.6353 24.8905C10.9802 24.8504 11.3105 24.7285 11.5986 24.5352C11.9398 24.2863 12.2131 23.956 12.3933 23.5747C12.6391 23.0537 12.828 22.5079 12.9568 21.9466C13.1429 21.23 13.3696 20.5245 13.6359 19.8335C13.7804 19.4541 13.9441 19.0603 14.1175 18.6617L14.4113 18.0518C14.5146 17.8252 14.6456 17.6122 14.8014 17.4178C14.8924 17.2984 15.0077 17.1994 15.1396 17.1274C15.2716 17.0554 15.4173 17.012 15.5672 17C15.7263 17.0018 15.8828 17.04 16.0248 17.1116C16.1667 17.1832 16.2903 17.2863 16.386 17.413C16.5548 17.6342 16.6941 17.8764 16.8002 18.1334L17.1133 18.8538C17.5435 19.8335 17.9947 20.866 18.4667 21.9514C18.6636 22.4953 18.9325 23.0105 19.2662 23.4834C19.4282 23.6843 19.6486 23.8302 19.8971 23.9012C20.184 23.9576 20.4775 23.9737 20.7689 23.9493L24.805 23.8292L26.9338 23.7716L28.0415 23.7427C28.1694 23.7422 28.2964 23.7634 28.4172 23.8052C28.5711 23.8567 28.7044 23.956 28.7977 24.0885C28.9273 24.2978 28.9956 24.539 28.9952 24.7849C29.036 25.6135 28.8172 26.4343 28.369 27.1333C27.9313 27.827 27.3639 28.4303 26.6978 28.9103C25.407 29.8996 23.8513 30.4903 22.7821 31.5901C22.5148 31.8425 22.3029 32.1473 22.1595 32.4853C22.0161 32.8233 21.9444 33.1873 21.9489 33.5543C22.029 34.3524 22.2423 35.1315 22.5798 35.8595C23.1867 37.4604 23.8048 39.0804 24.4341 40.7197C24.6119 41.1494 24.749 41.5948 24.8435 42.05C24.95 42.5616 24.9014 43.0932 24.7038 43.5772C24.5902 43.8327 24.4264 44.0629 24.2222 44.2543C24.0038 44.4516 23.7358 44.586 23.4467 44.6433C22.9121 44.7199 22.367 44.6187 21.8959 44.3552C20.3062 43.4819 18.7862 42.488 17.3493 41.3824C16.6429 40.8445 15.9606 40.2842 15.3023 39.7015C15.0496 39.4383 14.7422 39.2334 14.4017 39.1012C14.1271 39.034 13.9489 39.1396 13.7418 39.4614C13.5347 39.7832 13.3469 40.201 13.1398 40.5612C12.9327 40.9214 12.6919 41.3104 12.4751 41.661C12.0283 42.3764 11.5344 43.0615 10.9965 43.7116C10.7316 44.0334 10.4523 44.3456 10.1585 44.6433C9.86482 44.9547 9.54229 45.2377 9.19522 45.4886C8.82031 45.7632 8.38073 45.9369 7.9189 45.9928C7.67188 46.0155 7.42287 45.9843 7.18917 45.9013C6.95546 45.8184 6.74265 45.6857 6.56551 45.5126C6.24231 45.1798 6.02599 44.7584 5.9442 44.3024C5.86677 43.8816 5.86677 43.4504 5.9442 43.0297C6.10314 42.2325 6.33914 41.5409 6.52698 40.8205L7.69253 36.6615C7.92028 36.0765 7.95901 35.4351 7.80331 34.827C7.60205 34.2491 7.27281 33.7238 6.84004 33.2902C5.95884 32.4399 5.00836 31.664 3.99841 30.9705C3.04712 30.3061 2.23011 29.4686 1.59024 28.502C1.29157 28.035 1.0977 27.5091 1.02191 26.9604C0.979802 26.6876 0.99854 26.4088 1.07679 26.144C1.15505 25.8792 1.29089 25.6349 1.47465 25.4284C1.84515 25.0912 2.31113 24.8765 2.80877 24.8137C3.24706 24.7369 3.66608 24.6792 4.07065 24.6264C4.87498 24.5304 5.61669 24.4727 6.28616 24.4535C7.30962 24.4141 8.33457 24.443 9.35417 24.54C9.70901 24.5533 10.0612 24.6064 10.4041 24.6984Z" fill="url(#paint0_linear_68_17556)" stroke="url(#paint1_linear_68_17556)" stroke-width="2"/>
<path id="Vector_2" d="M60.7627 17.3531C60.2798 17.3899 59.7946 17.3899 59.3116 17.3531C57.9343 17.3081 56.5555 17.3318 55.1806 17.4241C54.2917 17.4823 53.2981 17.5856 52.2196 17.7471C51.6836 17.8246 51.1149 17.9214 50.5463 18.0377C49.9899 18.1128 49.47 18.3539 49.056 18.7288C48.8718 18.9479 48.7389 19.2045 48.6666 19.4803C48.5943 19.756 48.5844 20.0441 48.6376 20.324C48.7427 20.9689 48.988 21.5837 49.3566 22.126C50.2061 23.3382 51.2794 24.3812 52.5203 25.2002C53.9403 26.1412 55.2784 27.1976 56.5206 28.3585C57.2117 29.0202 57.7414 29.8285 58.0697 30.7223C58.2361 31.2081 58.2963 31.7232 58.2462 32.2336C58.1901 32.7185 58.0939 33.198 57.9586 33.6674C57.4618 35.4758 56.952 37.3488 56.4291 39.2735C56.1807 40.2293 55.8604 41.211 55.6774 42.1669C55.5994 42.6222 55.5994 43.0873 55.6774 43.5426C55.7565 43.9651 55.9587 44.3557 56.2591 44.6664C56.3994 44.8067 56.5696 44.9144 56.7573 44.9814C56.945 45.0485 57.1455 45.0732 57.3442 45.0539C57.7983 44.9903 58.2282 44.8124 58.5926 44.5372C59.423 43.89 60.1714 43.1462 60.8216 42.3219C61.516 41.4726 62.1536 40.5794 62.7302 39.6481C63.0244 39.1766 63.312 38.6987 63.5865 38.2078C63.861 37.7169 64.0963 37.2455 64.4232 36.6836C64.6123 36.3591 64.8824 36.0879 65.2075 35.8956C65.5779 35.6926 66.0129 35.6372 66.4233 35.7406C67.0636 35.9485 67.6442 36.3051 68.1162 36.7805C68.9921 37.5426 69.9072 38.2788 70.8485 38.9893C72.7439 40.4296 74.7477 41.725 76.8424 42.8644C77.2769 43.1145 77.78 43.223 78.2804 43.1744C78.4977 43.1259 78.6988 43.0233 78.8647 42.8763C79.0306 42.7294 79.1557 42.543 79.2282 42.3348C79.64 41.45 79.274 40.352 78.8491 39.267C77.9776 37.0496 77.1453 34.8709 76.3522 32.7309C75.8523 31.6428 75.5429 30.4789 75.4371 29.2885C75.4322 28.6654 75.556 28.0479 75.801 27.4738C76.046 26.8996 76.4071 26.3809 76.862 25.9494C77.6868 25.1569 78.617 24.4789 79.6269 23.9344C80.543 23.4213 81.431 22.8608 82.2873 22.2551C83.1019 21.6895 83.7968 20.972 84.3332 20.1432C84.8338 19.3743 85.0868 18.4736 85.0587 17.5598C85.0658 17.3922 85.0298 17.2255 84.9541 17.0754C84.9541 17.0366 84.8757 16.9979 84.66 16.9914H83.2024L80.3133 17.0431L74.8292 17.1464C74.3553 17.1761 73.8796 17.137 73.4173 17.0302C72.9281 16.8924 72.4941 16.6081 72.1754 16.2164C71.6832 15.5143 71.2896 14.7495 71.0054 13.943C70.3517 12.4769 69.7961 11.0754 69.2405 9.75135C69.0184 9.12215 68.7292 8.51811 68.3777 7.94941C68.3157 7.84347 68.2266 7.7555 68.1193 7.69434C68.0121 7.63319 67.8904 7.60099 67.7665 7.60099C67.6427 7.60099 67.521 7.63319 67.4138 7.69434C67.3065 7.7555 67.2174 7.84347 67.1554 7.94941C66.8089 8.4238 66.5132 8.93244 66.273 9.46717C66.018 9.99031 65.7893 10.5005 65.5801 10.9979C65.2001 11.9036 64.8685 12.8285 64.5866 13.7686C64.3919 14.5476 64.1067 15.3018 63.7368 16.0162C63.4448 16.5449 63.0192 16.9899 62.5014 17.3079C62.1839 17.5045 61.8227 17.622 61.4491 17.6502C61.3236 17.671 61.1948 17.6576 61.0765 17.6114C61.5446 17.5574 61.9928 17.3936 62.3838 17.1335C62.8469 16.7988 63.2177 16.3547 63.4623 15.8418C63.7959 15.1412 64.0523 14.4071 64.2271 13.6523C64.4796 12.6886 64.7873 11.7398 65.1487 10.8106C65.3448 10.3003 65.567 9.77072 65.8023 9.23466L66.2011 8.41443C66.3412 8.10972 66.5191 7.82336 66.7305 7.56189C66.854 7.40127 67.0104 7.26819 67.1895 7.17137C67.3686 7.07454 67.5663 7.01615 67.7698 7C67.9857 7.00248 68.1981 7.05383 68.3907 7.15012C68.5834 7.24641 68.7511 7.38507 68.881 7.55544C69.1101 7.8529 69.2991 8.17856 69.4431 8.52422L69.868 9.49301C70.4519 10.8106 71.0642 12.1991 71.7048 13.6588C71.9721 14.3902 72.337 15.0831 72.7898 15.7191C73.0097 15.9892 73.3088 16.1855 73.6461 16.281C74.0355 16.3567 74.4337 16.3785 74.8292 16.3455L80.3067 16.1841L83.1958 16.1066L84.6992 16.0678C84.8727 16.0672 85.0451 16.0955 85.2091 16.1518C85.4179 16.2211 85.5989 16.3547 85.7254 16.5328C85.9013 16.8143 85.9941 17.1386 85.9934 17.4693C86.0489 18.5837 85.7519 19.6875 85.1437 20.6276C84.5497 21.5604 83.7796 22.3717 82.8755 23.0172C81.1238 24.3477 79.0125 25.1421 77.5614 26.6211C77.1987 26.9605 76.911 27.3704 76.7164 27.8251C76.5218 28.2797 76.4245 28.7691 76.4306 29.2627C76.5394 30.336 76.8288 31.3837 77.2869 32.3628C78.1105 34.5156 78.9493 36.6943 79.8034 38.8989C80.0447 39.4768 80.2308 40.0757 80.359 40.6879C80.5036 41.3759 80.4376 42.0909 80.1695 42.7417C80.0153 43.0853 79.793 43.395 79.5158 43.6524C79.2194 43.9177 78.8557 44.0985 78.4634 44.1755C77.7378 44.2785 76.9981 44.1423 76.3587 43.788C74.2013 42.6136 72.1384 41.277 70.1883 39.7901C69.2296 39.0668 68.3036 38.3133 67.4103 37.5296C67.0674 37.1756 66.6502 36.9001 66.188 36.7223C65.8154 36.6319 65.5736 36.774 65.2925 37.2067C65.0114 37.6394 64.7565 38.2013 64.4754 38.6857C64.1944 39.1701 63.8676 39.6933 63.5734 40.1647C62.967 41.1269 62.2966 42.0482 61.5667 42.9226C61.2072 43.3553 60.8281 43.7751 60.4294 44.1755C60.0308 44.5943 59.5931 44.9748 59.1221 45.3122C58.6133 45.6816 58.0167 45.9152 57.3899 45.9904C57.0547 46.0208 56.7168 45.9788 56.3996 45.8673C56.0824 45.7558 55.7936 45.5774 55.5532 45.3445C55.1146 44.8969 54.821 44.3303 54.71 43.717C54.6049 43.1512 54.6049 42.5712 54.71 42.0054C54.9257 40.9333 55.246 40.0033 55.5009 39.0345L57.0827 33.4414C57.3918 32.6546 57.4444 31.792 57.2331 30.9742C56.9599 30.197 56.5131 29.4906 55.9258 28.9075C54.7299 27.764 53.4399 26.7206 52.0693 25.788C50.7782 24.8944 49.6694 23.7681 48.801 22.4683C48.3957 21.8402 48.1326 21.133 48.0297 20.3951C47.9726 20.0281 47.998 19.6533 48.1042 19.2972C48.2104 18.941 48.3948 18.6125 48.6442 18.3348C49.147 17.8813 49.7794 17.5926 50.4548 17.5081C51.0496 17.4047 51.6182 17.3272 52.1673 17.2562C53.2589 17.127 54.2655 17.0495 55.1741 17.0237C56.5631 16.9707 57.9541 17.0096 59.3378 17.14C59.8194 17.1579 60.2974 17.2294 60.7627 17.3531Z" fill="url(#paint2_linear_68_17556)" stroke="url(#paint3_linear_68_17556)" stroke-width="2"/>
<path id="Vector_3" d="M118.778 12.9459C118.219 12.9883 117.657 12.9883 117.098 12.9459C115.503 12.894 113.906 12.9214 112.314 13.0278C111.285 13.0949 110.135 13.2141 108.886 13.4005C108.265 13.4899 107.607 13.6017 106.948 13.7358C106.304 13.8224 105.702 14.1006 105.223 14.5332C105.01 14.7861 104.856 15.0821 104.772 15.4003C104.688 15.7184 104.677 16.0509 104.738 16.3739C104.86 17.118 105.144 17.8273 105.571 18.453C106.554 19.8518 107.797 21.0552 109.234 22.0003C110.878 23.086 112.428 24.3049 113.866 25.6444C114.666 26.4079 115.28 27.3406 115.66 28.3719C115.852 28.9324 115.922 29.5268 115.864 30.1157C115.799 30.6752 115.688 31.2285 115.531 31.7701C114.956 33.8567 114.365 36.0179 113.76 38.2386C113.472 39.3415 113.102 40.4743 112.89 41.5772C112.799 42.1026 112.799 42.6392 112.89 43.1645C112.981 43.6521 113.215 44.1027 113.563 44.4612C113.726 44.6232 113.923 44.7474 114.14 44.8247C114.357 44.9021 114.59 44.9306 114.82 44.9083C115.345 44.835 115.843 44.6297 116.265 44.3122C117.227 43.5653 118.093 42.7071 118.846 41.7561C119.65 40.7761 120.388 39.7455 121.056 38.6708C121.397 38.1268 121.73 37.5754 122.048 37.009C122.365 36.4426 122.638 35.8986 123.016 35.2503C123.235 34.8759 123.548 34.563 123.925 34.3411C124.353 34.1069 124.857 34.0429 125.332 34.1623C126.074 34.4022 126.746 34.8136 127.292 35.3621C128.307 36.2414 129.366 37.091 130.456 37.9107C132.651 39.5726 134.971 41.0674 137.396 42.382C137.9 42.6706 138.482 42.7958 139.062 42.7397C139.313 42.6837 139.546 42.5653 139.738 42.3957C139.93 42.2262 140.075 42.0111 140.159 41.771C140.636 40.75 140.212 39.4831 139.72 38.2312C138.711 35.6726 137.747 33.1587 136.829 30.6895C136.25 29.4341 135.892 28.091 135.769 26.7175C135.764 25.9986 135.907 25.2861 136.191 24.6236C136.474 23.9611 136.892 23.3626 137.419 22.8647C138.374 21.9502 139.451 21.168 140.621 20.5397C141.681 19.9477 142.71 19.3009 143.701 18.6021C144.644 17.9494 145.449 17.1216 146.07 16.1652C146.65 15.2781 146.943 14.2387 146.91 13.1843C146.918 12.991 146.877 12.7987 146.789 12.6254C146.789 12.5807 146.698 12.536 146.448 12.5285H144.761L141.415 12.5882L135.065 12.7074C134.517 12.7417 133.966 12.6965 133.431 12.5733C132.864 12.4143 132.362 12.0863 131.993 11.6343C131.423 10.8242 130.967 9.94177 130.638 9.01111C129.881 7.31946 129.238 5.70233 128.594 4.17463C128.337 3.44864 128.002 2.75166 127.595 2.09547C127.523 1.97323 127.42 1.87173 127.296 1.80117C127.172 1.7306 127.031 1.69345 126.888 1.69345C126.744 1.69345 126.603 1.7306 126.479 1.80117C126.355 1.87173 126.252 1.97323 126.18 2.09547C125.779 2.64285 125.436 3.22974 125.158 3.84673C124.863 4.45036 124.598 5.03909 124.356 5.61291C123.916 6.65803 123.532 7.72515 123.205 8.8099C122.98 9.70878 122.65 10.579 122.222 11.4033C121.883 12.0134 121.391 12.5268 120.791 12.8937C120.423 13.1206 120.005 13.2561 119.573 13.2887C119.427 13.3127 119.278 13.2972 119.141 13.244C119.683 13.1816 120.202 12.9926 120.655 12.6925C121.191 12.3063 121.621 11.7939 121.904 11.2021C122.29 10.3937 122.587 9.54667 122.789 8.67575C123.082 7.56377 123.438 6.46902 123.856 5.39679C124.083 4.80807 124.341 4.19699 124.613 3.57845L125.075 2.63203C125.237 2.28045 125.443 1.95003 125.688 1.64834C125.831 1.463 126.012 1.30945 126.219 1.19773C126.427 1.08601 126.656 1.01864 126.891 1C127.141 1.00286 127.387 1.06211 127.61 1.17322C127.833 1.28432 128.028 1.44432 128.178 1.64089C128.443 1.98411 128.662 2.35988 128.829 2.75872L129.321 3.87655C129.997 5.3968 130.706 6.99901 131.448 8.68321C131.757 9.52714 132.18 10.3266 132.704 11.0605C132.959 11.3722 133.305 11.5986 133.695 11.7088C134.146 11.7962 134.607 11.8213 135.065 11.7833L141.408 11.597L144.753 11.5076L146.494 11.4629C146.695 11.4621 146.894 11.4949 147.084 11.5598C147.326 11.6398 147.536 11.7938 147.682 11.9994C147.886 12.3242 147.993 12.6984 147.992 13.08C148.057 14.3658 147.713 15.6395 147.008 16.7241C146.321 17.8005 145.429 18.7366 144.382 19.4814C142.354 21.0166 139.909 21.9332 138.229 23.6398C137.809 24.0314 137.476 24.5044 137.251 25.0289C137.025 25.5534 136.913 26.1182 136.92 26.6877C137.046 27.9261 137.381 29.1351 137.911 30.2648C138.865 32.7488 139.836 35.2627 140.825 37.8064C141.104 38.4732 141.32 39.1643 141.468 39.8706C141.636 40.6645 141.559 41.4895 141.249 42.2404C141.07 42.6369 140.813 42.9942 140.492 43.2912C140.149 43.5973 139.728 43.8059 139.273 43.8948C138.433 44.0137 137.577 43.8565 136.836 43.4477C134.338 42.0926 131.95 40.5504 129.692 38.8348C128.582 38.0001 127.509 37.1307 126.475 36.2265C126.078 35.8181 125.595 35.5001 125.06 35.295C124.628 35.1907 124.348 35.3546 124.023 35.8539C123.697 36.3532 123.402 37.0016 123.077 37.5605C122.751 38.1194 122.373 38.723 122.032 39.267C121.33 40.3772 120.554 41.4402 119.709 42.4491C119.293 42.9484 118.854 43.4328 118.392 43.8948C117.93 44.378 117.424 44.8171 116.878 45.2064C116.289 45.6326 115.598 45.9021 114.873 45.9889C114.484 46.024 114.093 45.9756 113.726 45.8469C113.359 45.7182 113.024 45.5124 112.746 45.2437C112.238 44.7272 111.898 44.0734 111.769 43.3657C111.648 42.7129 111.648 42.0437 111.769 41.3909C112.019 40.1538 112.39 39.0807 112.685 37.9629L114.517 31.5093C114.875 30.6014 114.936 29.6061 114.691 28.6625C114.375 27.7658 113.857 26.9507 113.177 26.2778C111.792 24.9584 110.299 23.7545 108.712 22.6784C107.217 21.6474 105.933 20.3478 104.928 18.848C104.458 18.1233 104.154 17.3073 104.034 16.4558C103.968 16.0325 103.998 15.5999 104.121 15.189C104.244 14.7781 104.457 14.399 104.746 14.0786C105.328 13.5554 106.06 13.2222 106.842 13.1247C107.531 13.0055 108.19 12.9161 108.825 12.8341C110.089 12.685 111.255 12.5956 112.307 12.5658C113.915 12.5047 115.526 12.5495 117.128 12.6999C117.686 12.7206 118.239 12.8031 118.778 12.9459Z" fill="url(#paint4_linear_68_17556)" stroke="url(#paint5_linear_68_17556)" stroke-width="2"/>
</g>
<defs>
<linearGradient id="paint0_linear_68_17556" x1="1" y1="23.5909" x2="26.6862" y2="24.7197" gradientUnits="userSpaceOnUse">
<stop stop-color="#1764DB"/>
<stop offset="1" stop-color="#80E39B"/>
</linearGradient>
<linearGradient id="paint1_linear_68_17556" x1="1" y1="23.5909" x2="26.6862" y2="24.7197" gradientUnits="userSpaceOnUse">
<stop stop-color="#1764DB"/>
<stop offset="1" stop-color="#80E39B"/>
</linearGradient>
<linearGradient id="paint2_linear_68_17556" x1="48" y1="15.8636" x2="82.8586" y2="17.4096" gradientUnits="userSpaceOnUse">
<stop stop-color="#1764DB"/>
<stop offset="1" stop-color="#80E39B"/>
</linearGradient>
<linearGradient id="paint3_linear_68_17556" x1="48" y1="15.8636" x2="82.8586" y2="17.4096" gradientUnits="userSpaceOnUse">
<stop stop-color="#1764DB"/>
<stop offset="1" stop-color="#80E39B"/>
</linearGradient>
<linearGradient id="paint4_linear_68_17556" x1="104" y1="11.2273" x2="144.362" y2="13.0236" gradientUnits="userSpaceOnUse">
<stop stop-color="#1764DB"/>
<stop offset="1" stop-color="#80E39B"/>
</linearGradient>
<linearGradient id="paint5_linear_68_17556" x1="104" y1="11.2273" x2="144.362" y2="13.0236" gradientUnits="userSpaceOnUse">
<stop stop-color="#1764DB"/>
<stop offset="1" stop-color="#80E39B"/>
</linearGradient>
</defs>
</svg>
