<svg width="24" height="24" viewBox="0 0 24 24" fill="none" xmlns="http://www.w3.org/2000/svg">
<g id="Group 6665">
<circle id="Ellipse 20" cx="12" cy="12" r="11.5" stroke="white"/>
<path id="Vector" d="M15.1778 11.9994C15.1778 12.8418 14.8432 13.6498 14.2475 14.2455C13.6518 14.8412 12.8438 15.1758 12.0014 15.1758C11.1589 15.1758 10.351 14.8412 9.75528 14.2455C9.15957 13.6498 8.82491 12.8418 8.82491 11.9994C8.82491 11.1569 9.15957 10.349 9.75528 9.75327C10.351 9.15757 11.1589 8.8229 12.0014 8.8229C12.8438 8.8229 13.6518 9.15757 14.2475 9.75327C14.8432 10.349 15.1778 11.1569 15.1778 11.9994ZM15.1778 11.9994C15.1778 13.169 15.8887 14.117 16.7661 14.117C17.6435 14.117 18.3543 13.169 18.3543 11.9994C18.3543 10.5296 17.8447 9.10528 16.9122 7.96913C15.9798 6.83298 14.6823 6.05528 13.2407 5.76855C11.7992 5.48183 10.3028 5.7038 9.00658 6.39666C7.71035 7.08952 6.69446 8.2104 6.13201 9.56831C5.56956 10.9262 5.49534 12.4371 5.92201 13.8436C6.34867 15.2501 7.24982 16.4652 8.47191 17.2817C9.694 18.0983 11.1614 18.4658 12.6241 18.3218C14.0868 18.1777 15.4543 17.5309 16.4936 16.4916M15.1778 11.9994V9.35232" stroke="white" stroke-linecap="round"/>
</g>
</svg>
