<svg width="24" height="24" viewBox="0 0 24 24" fill="none" xmlns="http://www.w3.org/2000/svg">
<g id="Group 6666">
<circle id="Ellipse 20" cx="12" cy="12" r="11.5" stroke="white"/>
<path id="Vector" d="M17.5219 7.39774L17.5343 7.39347L17.5464 7.38856C17.6188 7.35927 17.6748 7.35496 17.7098 7.35847C17.7436 7.36187 17.7561 7.37186 17.7584 7.37387L17.7585 7.37393C17.7597 7.37493 17.7708 7.38408 17.7785 7.41968C17.7871 7.45985 17.7918 7.54005 17.7557 7.66941L17.7531 7.6788L17.7508 7.68829L15.6823 16.4063L15.6818 16.4082C15.6562 16.5181 15.6247 16.579 15.6032 16.6093C15.5844 16.6357 15.5743 16.6383 15.5743 16.6383C15.5702 16.6399 15.4876 16.6673 15.2732 16.5669L12.1503 14.5041L11.8333 14.2947L11.5466 14.544L10.2967 15.6309L10.4264 13.8981L16.1032 9.31645C16.1885 9.24848 16.373 9.08239 16.3842 8.81699C16.3997 8.44909 16.1037 8.28675 15.963 8.24355C15.8146 8.19801 15.6636 8.20639 15.5447 8.22843C15.4167 8.25216 15.2836 8.29938 15.1548 8.36942L15.1548 8.36937L15.1481 8.37315L8.11227 12.343L5.38658 11.5826L17.5219 7.39774ZM15.738 9.21025C15.738 9.21032 15.7366 9.2105 15.734 9.21056C15.7367 9.21021 15.738 9.21018 15.738 9.21025ZM15.4816 8.53301C15.4817 8.53299 15.4813 8.53328 15.4806 8.53387L15.4816 8.53301Z" fill="white" stroke="white"/>
</g>
</svg>
