<svg width="20" height="21" viewBox="0 0 20 21" fill="none" xmlns="http://www.w3.org/2000/svg">
<g id="Vector 394" clip-path="url(#clip0_194_8060)">
<path id="Vector" d="M19.5471 15.4673C18.9602 14.4787 18.0881 11.6906 18.0881 8.06415C18.0881 5.96455 17.236 3.95089 15.7192 2.46621C14.2024 0.981541 12.1452 0.147461 10.0001 0.147461C7.85498 0.147461 5.79775 0.981541 4.28095 2.46621C2.76415 3.95089 1.91201 5.96455 1.91201 8.06415C1.91201 11.6916 1.03891 14.4787 0.452011 15.4673C0.323239 15.6831 0.25491 15.9284 0.253917 16.1783C0.252925 16.4283 0.319305 16.6741 0.446357 16.8909C0.573411 17.1077 0.756644 17.2879 0.97756 17.4132C1.19848 17.5386 1.44927 17.6047 1.70463 17.6048H6.10953C6.26062 18.5076 6.73465 19.3284 7.44695 19.9206C8.15924 20.5129 9.06342 20.8381 9.998 20.8381C10.9326 20.8381 11.8368 20.5129 12.5491 19.9206C13.2613 19.3284 13.7354 18.5076 13.8865 17.6048H18.2955C18.5507 17.6043 18.8012 17.5379 19.0219 17.4125C19.2425 17.287 19.4254 17.1068 19.5523 16.89C19.6791 16.6733 19.7452 16.4276 19.7442 16.1778C19.7431 15.9281 19.6748 15.683 19.5461 15.4673H19.5471ZM10.0001 19.6348C9.39338 19.6346 8.80447 19.4341 8.32858 19.0657C7.85273 18.6973 7.51767 18.1826 7.37767 17.6048H12.6225C12.4825 18.1826 12.1475 18.6973 11.6716 19.0657C11.1957 19.4341 10.6068 19.6346 10.0001 19.6348ZM18.4728 16.2854C18.4558 16.3165 18.4303 16.3424 18.3992 16.3603C18.3681 16.3782 18.3326 16.3873 18.2966 16.3869H1.70463C1.66856 16.3873 1.63306 16.3782 1.60198 16.3603C1.57089 16.3424 1.54543 16.3165 1.52835 16.2854C1.51015 16.2545 1.50056 16.2195 1.50056 16.1839C1.50056 16.1482 1.51015 16.1132 1.52835 16.0824C2.3133 14.7629 3.15633 11.6866 3.15633 8.06415C3.15633 6.28755 3.87738 4.58371 5.1608 3.32744C6.44425 2.07118 8.18502 1.36542 10.0001 1.36542C11.8152 1.36542 13.5559 2.07118 14.8393 3.32744C16.1228 4.58371 16.8438 6.28755 16.8438 8.06415C16.8438 11.6856 17.6879 14.7579 18.4728 16.0824C18.4911 16.1132 18.5006 16.1482 18.5006 16.1839C18.5006 16.2195 18.4911 16.2545 18.4728 16.2854Z" fill="#333333" stroke="#333333" stroke-width="0.5"/>
</g>
<defs>
<clipPath id="clip0_194_8060">
<rect width="20" height="21" fill="white"/>
</clipPath>
</defs>
</svg>
