<svg width="24" height="24" viewBox="0 0 24 24" fill="none" xmlns="http://www.w3.org/2000/svg">
<g id="Group 6861">
<circle id="Ellipse 2325" cx="12" cy="12" r="11.25" fill="white" stroke="#626262" stroke-width="1.5"/>
<path id="Vector" fill-rule="evenodd" clip-rule="evenodd" d="M12.8 8.8C12.8 8.35817 12.4418 8 12 8C11.5582 8 11.2 8.35817 11.2 8.8V11.2H8.8C8.35817 11.2 8 11.5582 8 12C8 12.4418 8.35817 12.8 8.8 12.8H11.2V15.2C11.2 15.6418 11.5582 16 12 16C12.4418 16 12.8 15.6418 12.8 15.2V12.8H15.2C15.6418 12.8 16 12.4418 16 12C16 11.5582 15.6418 11.2 15.2 11.2H12.8V8.8Z" fill="#626262"/>
</g>
</svg>
