<svg width="24" height="24" viewBox="0 0 24 24" fill="none" xmlns="http://www.w3.org/2000/svg">
<g id="clarity_search-line 1" clip-path="url(#clip0_201_1285)">
<g id="Clip path group">
<mask id="mask0_201_1285" style="mask-type:luminance" maskUnits="userSpaceOnUse" x="0" y="0" width="24" height="24">
<g id="clip0_130_12">
<path id="Vector" d="M24 0H0V24H24V0Z" fill="white"/>
</g>
</mask>
<g mask="url(#mask0_201_1285)">
<g id="Group">
<path id="Vector_2" d="M10.8854 3.36667C12.3295 3.36535 13.7416 3.79237 14.9429 4.59369C16.1442 5.39503 17.081 6.53467 17.6345 7.86847C18.188 9.20227 18.3336 10.6703 18.0526 12.0867C17.7717 13.5033 17.077 14.8046 16.0563 15.8262C15.0357 16.8478 13.735 17.5437 12.3187 17.8259C10.9024 18.1081 9.4343 17.9639 8.10003 17.4116C6.76576 16.8593 5.62525 15.9237 4.82282 14.723C4.02039 13.5224 3.59208 12.1107 3.59208 10.6667C3.60084 8.73447 4.37184 6.88373 5.73752 5.51681C7.10323 4.14988 8.95323 3.37719 10.8854 3.36667ZM10.8854 2C9.1713 2 7.4957 2.50829 6.07048 3.4606C4.64525 4.4129 3.53442 5.76645 2.87846 7.35007C2.2225 8.93373 2.05088 10.6763 2.38528 12.3575C2.71968 14.0386 3.5451 15.5829 4.75716 16.7949C5.96922 18.007 7.5135 18.8324 9.19463 19.1668C10.8758 19.5012 12.6184 19.3296 14.202 18.6736C15.7856 18.0177 17.1392 16.9069 18.0915 15.4816C19.0438 14.0564 19.5521 12.3808 19.5521 10.6667C19.5521 8.36813 18.639 6.16372 17.0137 4.53841C15.3884 2.91309 13.184 2 10.8854 2Z" fill="#6A6A6A"/>
<path id="Vector_3" d="M23.3327 22.1937L18.4193 17.2471L17.4727 18.1871L22.386 23.1337C22.4477 23.1959 22.5211 23.2453 22.6019 23.2791C22.6827 23.3129 22.7693 23.3305 22.8569 23.3308C22.9445 23.3311 23.0313 23.3141 23.1124 23.2809C23.1935 23.2477 23.2671 23.1988 23.3293 23.1371C23.3915 23.0753 23.4409 23.002 23.4747 22.9212C23.5085 22.8404 23.5261 22.7537 23.5263 22.6661C23.5267 22.5785 23.5097 22.4917 23.4765 22.4107C23.4433 22.3296 23.3943 22.2559 23.3327 22.1937Z" fill="#6A6A6A"/>
</g>
</g>
</g>
</g>
<defs>
<clipPath id="clip0_201_1285">
<rect width="24" height="24" fill="white"/>
</clipPath>
</defs>
</svg>
