<svg width="24" height="24" viewBox="0 0 24 24" fill="none" xmlns="http://www.w3.org/2000/svg">
<g id="iconamoon_settings-thin (1) 1">
<path id="Vector" d="M12 14C13.1046 14 14 13.1046 14 12C14 10.8954 13.1046 10 12 10C10.8954 10 10 10.8954 10 12C10 13.1046 10.8954 14 12 14Z" stroke="#333333"/>
<path id="Vector_2" d="M5.39978 5.88004L5.64978 5.44604C5.55163 5.38929 5.43711 5.36758 5.325 5.38448C5.21289 5.40138 5.10985 5.45588 5.03278 5.53904L5.39978 5.88004ZM3.40078 9.34404L2.92278 9.19604C2.88951 9.30425 2.89395 9.42055 2.93537 9.52591C2.97678 9.63127 3.05273 9.71945 3.15078 9.77604L3.40078 9.34404ZM3.39878 14.655L3.14878 14.222C3.05052 14.2787 2.97443 14.367 2.933 14.4726C2.89157 14.5782 2.88726 14.6947 2.92078 14.803L3.39878 14.655ZM5.39878 18.119L5.03178 18.459C5.10885 18.5422 5.21189 18.5967 5.324 18.6136C5.43611 18.6305 5.55063 18.6088 5.64878 18.552L5.39878 18.119ZM9.99878 20.774H9.49878C9.49873 20.8876 9.53731 20.9977 9.60819 21.0864C9.67907 21.1751 9.77803 21.2371 9.88878 21.262L9.99878 20.774ZM13.9998 20.776L14.1108 21.264C14.2214 21.2389 14.3201 21.1769 14.3908 21.0882C14.4615 20.9995 14.4999 20.8894 14.4998 20.776H13.9998ZM18.6008 18.12L18.3508 18.553C18.449 18.6098 18.5635 18.6315 18.6756 18.6146C18.7877 18.5977 18.8907 18.5432 18.9678 18.46L18.6008 18.12ZM20.5988 14.654L21.0768 14.802C21.1101 14.6938 21.1056 14.5775 21.0642 14.4722C21.0228 14.3668 20.9469 14.2786 20.8488 14.222L20.5988 14.654ZM20.6008 9.34304L20.8508 9.77604C20.9491 9.71941 21.0252 9.63106 21.0666 9.52548C21.108 9.41991 21.1123 9.30338 21.0788 9.19504L20.6008 9.34304ZM18.6008 5.87804L18.9678 5.53804C18.8907 5.45488 18.7877 5.40038 18.6756 5.38348C18.5635 5.36658 18.449 5.38829 18.3508 5.44504L18.6008 5.87804ZM14.0008 3.22504H14.5008C14.5007 3.11181 14.4621 3.00198 14.3915 2.91351C14.3208 2.82504 14.2222 2.76317 14.1118 2.73804L14.0008 3.22504ZM10.0008 3.22304L9.88978 2.73504C9.77903 2.76002 9.68007 2.82194 9.60919 2.91064C9.53831 2.99933 9.49972 3.1095 9.49978 3.22304H10.0008ZM3.87878 9.49204C4.25429 8.2733 4.89922 7.15467 5.76578 6.21904L5.03278 5.53904C4.06392 6.58463 3.34277 7.83385 2.92278 9.19604L3.87878 9.49204ZM4.63878 16.25C4.32078 15.6997 4.06552 15.1153 3.87778 14.508L2.92178 14.804C3.13214 15.4825 3.41792 16.1353 3.77378 16.75L4.63878 16.25ZM5.76678 17.78C5.33511 17.3138 4.95608 16.8006 4.63878 16.25L3.77378 16.75C4.12823 17.3653 4.55053 17.9389 5.03278 18.46L5.76678 17.78ZM13.8898 20.29C12.6463 20.5728 11.355 20.5721 10.1118 20.288L9.88878 21.262C11.2781 21.5797 12.7221 21.5807 14.1118 21.265L13.8898 20.29ZM20.1228 14.508C19.7473 15.7268 19.1024 16.8454 18.2358 17.781L18.9688 18.461C19.9377 17.4154 20.6588 16.1652 21.0788 14.803L20.1228 14.508ZM19.3628 7.75004C19.6868 8.31304 19.9398 8.89704 20.1248 9.49204L21.0798 9.19604C20.8694 8.51756 20.5837 7.86481 20.2278 7.25004L19.3628 7.75004ZM18.2348 6.22004C18.6665 6.68631 19.0455 7.19952 19.3628 7.75004L20.2278 7.25004C19.8734 6.63478 19.4511 6.0612 18.9688 5.54004L18.2348 6.22004ZM10.1118 3.71004C11.3553 3.42728 12.6466 3.42797 13.8898 3.71204L14.1118 2.73804C12.7225 2.42037 11.2795 2.41934 9.88978 2.73504L10.1118 3.71004ZM10.5008 5.07204V3.22204H9.50078V5.07204H10.5008ZM7.25078 6.37004L5.64978 5.44604L5.14978 6.31104L6.74978 7.23604L7.25078 6.37004ZM4.75078 13.298L3.14878 14.222L3.64978 15.088L5.24978 14.164L4.75078 13.298ZM5.25078 9.83404L3.65078 8.91104L3.15078 9.77604L4.75078 10.7L5.25078 9.83404ZM10.5008 20.774V18.927H9.50078V20.774H10.5008ZM6.75078 16.762L5.14978 17.686L5.64878 18.552L7.24978 17.628L6.75078 16.762ZM18.8518 17.687L17.2508 16.762L16.7508 17.629L18.3508 18.553L18.8518 17.687ZM14.5008 20.777V18.927H13.5008V20.777H14.5008ZM20.3518 8.91004L18.7508 9.83404L19.2508 10.7L20.8508 9.77604L20.3518 8.91004ZM20.8498 14.221L19.2508 13.3L18.7508 14.166L20.3508 15.089L20.8498 14.221ZM14.5008 5.07204V3.22504H13.5008V5.07204H14.5008ZM18.3518 5.44604L16.7508 6.37104L17.2508 7.23704L18.8518 6.31204L18.3518 5.44604ZM13.5008 5.07204C13.5008 6.99604 15.5838 8.19904 17.2508 7.23704L16.7508 6.37104C16.5227 6.50273 16.2639 6.57204 16.0006 6.572C15.7372 6.57196 15.4784 6.50256 15.2504 6.3708C15.0223 6.23903 14.833 6.04954 14.7014 5.82138C14.5698 5.59321 14.5006 5.33542 14.5008 5.07204H13.5008ZM18.7508 9.83504C17.0838 10.797 17.0838 13.203 18.7508 14.165L19.2508 13.299C19.0228 13.1674 18.8335 12.978 18.7018 12.75C18.5702 12.522 18.5009 12.2633 18.5009 12C18.5009 11.7367 18.5702 11.4781 18.7018 11.2501C18.8335 11.0221 19.0228 10.8327 19.2508 10.701L18.7508 9.83504ZM17.2508 16.763C15.5838 15.801 13.5008 17.002 13.5008 18.927H14.5008C14.5008 18.6637 14.5701 18.4061 14.7018 18.1781C14.8334 17.95 15.0228 17.7607 15.2508 17.629C15.4788 17.4974 15.7375 17.4281 16.0008 17.4281C16.2641 17.4281 16.5228 17.4974 16.7508 17.629L17.2508 16.763ZM10.5008 18.927C10.5008 17.003 8.41778 15.801 6.75078 16.763L7.25078 17.629C7.47888 17.4973 7.73764 17.428 8.00102 17.4281C8.26441 17.4281 8.52314 17.4975 8.7512 17.6293C8.97926 17.761 9.1686 17.9505 9.30018 18.1787C9.43177 18.4069 9.50095 18.6657 9.50078 18.929L10.5008 18.927ZM5.25078 14.165C6.91778 13.203 6.91778 10.797 5.25078 9.83504L4.75078 10.701C5.75078 11.278 5.75078 12.72 4.75078 13.298L5.25078 14.165ZM9.50078 5.07204C9.5006 5.33526 9.43116 5.59379 9.29943 5.82167C9.1677 6.04956 8.97833 6.23877 8.75033 6.3703C8.52233 6.50183 8.26374 6.57105 8.00052 6.571C7.73731 6.57095 7.47873 6.50165 7.25078 6.37004L6.75078 7.23704C8.41778 8.19904 10.5008 6.99704 10.5008 5.07204H9.50078Z" fill="#333333"/>
</g>
</svg>
