<svg width="20" height="18" viewBox="0 0 20 18" fill="none" xmlns="http://www.w3.org/2000/svg">
<path fill-rule="evenodd" clip-rule="evenodd" d="M0.628451 0.00154707C0.749188 -0.00543955 0.865922 0.0112378 0.978658 0.0515766C1.1698 0.125978 1.30321 0.259389 1.37889 0.451813C1.39546 5.53346 1.41214 10.6115 1.42892 15.6858C7.41578 15.6858 13.4027 15.6858 19.3895 15.6858C19.8749 15.8088 20.0708 16.1173 19.9774 16.6114C19.8823 16.865 19.703 17.0192 19.4396 17.0741C13.1358 17.0908 6.83211 17.0908 0.528392 17.0741C0.242551 16.9759 0.0674476 16.78 0.00308214 16.4863C-0.00517649 11.1491 0.00316168 5.81263 0.0280969 0.476828C0.13899 0.207681 0.339108 0.0492552 0.628451 0.00154707Z" fill="black"/>
<path fill-rule="evenodd" clip-rule="evenodd" d="M6.88296 6.48071C7.0071 6.46185 7.13218 6.45352 7.25818 6.4557C7.35478 6.47891 7.44651 6.51643 7.53334 6.56826C8.80416 7.41804 10.0716 8.27272 11.3356 9.13228C13.6083 7.31395 15.8847 5.50038 18.1646 3.69156C18.5584 3.51133 18.8878 3.59053 19.1527 3.9292C19.3174 4.28827 19.2549 4.60095 18.9651 4.86726C16.5637 6.77671 14.1623 8.68619 11.7608 10.5956C11.5144 10.7343 11.2643 10.7427 11.0104 10.6207C9.77141 9.77776 8.529 8.93976 7.28319 8.10667C5.96384 9.85323 4.65056 11.6043 3.34336 13.3598C3.07185 13.5808 2.77583 13.6184 2.45534 13.4723C2.13847 13.2257 2.05092 12.913 2.19269 12.5343C3.66968 10.56 5.14973 8.58806 6.63281 6.61829C6.7055 6.55278 6.78887 6.5069 6.88296 6.48071Z" fill="#020202"/>
</svg>
