<svg width="20" height="20" viewBox="0 0 20 20" fill="none" xmlns="http://www.w3.org/2000/svg">
<path d="M17.2037 9.10184V8.20164C17.2037 4.80697 17.2037 3.10918 16.0875 2.05504C14.9694 1 13.1726 1 9.579 1H8.62478C5.03022 1 3.23251 1 2.11625 2.05504C1 3.11008 1 4.80697 1 8.20164V11.8025C1 15.1971 1 16.8949 2.11625 17.9491C3.23251 19.0032 5.03112 19.0041 8.62478 19.0041H9.10189M5.50102 5.50102H12.7027M5.50102 10.002H12.7027M17.9779 12.1985L18.6035 12.8215C18.7291 12.9467 18.8289 13.0955 18.8969 13.2593C18.965 13.4231 19 13.5987 19 13.7762C19 13.9536 18.965 14.1292 18.8969 14.2931C18.8289 14.4568 18.7291 14.6056 18.6035 14.7308L15.3286 18.058C15.0709 18.3151 14.7413 18.488 14.3834 18.554L12.3543 18.9933C12.2807 19.0096 12.2041 19.0072 12.1317 18.9862C12.0592 18.9652 11.9933 18.9263 11.9398 18.8732C11.8862 18.82 11.847 18.7543 11.8255 18.682C11.804 18.6097 11.8011 18.5332 11.8169 18.4595L12.249 16.4475C12.3156 16.0901 12.4894 15.7616 12.7477 15.505L16.0632 12.1976C16.3174 11.9444 16.6616 11.8022 17.0205 11.8022C17.3794 11.8022 17.7236 11.9453 17.9779 12.1985Z" stroke="#333333" stroke-width="1.5" stroke-linecap="round" stroke-linejoin="round"/>
</svg>
