<svg width="22" height="22" viewBox="0 0 22 22" fill="none" xmlns="http://www.w3.org/2000/svg">
<circle cx="11" cy="11" r="11" fill="url(#paint0_linear_194_6994)"/>
<path d="M16.4496 15.4719C15.5981 14.0152 14.2614 12.993 12.7083 12.5596C13.4634 12.1795 14.0672 11.5587 14.4224 10.7974C14.7776 10.036 14.8634 9.17838 14.6661 8.36279C14.4687 7.54721 13.9997 6.8212 13.3346 6.30183C12.6695 5.78246 11.8471 5.5 11 5.5C10.1529 5.5 9.33052 5.78246 8.66542 6.30183C8.00031 6.8212 7.53127 7.54721 7.33391 8.36279C7.13655 9.17838 7.22239 10.036 7.57758 10.7974C7.93277 11.5587 8.53661 12.1795 9.29173 12.5596C7.73855 12.9925 6.40188 14.0146 5.55044 15.4719C5.52706 15.5083 5.51136 15.549 5.50428 15.5916C5.49721 15.6341 5.49891 15.6777 5.50928 15.7196C5.51965 15.7615 5.53847 15.8009 5.56462 15.8355C5.59076 15.87 5.62369 15.8989 5.66142 15.9204C5.69915 15.942 5.7409 15.9559 5.78417 15.9611C5.82743 15.9663 5.8713 15.9628 5.91316 15.9507C5.95501 15.9387 5.99398 15.9184 6.02771 15.8911C6.06145 15.8638 6.08925 15.83 6.10945 15.7918C7.144 14.0221 8.97183 12.9658 11 12.9658C13.0282 12.9658 14.856 14.0221 15.8906 15.7918C15.9108 15.83 15.9385 15.8638 15.9723 15.8911C16.006 15.9184 16.045 15.9387 16.0869 15.9507C16.1287 15.9628 16.1726 15.9663 16.2158 15.9611C16.2591 15.9559 16.3009 15.942 16.3386 15.9204C16.3763 15.8989 16.4092 15.87 16.4354 15.8355C16.4615 15.8009 16.4804 15.7615 16.4907 15.7196C16.5011 15.6777 16.5028 15.6341 16.4957 15.5916C16.4887 15.549 16.4729 15.5083 16.4496 15.4719ZM7.87642 9.23347C7.87642 8.62183 8.05962 8.02392 8.40284 7.51535C8.74606 7.00679 9.2339 6.61041 9.80466 6.37634C10.3754 6.14227 11.0034 6.08103 11.6094 6.20036C12.2153 6.31968 12.7719 6.61422 13.2087 7.04672C13.6456 7.47922 13.9431 8.03026 14.0636 8.63015C14.1841 9.23004 14.1222 9.85185 13.8858 10.4169C13.6494 10.982 13.249 11.465 12.7354 11.8048C12.2217 12.1446 11.6178 12.326 11 12.326C10.1719 12.325 9.37797 11.9989 8.7924 11.4192C8.20683 10.8394 7.87742 10.0534 7.87642 9.23347Z" fill="white" stroke="white" stroke-width="0.5"/>
<defs>
<linearGradient id="paint0_linear_194_6994" x1="11" y1="0" x2="11" y2="22" gradientUnits="userSpaceOnUse">
<stop stop-color="#49D46F"/>
<stop offset="1" stop-color="#25BE9F"/>
</linearGradient>
</defs>
</svg>
