<svg width="20" height="20" viewBox="0 0 20 20" fill="none" xmlns="http://www.w3.org/2000/svg">
<g id="clarity_search-line 1" clip-path="url(#clip0_187_3069)">
<g id="Clip path group">
<mask id="mask0_187_3069" style="mask-type:luminance" maskUnits="userSpaceOnUse" x="0" y="0" width="20" height="20">
<g id="clip0_130_12">
<path id="Vector" d="M20 0H0V20H20V0Z" fill="white"/>
</g>
</mask>
<g mask="url(#mask0_187_3069)">
<g id="Group">
<path id="Vector_2" d="M9.07184 2.80588C10.2752 2.80478 11.452 3.16063 12.4531 3.8284C13.4542 4.49618 14.2348 5.44589 14.6961 6.55738C15.1573 7.66888 15.2786 8.89221 15.0445 10.0726C14.8104 11.253 14.2315 12.3375 13.3809 13.1888C12.5304 14.0402 11.4465 14.62 10.2662 14.8553C9.08601 15.0904 7.86256 14.9703 6.75068 14.51C5.63879 14.0497 4.68836 13.27 4.01967 12.2695C3.35098 11.269 2.99405 10.0926 2.99405 8.88921C3.00135 7.27905 3.64385 5.73677 4.78192 4.59767C5.92001 3.45856 7.46167 2.81465 9.07184 2.80588ZM9.07184 1.66699C7.6434 1.66699 6.24706 2.09057 5.05938 2.88416C3.87169 3.67774 2.946 4.8057 2.39937 6.12538C1.85274 7.4451 1.70971 8.89721 1.98839 10.2982C2.26705 11.6992 2.9549 12.986 3.96495 13.9961C4.975 15.0062 6.2619 15.694 7.66284 15.9727C9.06384 16.2513 10.516 16.1083 11.8357 15.5617C13.1553 15.015 14.2833 14.0894 15.0769 12.9017C15.8705 11.714 16.2941 10.3177 16.2941 8.88921C16.2941 6.97377 15.5331 5.13676 14.1787 3.78233C12.8243 2.4279 10.9873 1.66699 9.07184 1.66699Z" fill="#6A6A6A"/>
<path id="Vector_3" d="M19.4439 18.4953L15.3494 14.373L14.5605 15.1564L18.655 19.2786C18.7064 19.3304 18.7675 19.3715 18.8349 19.3998C18.9022 19.4279 18.9744 19.4425 19.0474 19.4428C19.1204 19.443 19.1928 19.4289 19.2603 19.4013C19.3279 19.3735 19.3893 19.3328 19.4411 19.2814C19.4929 19.2299 19.534 19.1688 19.5622 19.1015C19.5904 19.0342 19.605 18.9619 19.6053 18.8889C19.6055 18.8159 19.5914 18.7436 19.5637 18.676C19.536 18.6085 19.4953 18.5471 19.4439 18.4953Z" fill="#6A6A6A"/>
</g>
</g>
</g>
</g>
<defs>
<clipPath id="clip0_187_3069">
<rect width="20" height="20" fill="white"/>
</clipPath>
</defs>
</svg>
