<svg width="32" height="32" viewBox="0 0 32 32" fill="none" xmlns="http://www.w3.org/2000/svg">
<circle cx="16" cy="16" r="16" fill="#2272D4"/>
<path d="M23.9266 22.5045C22.6882 20.3857 20.7439 18.899 18.4848 18.2684C19.5832 17.7156 20.4614 16.8127 20.9781 15.7053C21.4947 14.5978 21.6195 13.3504 21.3325 12.1641C21.0454 10.9778 20.3632 9.92174 19.3958 9.1663C18.4284 8.41085 17.2321 8 16 8C14.7679 8 13.5717 8.41085 12.6042 9.1663C11.6368 9.92174 10.9546 10.9778 10.6675 12.1641C10.3804 13.3504 10.5053 14.5978 11.0219 15.7053C11.5386 16.8127 12.4169 17.7156 13.5152 18.2684C11.2561 18.8982 9.31182 20.3849 8.07336 22.5045C8.03935 22.5575 8.01652 22.6167 8.00623 22.6786C7.99594 22.7405 7.99841 22.8039 8.0135 22.8649C8.02858 22.9258 8.05596 22.9831 8.09399 23.0334C8.13202 23.0836 8.17991 23.1256 8.23479 23.157C8.28967 23.1884 8.3504 23.2085 8.41333 23.2161C8.47626 23.2237 8.54008 23.2186 8.60096 23.2011C8.66184 23.1836 8.71852 23.1541 8.76758 23.1144C8.81665 23.0746 8.85708 23.0255 8.88647 22.9699C10.3913 20.3958 13.0499 18.8594 16 18.8594C18.9501 18.8594 21.6087 20.3958 23.1135 22.9699C23.1429 23.0255 23.1833 23.0746 23.2324 23.1144C23.2815 23.1541 23.3382 23.1836 23.3991 23.2011C23.4599 23.2186 23.5238 23.2237 23.5867 23.2161C23.6496 23.2085 23.7104 23.1884 23.7652 23.157C23.8201 23.1256 23.868 23.0836 23.906 23.0334C23.944 22.9831 23.9715 22.9258 23.9865 22.8649C24.0016 22.8039 24.004 22.7405 23.9938 22.6786C23.9835 22.6167 23.9606 22.5575 23.9266 22.5045ZM11.4566 13.4305C11.4566 12.5408 11.7231 11.6712 12.2223 10.9314C12.7215 10.1917 13.4311 9.61514 14.2613 9.27468C15.0915 8.93422 16.005 8.84514 16.8864 9.01871C17.7677 9.19227 18.5773 9.62069 19.2126 10.2498C19.8481 10.8789 20.2808 11.6804 20.4561 12.5529C20.6314 13.4255 20.5414 14.33 20.1975 15.1519C19.8537 15.9739 19.2713 16.6764 18.5242 17.1706C17.777 17.6649 16.8986 17.9287 16 17.9287C14.7955 17.9273 13.6407 17.4529 12.7889 16.6097C11.9372 15.7664 11.4581 14.6231 11.4566 13.4305Z" fill="white" stroke="white" stroke-width="0.5"/>
</svg>
