<svg width="24" height="23" viewBox="0 0 24 23" fill="none" xmlns="http://www.w3.org/2000/svg">
<g id="Vector (1) 1" clip-path="url(#clip0_179_1173)">
<path id="Vector" d="M23.7889 21.6856C21.947 18.5343 19.0553 16.3231 15.6953 15.3853C17.329 14.5631 18.6352 13.2203 19.4036 11.5732C20.1719 9.92609 20.3576 8.07077 19.9307 6.3064C19.5038 4.54204 18.4891 2.97145 17.0503 1.84789C15.6114 0.724325 13.8323 0.113281 11.9998 0.113281C10.1673 0.113281 8.38819 0.724325 6.94935 1.84789C5.51052 2.97145 4.49583 4.54204 4.06889 6.3064C3.64194 8.07077 3.82763 9.92609 4.59601 11.5732C5.3644 13.2203 6.6707 14.5631 8.30426 15.3853C4.94426 16.3219 2.05261 18.5331 0.21067 21.6856C0.160093 21.7643 0.126132 21.8524 0.11083 21.9445C0.0955294 22.0366 0.0992043 22.1308 0.121633 22.2215C0.144064 22.3121 0.184784 22.3974 0.241347 22.4721C0.297909 22.5467 0.369144 22.6093 0.450767 22.656C0.532389 22.7027 0.622711 22.7326 0.716301 22.7439C0.80989 22.7552 0.904812 22.7476 0.995356 22.7215C1.0859 22.6955 1.1702 22.6516 1.24317 22.5925C1.31614 22.5335 1.37628 22.4604 1.41999 22.3776C3.65804 18.5493 7.61222 16.2643 11.9998 16.2643C16.3874 16.2643 20.3415 18.5493 22.5796 22.3776C22.6233 22.4604 22.6834 22.5335 22.7565 22.5925C22.8294 22.6516 22.9137 22.6955 23.0043 22.7215C23.0948 22.7476 23.1897 22.7552 23.2833 22.7439C23.3768 22.7326 23.4672 22.7027 23.5488 22.656C23.6305 22.6093 23.7017 22.5467 23.7583 22.4721C23.8148 22.3974 23.8556 22.3121 23.8779 22.2215C23.9004 22.1308 23.904 22.0366 23.8888 21.9445C23.8735 21.8524 23.8395 21.7643 23.7889 21.6856ZM5.24251 8.18995C5.24251 6.86677 5.63882 5.57331 6.38132 4.47312C7.12382 3.37294 8.17917 2.51545 9.4139 2.00908C10.6486 1.50272 12.0072 1.37024 13.318 1.62838C14.6288 1.88652 15.8329 2.52369 16.7779 3.45932C17.723 4.39496 18.3665 5.58702 18.6273 6.88478C18.888 8.18254 18.7542 9.52769 18.2427 10.7502C17.7312 11.9727 16.8652 13.0175 15.7539 13.7526C14.6427 14.4877 13.3362 14.8801 11.9998 14.8801C10.2083 14.8779 8.49083 14.1724 7.22406 12.9183C5.95729 11.6641 5.24468 9.96363 5.24251 8.18995Z" fill="#333333"/>
</g>
<defs>
<clipPath id="clip0_179_1173">
<rect width="24" height="22.8387" fill="white"/>
</clipPath>
</defs>
</svg>
