<svg width="160" height="24" viewBox="0 0 160 24" fill="none" xmlns="http://www.w3.org/2000/svg">
<g id="Group 6983">
<path id="Vector" d="M46 6.40004C46 4.86002 46 4.09002 46.2992 3.50151C46.5629 2.98379 46.9838 2.56291 47.5015 2.2992C48.09 2 48.86 2 50.4 2C51.9401 2 52.7101 2 53.2986 2.2992C53.8163 2.56291 54.2372 2.98379 54.5009 3.50151C54.8001 4.09002 54.8001 4.86002 54.8001 6.40004M46 6.40004V17.4001C46 18.9401 46 19.7102 46.2992 20.2987C46.5631 20.816 46.984 21.2364 47.5015 21.4999C48.09 21.8002 48.86 21.8002 50.4 21.8002C51.9401 21.8002 52.7101 21.8002 53.2986 21.4999C53.8161 21.2364 54.237 20.816 54.5009 20.2987C54.8001 19.7102 54.8001 18.9401 54.8001 17.4001V6.40004M46 6.40004H54.8001M50.4 17.4001H50.4099M63.3592 17.0646L63.3692 17.0624M57.0001 7.50005L64.1502 5.30003M56.394 7.79485C56.0035 6.33184 55.8077 5.60033 55.943 4.96563C56.0607 4.4075 56.3517 3.90084 56.7746 3.51801C57.2553 3.08351 57.9846 2.88771 59.441 2.495C60.8974 2.1034 61.6267 1.9076 62.2581 2.0429C62.815 2.16167 63.3196 2.45445 63.6992 2.87891C64.1326 3.36071 64.3284 4.09222 64.7189 5.55523L67.5063 16.0053C67.8968 17.4683 68.0926 18.1998 67.9573 18.8345C67.8396 19.3927 67.5485 19.8994 67.1257 20.2822C66.645 20.7167 65.9157 20.9125 64.4593 21.3052C63.0028 21.6968 62.2746 21.8926 61.6421 21.7573C61.0855 21.6378 60.5811 21.3451 60.2011 20.9213C59.7677 20.4395 59.5719 19.708 59.1814 18.2449L56.394 7.79485Z" stroke="#333333" stroke-width="1.3" stroke-linecap="round" stroke-linejoin="round"/>
<g id="Group 6977">
<path id="Vector_2" d="M146.8 4.85H151.2C151.2 4.26653 150.968 3.70695 150.556 3.29437C150.143 2.88178 149.583 2.65 149 2.65C148.417 2.65 147.857 2.88178 147.444 3.29437C147.032 3.70695 146.8 4.26653 146.8 4.85ZM145.15 4.85C145.15 4.34441 145.25 3.84377 145.443 3.37667C145.637 2.90957 145.92 2.48514 146.278 2.12764C146.635 1.77013 147.06 1.48654 147.527 1.29306C147.994 1.09958 148.494 1 149 1C149.506 1 150.006 1.09958 150.473 1.29306C150.94 1.48654 151.365 1.77013 151.722 2.12764C152.08 2.48514 152.363 2.90957 152.557 3.37667C152.75 3.84377 152.85 4.34441 152.85 4.85H159.175C159.394 4.85 159.604 4.93692 159.758 5.09164C159.913 5.24635 160 5.4562 160 5.675C160 5.8938 159.913 6.10365 159.758 6.25836C159.604 6.41308 159.394 6.5 159.175 6.5H157.723L156.436 19.8221C156.337 20.8429 155.862 21.7902 155.102 22.4795C154.343 23.1687 153.354 23.5504 152.329 23.55H145.671C144.646 23.5501 143.657 23.1683 142.898 22.4791C142.139 21.7899 141.664 20.8427 141.565 19.8221L140.277 6.5H138.825C138.606 6.5 138.396 6.41308 138.242 6.25836C138.087 6.10365 138 5.8938 138 5.675C138 5.4562 138.087 5.24635 138.242 5.09164C138.396 4.93692 138.606 4.85 138.825 4.85H145.15ZM147.35 10.075C147.35 9.8562 147.263 9.64635 147.108 9.49164C146.954 9.33692 146.744 9.25 146.525 9.25C146.306 9.25 146.096 9.33692 145.942 9.49164C145.787 9.64635 145.7 9.8562 145.7 10.075V18.325C145.7 18.5438 145.787 18.7537 145.942 18.9083C146.096 19.0631 146.306 19.15 146.525 19.15C146.744 19.15 146.954 19.0631 147.108 18.9083C147.263 18.7537 147.35 18.5438 147.35 18.325V10.075ZM151.475 9.25C151.694 9.25 151.904 9.33692 152.058 9.49164C152.213 9.64635 152.3 9.8562 152.3 10.075V18.325C152.3 18.5438 152.213 18.7537 152.058 18.9083C151.904 19.0631 151.694 19.15 151.475 19.15C151.256 19.15 151.046 19.0631 150.892 18.9083C150.737 18.7537 150.65 18.5438 150.65 18.325V10.075C150.65 9.8562 150.737 9.64635 150.892 9.49164C151.046 9.33692 151.256 9.25 151.475 9.25ZM143.207 19.6637C143.267 20.276 143.552 20.8443 144.008 21.2577C144.463 21.6712 145.056 21.9001 145.671 21.9H152.329C152.944 21.9001 153.537 21.6712 153.992 21.2577C154.448 20.8443 154.733 20.276 154.793 19.6637L156.066 6.5H141.934L143.207 19.6637Z" fill="#626262"/>
<path id="Icon" d="M11 21.625H21M14.125 3.5L18.5 7.25M2.875 14.75L15.1993 1.99524C16.5263 0.668257 18.6778 0.668254 20.0048 1.99523C21.3317 3.32221 21.3317 5.47367 20.0048 6.80065L7.25 19.125L1 21L2.875 14.75Z" stroke="url(#paint0_linear_177_1726)" stroke-width="1.2" stroke-linecap="round" stroke-linejoin="round"/>
<path id="Vector_3" d="M111.004 11.002V10.0018C111.004 6.22996 111.004 4.34353 109.764 3.17227C108.522 2 106.525 2 102.532 2H101.472C97.478 2 95.4806 2 94.2403 3.17227C93 4.34453 93 6.22996 93 10.0018V14.0027C93 17.7746 93 19.661 94.2403 20.8323C95.4806 22.0035 97.479 22.0045 101.472 22.0045H102.002M98.0011 7.00114H106.003M98.0011 12.0023H106.003M111.864 14.4428L112.559 15.135C112.699 15.2741 112.81 15.4395 112.885 15.6214C112.961 15.8034 113 15.9986 113 16.1957C113 16.3929 112.961 16.588 112.885 16.7701C112.81 16.952 112.699 17.1173 112.559 17.2565L108.921 20.9533C108.634 21.239 108.268 21.4311 107.87 21.5044L105.616 21.9925C105.534 22.0107 105.449 22.008 105.369 21.9846C105.288 21.9613 105.215 21.9181 105.155 21.8591C105.096 21.8 105.052 21.727 105.028 21.6467C105.004 21.5663 105.001 21.4813 105.019 21.3994L105.499 19.1639C105.573 18.7668 105.766 18.4017 106.053 18.1167L109.737 14.4418C110.019 14.1605 110.402 14.0024 110.801 14.0024C111.199 14.0024 111.582 14.1615 111.864 14.4428Z" stroke="#333333" stroke-width="1.5" stroke-linecap="round" stroke-linejoin="round"/>
</g>
</g>
<defs>
<linearGradient id="paint0_linear_177_1726" x1="11" y1="1" x2="11" y2="21.625" gradientUnits="userSpaceOnUse">
<stop stop-color="#49D46F"/>
<stop offset="1" stop-color="#25BE9F"/>
</linearGradient>
</defs>
</svg>
