<svg width="153" height="60" viewBox="0 0 153 60" fill="none" xmlns="http://www.w3.org/2000/svg">
<rect x="1.5" y="5.5" width="151" height="49" rx="19.5" fill="#B6FBB6" stroke="#E2E2E2"/>
<path d="M78.112 33.848V30.488H74.8V29.064H78.112V25.72H79.568V29.064H82.864V30.488H79.568V33.848H78.112ZM88.6854 35V33.656L92.8454 29.672C94.4454 28.12 94.7974 27.576 94.7974 26.6C94.7974 25.288 93.8374 24.328 92.5094 24.328C91.0694 24.328 90.1894 25.368 90.1894 27.08H88.7174C88.7174 24.552 90.1894 22.968 92.5254 22.968C94.7014 22.968 96.2854 24.52 96.2854 26.648C96.2854 27.976 95.7574 28.872 94.0774 30.472L90.7494 33.624H96.2374V35H88.6854ZM97.512 30.808V27.24C97.512 24.52 98.952 22.968 101.464 22.968C103.96 22.968 105.432 24.536 105.432 27.192V30.808C105.432 33.672 104.088 35.208 101.56 35.208C98.968 35.208 97.512 33.64 97.512 30.808ZM99 30.664C99 32.792 99.832 33.848 101.512 33.848C103.176 33.848 103.944 32.84 103.944 30.68V27.416C103.944 25.368 103.128 24.328 101.48 24.328C99.848 24.328 99 25.384 99 27.416V30.664Z" fill="#333333"/>
<path d="M118 24.5C117.2 23.7004 115.793 23.1452 114.5 23.1098M114.5 23.1098C112.961 23.0685 111.584 23.7653 111.584 25.6661C111.584 29.1661 118 27.4161 118 30.9161C118 32.913 116.292 33.7707 114.5 33.7058M114.5 23.1098V21M114.5 33.7058C113.15 33.6569 111.752 33.0857 111 32.083M114.5 33.7058V36.1661" stroke="#333333" stroke-width="1.5" stroke-linecap="round" stroke-linejoin="round"/>
<circle cx="30" cy="30" r="29.5" fill="#B6FBB6" stroke="#E2E2E2"/>
<path d="M36.3263 19.9043H39.6998L32.3297 28.3278L41 39.7903H34.2112L28.894 32.8383L22.8099 39.7903H19.4344L27.3174 30.7804L19 19.9043H25.9611L30.7674 26.2586L36.3263 19.9043ZM35.1423 37.7711H37.0116L24.9454 21.8174H22.9395L35.1423 37.7711Z" fill="black"/>
</svg>
