<svg width="154" height="60" viewBox="0 0 154 60" fill="none" xmlns="http://www.w3.org/2000/svg">
<rect x="2.5" y="5.5" width="151" height="49" rx="19.5" fill="white" stroke="#E2E2E2"/>
<path d="M79.112 33.848V30.488H75.8V29.064H79.112V25.72H80.568V29.064H83.864V30.488H80.568V33.848H79.112ZM89.6854 35V33.656L93.8454 29.672C95.4454 28.12 95.7974 27.576 95.7974 26.6C95.7974 25.288 94.8374 24.328 93.5094 24.328C92.0694 24.328 91.1894 25.368 91.1894 27.08H89.7174C89.7174 24.552 91.1894 22.968 93.5254 22.968C95.7014 22.968 97.2854 24.52 97.2854 26.648C97.2854 27.976 96.7574 28.872 95.0774 30.472L91.7494 33.624H97.2374V35H89.6854ZM98.512 30.808V27.24C98.512 24.52 99.952 22.968 102.464 22.968C104.96 22.968 106.432 24.536 106.432 27.192V30.808C106.432 33.672 105.088 35.208 102.56 35.208C99.968 35.208 98.512 33.64 98.512 30.808ZM100 30.664C100 32.792 100.832 33.848 102.512 33.848C104.176 33.848 104.944 32.84 104.944 30.68V27.416C104.944 25.368 104.128 24.328 102.48 24.328C100.848 24.328 100 25.384 100 27.416V30.664Z" fill="#333333"/>
<path d="M119 24.5C118.2 23.7004 116.793 23.1452 115.5 23.1098M115.5 23.1098C113.961 23.0685 112.584 23.7653 112.584 25.6661C112.584 29.1661 119 27.4161 119 30.9161C119 32.913 117.292 33.7707 115.5 33.7058M115.5 23.1098V21M115.5 33.7058C114.15 33.6569 112.752 33.0857 112 32.083M115.5 33.7058V36.1661" stroke="#333333" stroke-width="1.5" stroke-linecap="round" stroke-linejoin="round"/>
<circle cx="30" cy="30" r="29.5" fill="white" stroke="#E2E2E2"/>
<rect x="17" y="17" width="26" height="26" rx="13" fill="#0077FF"/>
<path d="M30.6382 34.5502C25.7525 34.5502 22.9657 31.1343 22.8496 25.4502H25.297C25.3773 29.6222 27.1816 31.3893 28.6107 31.7537V25.4502H30.9151V29.0483C32.3264 28.8934 33.8091 27.2538 34.3093 25.4502H36.6137C36.4252 26.3856 36.0495 27.2713 35.5101 28.0518C34.9706 28.8324 34.279 29.491 33.4786 29.9865C34.3721 30.4393 35.1612 31.0802 35.794 31.8668C36.4268 32.6535 36.8888 33.5681 37.1496 34.5502H34.6129C34.3789 33.6971 33.9031 32.9335 33.2453 32.355C32.5875 31.7765 31.7769 31.4089 30.9151 31.2982V34.5502H30.6382Z" fill="white"/>
</svg>
