<svg width="154" height="60" viewBox="0 0 154 60" fill="none" xmlns="http://www.w3.org/2000/svg">
<rect x="2.5" y="5.5" width="151" height="49" rx="19.5" fill="#B6FBB6" stroke="#E2E2E2"/>
<path d="M79.112 33.848V30.488H75.8V29.064H79.112V25.72H80.568V29.064H83.864V30.488H80.568V33.848H79.112ZM89.6854 35V33.656L93.8454 29.672C95.4454 28.12 95.7974 27.576 95.7974 26.6C95.7974 25.288 94.8374 24.328 93.5094 24.328C92.0694 24.328 91.1894 25.368 91.1894 27.08H89.7174C89.7174 24.552 91.1894 22.968 93.5254 22.968C95.7014 22.968 97.2854 24.52 97.2854 26.648C97.2854 27.976 96.7574 28.872 95.0774 30.472L91.7494 33.624H97.2374V35H89.6854ZM98.512 30.808V27.24C98.512 24.52 99.952 22.968 102.464 22.968C104.96 22.968 106.432 24.536 106.432 27.192V30.808C106.432 33.672 105.088 35.208 102.56 35.208C99.968 35.208 98.512 33.64 98.512 30.808ZM100 30.664C100 32.792 100.832 33.848 102.512 33.848C104.176 33.848 104.944 32.84 104.944 30.68V27.416C104.944 25.368 104.128 24.328 102.48 24.328C100.848 24.328 100 25.384 100 27.416V30.664Z" fill="#333333"/>
<path d="M119 24.5C118.2 23.7004 116.793 23.1452 115.5 23.1098M115.5 23.1098C113.961 23.0685 112.584 23.7653 112.584 25.6661C112.584 29.1661 119 27.4161 119 30.9161C119 32.913 117.292 33.7707 115.5 33.7058M115.5 23.1098V21M115.5 33.7058C114.15 33.6569 112.752 33.0857 112 32.083M115.5 33.7058V36.1661" stroke="#333333" stroke-width="1.5" stroke-linecap="round" stroke-linejoin="round"/>
<circle cx="30" cy="30" r="29.5" fill="#B6FBB6" stroke="#E2E2E2"/>
<g clip-path="url(#clip0_156_4217)">
<path d="M30 27.8184V32.4656H36.4582C36.1746 33.9602 35.3236 35.2257 34.0472 36.0766L37.9417 39.0984C40.2108 37.0039 41.5199 33.9276 41.5199 30.273C41.5199 29.4221 41.4436 28.6039 41.3017 27.8185L30 27.8184Z" fill="#4285F4"/>
<path d="M23.2746 32.2842L22.3963 32.9566L19.2871 35.3783C21.2616 39.2947 25.3086 42.0002 29.9995 42.0002C33.2394 42.0002 35.9557 40.9311 37.9412 39.0984L34.0467 36.0765C32.9776 36.7965 31.614 37.2329 29.9995 37.2329C26.8795 37.2329 24.2287 35.1275 23.2795 32.2911L23.2746 32.2842Z" fill="#34A853"/>
<path d="M19.2872 24.6221C18.469 26.2365 18 28.0584 18 30.0002C18 31.942 18.469 33.7638 19.2872 35.3783C19.2872 35.3891 23.28 32.2801 23.28 32.2801C23.04 31.5601 22.8981 30.7965 22.8981 30.0001C22.8981 29.2036 23.04 28.44 23.28 27.72L19.2872 24.6221Z" fill="#FBBC05"/>
<path d="M29.9997 22.7782C31.767 22.7782 33.3379 23.3891 34.5925 24.5673L38.0288 21.1309C35.9452 19.1892 33.2398 18 29.9997 18C25.3089 18 21.2616 20.6945 19.2871 24.6218L23.2798 27.72C24.2288 24.8836 26.8798 22.7782 29.9997 22.7782Z" fill="#EA4335"/>
</g>
<defs>
<clipPath id="clip0_156_4217">
<rect width="24" height="24" fill="white" transform="translate(18 18)"/>
</clipPath>
</defs>
</svg>
