<svg width="24" height="24" viewBox="0 0 24 24" fill="none" xmlns="http://www.w3.org/2000/svg">
<g id="fluent_delete-24-regular 3">
<path id="Vector" d="M10.0007 5H14.0007C14.0007 4.46957 13.79 3.96086 13.4149 3.58579C13.0398 3.21071 12.5311 3 12.0007 3C11.4703 3 10.9616 3.21071 10.5865 3.58579C10.2114 3.96086 10.0007 4.46957 10.0007 5ZM8.50073 5C8.50073 4.54037 8.59126 4.08525 8.76715 3.66061C8.94304 3.23597 9.20085 2.85013 9.52586 2.52513C9.85086 2.20012 10.2367 1.94231 10.6613 1.76642C11.0859 1.59053 11.5411 1.5 12.0007 1.5C12.4603 1.5 12.9155 1.59053 13.3401 1.76642C13.7647 1.94231 14.1506 2.20012 14.4756 2.52513C14.8006 2.85013 15.0584 3.23597 15.2343 3.66061C15.4102 4.08525 15.5007 4.54037 15.5007 5H21.2507C21.4496 5 21.6404 5.07902 21.781 5.21967C21.9217 5.36032 22.0007 5.55109 22.0007 5.75C22.0007 5.94891 21.9217 6.13968 21.781 6.28033C21.6404 6.42098 21.4496 6.5 21.2507 6.5H19.9307L18.7607 18.611C18.671 19.539 18.2387 20.4002 17.5484 21.0268C16.858 21.6534 15.959 22.0004 15.0267 22H8.97473C8.04259 22.0001 7.14383 21.653 6.45368 21.0265C5.76353 20.3999 5.33146 19.5388 5.24173 18.611L4.07073 6.5H2.75073C2.55182 6.5 2.36105 6.42098 2.2204 6.28033C2.07975 6.13968 2.00073 5.94891 2.00073 5.75C2.00073 5.55109 2.07975 5.36032 2.2204 5.21967C2.36105 5.07902 2.55182 5 2.75073 5H8.50073ZM10.5007 9.75C10.5007 9.55109 10.4217 9.36032 10.281 9.21967C10.1404 9.07902 9.94964 9 9.75073 9C9.55182 9 9.36105 9.07902 9.2204 9.21967C9.07975 9.36032 9.00073 9.55109 9.00073 9.75V17.25C9.00073 17.4489 9.07975 17.6397 9.2204 17.7803C9.36105 17.921 9.55182 18 9.75073 18C9.94964 18 10.1404 17.921 10.281 17.7803C10.4217 17.6397 10.5007 17.4489 10.5007 17.25V9.75ZM14.2507 9C14.4496 9 14.6404 9.07902 14.781 9.21967C14.9217 9.36032 15.0007 9.55109 15.0007 9.75V17.25C15.0007 17.4489 14.9217 17.6397 14.781 17.7803C14.6404 17.921 14.4496 18 14.2507 18C14.0518 18 13.861 17.921 13.7204 17.7803C13.5797 17.6397 13.5007 17.4489 13.5007 17.25V9.75C13.5007 9.55109 13.5797 9.36032 13.7204 9.21967C13.861 9.07902 14.0518 9 14.2507 9ZM6.73473 18.467C6.78867 19.0236 7.04797 19.5403 7.4621 19.9161C7.87622 20.292 8.41548 20.5001 8.97473 20.5H15.0267C15.586 20.5001 16.1252 20.292 16.5393 19.9161C16.9535 19.5403 17.2128 19.0236 17.2667 18.467L18.4247 6.5H5.57673L6.73473 18.467Z" fill="#626262"/>
</g>
</svg>
