<svg width="120" height="120" viewBox="0 0 120 120" fill="none" xmlns="http://www.w3.org/2000/svg">
<g id="system-uicons_picture 1">
<path id="Vector" fill-rule="evenodd" clip-rule="evenodd" d="M31.4286 20H88.5714C91.6023 20 94.5091 21.2041 96.6526 23.3474C98.796 25.4906 100 28.3975 100 31.4286V88.5714C100 91.6023 98.796 94.5091 96.6526 96.6526C94.5091 98.796 91.6023 100 88.5714 100H31.4286C28.3975 100 25.4906 98.796 23.3474 96.6526C21.2041 94.5091 20 91.6023 20 88.5714V31.4286C20 28.3975 21.2041 25.4906 23.3474 23.3474C25.4906 21.2041 28.3975 20 31.4286 20Z" stroke="#626262" stroke-width="3" stroke-linecap="round" stroke-linejoin="round"/>
<path id="Vector_2" d="M100 77.1427L82.8571 59.9999L65.7143 77.057M88.5714 99.9999L37.1429 48.5713L20 65.7141" stroke="#626262" stroke-width="3" stroke-linecap="round" stroke-linejoin="round"/>
<path id="Vector_3" d="M85.2142 40.0004C85.2142 42.8802 82.8798 45.2147 79.9999 45.2147C77.1201 45.2147 74.7856 42.8802 74.7856 40.0004C74.7856 37.1207 77.1201 34.7861 79.9999 34.7861C82.8798 34.7861 85.2142 37.1207 85.2142 40.0004Z" fill="#626262" stroke="#626262"/>
</g>
</svg>
